<svg width="51" height="48" viewBox="0 0 51 48" fill="none" xmlns="http://www.w3.org/2000/svg">
<path d="M7.47613 43.4667H4.56613L4.06613 44.8867H2.87613L5.36613 37.9267H6.68613L9.17613 44.8867H7.97613L7.47613 43.4667ZM7.15613 42.5367L6.02613 39.3067L4.88613 42.5367H7.15613ZM13.0388 39.2867C13.4721 39.2867 13.8588 39.3767 14.1988 39.5567C14.5455 39.7367 14.8155 40.0034 15.0088 40.3567C15.2021 40.7101 15.2988 41.1367 15.2988 41.6367V44.8867H14.1688V41.8067C14.1688 41.3134 14.0455 40.9367 13.7988 40.6767C13.5521 40.4101 13.2155 40.2767 12.7888 40.2767C12.3621 40.2767 12.0221 40.4101 11.7688 40.6767C11.5221 40.9367 11.3988 41.3134 11.3988 41.8067V44.8867H10.2588V39.3767H11.3988V40.0067C11.5855 39.7801 11.8221 39.6034 12.1088 39.4767C12.4021 39.3501 12.7121 39.2867 13.0388 39.2867ZM16.3729 42.1067C16.3729 41.5534 16.4863 41.0634 16.7129 40.6367C16.9463 40.2101 17.2596 39.8801 17.6529 39.6467C18.0529 39.4067 18.4929 39.2867 18.9729 39.2867C19.4063 39.2867 19.7829 39.3734 20.1029 39.5467C20.4296 39.7134 20.6896 39.9234 20.8829 40.1767V39.3767H22.0329V44.8867H20.8829V44.0667C20.6896 44.3267 20.4263 44.5434 20.0929 44.7167C19.7596 44.8901 19.3796 44.9767 18.9529 44.9767C18.4796 44.9767 18.0463 44.8567 17.6529 44.6167C17.2596 44.3701 16.9463 44.0301 16.7129 43.5967C16.4863 43.1567 16.3729 42.6601 16.3729 42.1067ZM20.8829 42.1267C20.8829 41.7467 20.8029 41.4167 20.6429 41.1367C20.4896 40.8567 20.2863 40.6434 20.0329 40.4967C19.7796 40.3501 19.5063 40.2767 19.2129 40.2767C18.9196 40.2767 18.6463 40.3501 18.3929 40.4967C18.1396 40.6367 17.9329 40.8467 17.7729 41.1267C17.6196 41.4001 17.5429 41.7267 17.5429 42.1067C17.5429 42.4867 17.6196 42.8201 17.7729 43.1067C17.9329 43.3934 18.1396 43.6134 18.3929 43.7667C18.6529 43.9134 18.9263 43.9867 19.2129 43.9867C19.5063 43.9867 19.7796 43.9134 20.0329 43.7667C20.2863 43.6201 20.4896 43.4067 20.6429 43.1267C20.8029 42.8401 20.8829 42.5067 20.8829 42.1267ZM24.6703 37.4867V44.8867H23.5303V37.4867H24.6703ZM31.127 39.3767L27.747 47.4767H26.567L27.687 44.7967L25.517 39.3767H26.787L28.337 43.5767L29.947 39.3767H31.127ZM33.3173 40.3067V43.3567C33.3173 43.5634 33.364 43.7134 33.4573 43.8067C33.5573 43.8934 33.724 43.9367 33.9573 43.9367H34.6573V44.8867H33.7573C33.244 44.8867 32.8506 44.7667 32.5773 44.5267C32.304 44.2867 32.1673 43.8967 32.1673 43.3567V40.3067H31.5173V39.3767H32.1673V38.0067H33.3173V39.3767H34.6573V40.3067H33.3173ZM36.288 38.6467C36.0813 38.6467 35.908 38.5767 35.768 38.4367C35.628 38.2967 35.558 38.1234 35.558 37.9167C35.558 37.7101 35.628 37.5367 35.768 37.3967C35.908 37.2567 36.0813 37.1867 36.288 37.1867C36.488 37.1867 36.658 37.2567 36.798 37.3967C36.938 37.5367 37.008 37.7101 37.008 37.9167C37.008 38.1234 36.938 38.2967 36.798 38.4367C36.658 38.5767 36.488 38.6467 36.288 38.6467ZM36.848 39.3767V44.8867H35.708V39.3767H36.848ZM37.9647 42.1267C37.9647 41.5601 38.0781 41.0634 38.3047 40.6367C38.5381 40.2034 38.8581 39.8701 39.2647 39.6367C39.6714 39.4034 40.1381 39.2867 40.6647 39.2867C41.3314 39.2867 41.8814 39.4467 42.3147 39.7667C42.7547 40.0801 43.0514 40.5301 43.2047 41.1167H41.9747C41.8747 40.8434 41.7147 40.6301 41.4947 40.4767C41.2747 40.3234 40.9981 40.2467 40.6647 40.2467C40.1981 40.2467 39.8247 40.4134 39.5447 40.7467C39.2714 41.0734 39.1347 41.5334 39.1347 42.1267C39.1347 42.7201 39.2714 43.1834 39.5447 43.5167C39.8247 43.8501 40.1981 44.0167 40.6647 44.0167C41.3247 44.0167 41.7614 43.7267 41.9747 43.1467H43.2047C43.0447 43.7067 42.7447 44.1534 42.3047 44.4867C41.8647 44.8134 41.3181 44.9767 40.6647 44.9767C40.1381 44.9767 39.6714 44.8601 39.2647 44.6267C38.8581 44.3867 38.5381 44.0534 38.3047 43.6267C38.0781 43.1934 37.9647 42.6934 37.9647 42.1267ZM46.3408 44.9767C45.9075 44.9767 45.5175 44.9001 45.1708 44.7467C44.8308 44.5867 44.5608 44.3734 44.3608 44.1067C44.1608 43.8334 44.0542 43.5301 44.0408 43.1967H45.2208C45.2408 43.4301 45.3508 43.6267 45.5508 43.7867C45.7575 43.9401 46.0142 44.0167 46.3208 44.0167C46.6408 44.0167 46.8875 43.9567 47.0608 43.8367C47.2408 43.7101 47.3308 43.5501 47.3308 43.3567C47.3308 43.1501 47.2308 42.9967 47.0308 42.8967C46.8375 42.7967 46.5275 42.6867 46.1008 42.5667C45.6875 42.4534 45.3508 42.3434 45.0908 42.2367C44.8308 42.1301 44.6042 41.9667 44.4108 41.7467C44.2242 41.5267 44.1308 41.2367 44.1308 40.8767C44.1308 40.5834 44.2175 40.3167 44.3908 40.0767C44.5642 39.8301 44.8108 39.6367 45.1308 39.4967C45.4575 39.3567 45.8308 39.2867 46.2508 39.2867C46.8775 39.2867 47.3808 39.4467 47.7608 39.7667C48.1475 40.0801 48.3542 40.5101 48.3808 41.0567H47.2408C47.2208 40.8101 47.1208 40.6134 46.9408 40.4667C46.7608 40.3201 46.5175 40.2467 46.2108 40.2467C45.9108 40.2467 45.6808 40.3034 45.5208 40.4167C45.3608 40.5301 45.2808 40.6801 45.2808 40.8667C45.2808 41.0134 45.3342 41.1367 45.4408 41.2367C45.5475 41.3367 45.6775 41.4167 45.8308 41.4767C45.9842 41.5301 46.2108 41.6001 46.5108 41.6867C46.9108 41.7934 47.2375 41.9034 47.4908 42.0167C47.7508 42.1234 47.9742 42.2834 48.1608 42.4967C48.3475 42.7101 48.4442 42.9934 48.4508 43.3467C48.4508 43.6601 48.3642 43.9401 48.1908 44.1867C48.0175 44.4334 47.7708 44.6267 47.4508 44.7667C47.1375 44.9067 46.7675 44.9767 46.3408 44.9767Z" fill="#C4C4C4"/>
<path fill-rule="evenodd" clip-rule="evenodd" d="M35.8342 1.0665C35.7079 1.10537 35.5028 1.22677 35.3784 1.33622C35.2406 1.45752 35.1083 1.63779 35.0394 1.79786C34.9481 2.01005 34.931 2.12329 34.9499 2.38785C34.9628 2.56793 35.0087 2.78377 35.052 2.8675L35.1307 3.01967L34.0967 4.44536C33.5279 5.22948 32.2769 6.95445 31.3166 8.27865L29.5706 10.6863L29.3408 10.6593C29.1823 10.6408 29.0255 10.6627 28.8358 10.73C28.6845 10.7836 28.5269 10.8424 28.4857 10.8606C28.4377 10.8818 27.9243 10.5958 27.0601 10.0665C26.3173 9.61151 25.2226 8.94183 24.6274 8.57823L23.5453 7.9172L23.522 7.59142C23.5092 7.41219 23.4623 7.1953 23.4179 7.10942C23.3735 7.02353 23.2772 6.88192 23.2038 6.79474C23.1304 6.70755 22.9552 6.57774 22.8143 6.50636C22.6162 6.40587 22.4846 6.37661 22.2331 6.37696C22.0423 6.37726 21.8312 6.41123 21.7222 6.45915C21.6201 6.50411 21.4533 6.61391 21.3517 6.7032C21.25 6.79243 21.1143 6.97821 21.0501 7.11597C20.9743 7.27884 20.9326 7.46261 20.9311 7.64154L20.9286 7.91665L18.4804 9.40962L16.0321 10.9026L15.8163 10.7981C15.6976 10.7407 15.4981 10.6796 15.3729 10.6624C15.2226 10.6419 15.045 10.6602 14.8501 10.7164C14.6161 10.7838 14.5028 10.855 14.3037 11.0598C14.1504 11.2174 14.0286 11.3983 13.9911 11.524C13.9573 11.6372 13.9301 11.851 13.9307 11.9991C13.9314 12.1609 13.9725 12.3583 14.0337 12.4936C14.0897 12.6174 14.1962 12.7826 14.2702 12.8609C14.3442 12.9391 14.5167 13.0601 14.6533 13.1299C14.8361 13.2231 14.9831 13.2574 15.2092 13.2595C15.4468 13.2617 15.5801 13.2313 15.7974 13.1249C15.952 13.0493 16.1458 12.9057 16.2282 12.8058C16.3105 12.7059 16.4123 12.5233 16.4543 12.3999C16.4963 12.2766 16.5309 12.0727 16.5312 11.9469L16.5316 11.7182L18.2922 10.6428C19.2605 10.0513 20.3618 9.37896 20.7397 9.14871L21.4266 8.73009L21.6673 8.84814C21.8451 8.93533 21.9928 8.96614 22.2331 8.96614C22.4732 8.96614 22.621 8.93533 22.7984 8.84834L23.0385 8.73059L23.6013 9.07393C23.9108 9.26276 25.012 9.93499 26.0484 10.5678L27.9327 11.7182L27.9352 11.9933C27.9366 12.1481 27.9776 12.356 28.0288 12.4685C28.079 12.5786 28.1827 12.7429 28.2594 12.8336C28.336 12.9244 28.5132 13.0567 28.6531 13.1277C28.841 13.2228 28.9867 13.2571 29.2094 13.2583C29.4169 13.2595 29.5932 13.2243 29.7741 13.1456C29.9187 13.0826 30.1073 12.951 30.1933 12.8532C30.2793 12.7553 30.3912 12.5836 30.442 12.4718C30.4989 12.3464 30.5343 12.1534 30.5343 11.9683C30.5343 11.7804 30.4989 11.5901 30.4394 11.4591L30.3444 11.25L33.1148 7.4324L35.8853 3.61486L36.2272 3.60821C36.486 3.60321 36.6309 3.57034 36.8227 3.4731C36.9621 3.40247 37.1389 3.27042 37.2155 3.17963C37.2921 3.08889 37.3959 2.92458 37.446 2.81453C37.5016 2.69268 37.5375 2.49705 37.5378 2.31432C37.5383 2.10313 37.5036 1.93927 37.4207 1.76129C37.3557 1.62163 37.2057 1.4252 37.0857 1.32251C36.9662 1.22027 36.7566 1.10332 36.6197 1.06265C36.4828 1.02204 36.3017 0.990322 36.2173 0.992273C36.1329 0.994174 35.9605 1.02759 35.8342 1.0665ZM35.8387 6.90868C35.6874 6.9423 35.4564 7.02378 35.3254 7.08976C35.1944 7.15573 34.9888 7.30395 34.8686 7.4191C34.7484 7.53424 34.5923 7.72707 34.5217 7.84762C34.4511 7.96812 34.3584 8.20087 34.3157 8.36484C34.2469 8.62905 34.2381 9.70555 34.2381 17.8208C34.2381 25.9106 34.2471 27.0133 34.3152 27.2767C34.3577 27.4407 34.4646 27.6955 34.5528 27.8431C34.6411 27.9906 34.8026 28.1884 34.9118 28.2825C35.021 28.3766 35.226 28.5102 35.3673 28.5793C35.5086 28.6484 35.7732 28.7297 35.9552 28.7598C36.1989 28.8002 36.3612 28.7996 36.5704 28.7576C36.7267 28.7262 36.9746 28.6456 37.1213 28.5784C37.268 28.5113 37.499 28.3454 37.6346 28.2097C37.7703 28.074 37.9367 27.8532 38.0045 27.7189C38.0723 27.5846 38.1542 27.351 38.1866 27.1997C38.2308 26.9929 38.2416 24.627 38.2301 17.6707C38.2156 8.94178 38.2097 8.4041 38.1258 8.19177C38.0769 8.06796 37.9559 7.84832 37.8568 7.70361C37.7578 7.55895 37.5676 7.36052 37.4342 7.26258C37.3009 7.16469 37.073 7.04369 36.9279 6.99362C36.7828 6.9436 36.5403 6.89028 36.389 6.87512C36.2376 6.86001 35.99 6.87507 35.8387 6.90868ZM21.6471 12.3132C21.5312 12.351 21.3372 12.44 21.2161 12.511C21.095 12.5819 20.8819 12.7647 20.7427 12.9171C20.5991 13.0742 20.4391 13.3187 20.3733 13.4816L20.2573 13.7691L20.2417 20.3468C20.2302 25.2605 20.2412 26.9941 20.2853 27.1997C20.3177 27.351 20.3997 27.5846 20.4675 27.7189C20.5353 27.8532 20.7017 28.074 20.8373 28.2097C20.973 28.3454 21.2056 28.5121 21.3543 28.5801C21.5029 28.6482 21.7615 28.728 21.9288 28.7574C22.1468 28.7958 22.3212 28.7955 22.544 28.7563C22.715 28.7262 22.9742 28.6431 23.1201 28.5717C23.266 28.5004 23.4931 28.3369 23.6249 28.2085C23.7566 28.08 23.9248 27.8512 23.9987 27.6999C24.0725 27.5486 24.1562 27.2989 24.1845 27.145C24.2187 26.9596 24.2315 24.6562 24.2225 20.3172L24.2089 13.7691L24.0391 13.4069C23.9232 13.1595 23.7845 12.9644 23.6016 12.7914C23.4543 12.6521 23.2043 12.4785 23.0461 12.4057C22.8153 12.2995 22.6691 12.2704 22.3081 12.2589C22.0242 12.2498 21.7801 12.2699 21.6471 12.3132ZM14.8625 16.5477C14.7291 16.5701 14.4931 16.6505 14.3379 16.7264C14.1829 16.8022 13.9506 16.9697 13.8219 17.0984C13.6931 17.2272 13.5324 17.4424 13.4646 17.5766C13.3968 17.7109 13.3147 17.9446 13.2822 18.0959C13.2384 18.2993 13.227 19.5313 13.2386 22.8228L13.2543 27.2747L13.4141 27.6119C13.5082 27.8106 13.678 28.0532 13.8274 28.2027C13.9669 28.3422 14.2011 28.5113 14.3477 28.5784C14.4944 28.6456 14.7423 28.7262 14.8986 28.7576C15.1079 28.7996 15.2701 28.8002 15.5138 28.7598C15.6959 28.7297 15.9665 28.6454 16.1153 28.5726C16.264 28.4999 16.4949 28.3311 16.6283 28.1977C16.7618 28.0642 16.9292 27.8357 17.0003 27.6899C17.0714 27.5441 17.1524 27.3035 17.1803 27.1553C17.212 26.9866 17.231 25.3017 17.231 22.6478C17.231 20.0999 17.2115 18.307 17.1822 18.1521C17.1553 18.0105 17.0763 17.774 17.0066 17.6267C16.9369 17.4794 16.7684 17.2474 16.6321 17.1112C16.4959 16.9749 16.2654 16.8052 16.1199 16.7341C15.9745 16.6629 15.7219 16.5801 15.5586 16.5499C15.3954 16.5199 15.2266 16.4979 15.1834 16.5011C15.1404 16.5043 14.996 16.5253 14.8625 16.5477ZM28.8951 16.5497C28.7489 16.5748 28.5077 16.6529 28.3591 16.7232C28.2105 16.7935 27.9901 16.947 27.8695 17.0642C27.7489 17.1815 27.5914 17.3777 27.5196 17.5003C27.4477 17.6229 27.3537 17.8605 27.3107 18.0284C27.2422 18.2961 27.2343 18.8808 27.2464 22.7791L27.2602 27.2247L27.3764 27.5124C27.4402 27.6707 27.5782 27.9086 27.683 28.0411C27.7877 28.1736 27.984 28.3529 28.1192 28.4397C28.2543 28.5264 28.4652 28.6348 28.5879 28.6805C28.7304 28.7337 28.9642 28.764 29.236 28.7646C29.5555 28.7652 29.7295 28.7385 29.9363 28.6571C30.0876 28.5975 30.3195 28.4692 30.4516 28.3721C30.5837 28.2748 30.7773 28.0631 30.8817 27.9016C30.9861 27.7401 31.1031 27.4992 31.1416 27.3663C31.1995 27.1669 31.2118 26.3375 31.2118 22.6228C31.2118 18.4174 31.2059 18.1039 31.1218 17.863C31.0723 17.7212 30.9435 17.4818 30.8356 17.3311C30.7277 17.1804 30.5206 16.9783 30.3754 16.8821C30.2301 16.7859 30.0101 16.6733 29.8863 16.6319C29.7625 16.5905 29.5486 16.5447 29.4111 16.5303C29.2735 16.5159 29.0414 16.5246 28.8951 16.5497Z" fill="#C4C4C4"/>
</svg>
