<svg width="51" height="48" viewBox="0 0 51 48" fill="none" xmlns="http://www.w3.org/2000/svg">
<path d="M7.59723 43.4667H4.68723L4.18723 44.8867H2.99723L5.48723 37.9267H6.80723L9.29723 44.8867H8.09723L7.59723 43.4667ZM7.27723 42.5367L6.14723 39.3067L5.00723 42.5367H7.27723ZM13.1599 39.2867C13.5932 39.2867 13.9799 39.3767 14.3199 39.5567C14.6665 39.7367 14.9365 40.0034 15.1299 40.3567C15.3232 40.7101 15.4199 41.1367 15.4199 41.6367V44.8867H14.2899V41.8067C14.2899 41.3134 14.1665 40.9367 13.9199 40.6767C13.6732 40.4101 13.3365 40.2767 12.9099 40.2767C12.4832 40.2767 12.1432 40.4101 11.8899 40.6767C11.6432 40.9367 11.5199 41.3134 11.5199 41.8067V44.8867H10.3799V39.3767H11.5199V40.0067C11.7065 39.7801 11.9432 39.6034 12.2299 39.4767C12.5232 39.3501 12.8332 39.2867 13.1599 39.2867ZM16.494 42.1067C16.494 41.5534 16.6074 41.0634 16.834 40.6367C17.0674 40.2101 17.3807 39.8801 17.774 39.6467C18.174 39.4067 18.614 39.2867 19.094 39.2867C19.5274 39.2867 19.904 39.3734 20.224 39.5467C20.5507 39.7134 20.8107 39.9234 21.004 40.1767V39.3767H22.154V44.8867H21.004V44.0667C20.8107 44.3267 20.5474 44.5434 20.214 44.7167C19.8807 44.8901 19.5007 44.9767 19.074 44.9767C18.6007 44.9767 18.1674 44.8567 17.774 44.6167C17.3807 44.3701 17.0674 44.0301 16.834 43.5967C16.6074 43.1567 16.494 42.6601 16.494 42.1067ZM21.004 42.1267C21.004 41.7467 20.924 41.4167 20.764 41.1367C20.6107 40.8567 20.4074 40.6434 20.154 40.4967C19.9007 40.3501 19.6274 40.2767 19.334 40.2767C19.0407 40.2767 18.7674 40.3501 18.514 40.4967C18.2607 40.6367 18.054 40.8467 17.894 41.1267C17.7407 41.4001 17.664 41.7267 17.664 42.1067C17.664 42.4867 17.7407 42.8201 17.894 43.1067C18.054 43.3934 18.2607 43.6134 18.514 43.7667C18.774 43.9134 19.0474 43.9867 19.334 43.9867C19.6274 43.9867 19.9007 43.9134 20.154 43.7667C20.4074 43.6201 20.6107 43.4067 20.764 43.1267C20.924 42.8401 21.004 42.5067 21.004 42.1267ZM24.7914 37.4867V44.8867H23.6514V37.4867H24.7914ZM31.2481 39.3767L27.8681 47.4767H26.6881L27.8081 44.7967L25.6381 39.3767H26.9081L28.4581 43.5767L30.0681 39.3767H31.2481ZM33.4384 40.3067V43.3567C33.4384 43.5634 33.4851 43.7134 33.5784 43.8067C33.6784 43.8934 33.8451 43.9367 34.0784 43.9367H34.7784V44.8867H33.8784C33.3651 44.8867 32.9717 44.7667 32.6984 44.5267C32.4251 44.2867 32.2884 43.8967 32.2884 43.3567V40.3067H31.6384V39.3767H32.2884V38.0067H33.4384V39.3767H34.7784V40.3067H33.4384ZM36.4091 38.6467C36.2024 38.6467 36.0291 38.5767 35.8891 38.4367C35.7491 38.2967 35.6791 38.1234 35.6791 37.9167C35.6791 37.7101 35.7491 37.5367 35.8891 37.3967C36.0291 37.2567 36.2024 37.1867 36.4091 37.1867C36.6091 37.1867 36.7791 37.2567 36.9191 37.3967C37.0591 37.5367 37.1291 37.7101 37.1291 37.9167C37.1291 38.1234 37.0591 38.2967 36.9191 38.4367C36.7791 38.5767 36.6091 38.6467 36.4091 38.6467ZM36.9691 39.3767V44.8867H35.8291V39.3767H36.9691ZM38.0858 42.1267C38.0858 41.5601 38.1992 41.0634 38.4258 40.6367C38.6592 40.2034 38.9792 39.8701 39.3858 39.6367C39.7925 39.4034 40.2592 39.2867 40.7858 39.2867C41.4525 39.2867 42.0025 39.4467 42.4358 39.7667C42.8758 40.0801 43.1725 40.5301 43.3258 41.1167H42.0958C41.9958 40.8434 41.8358 40.6301 41.6158 40.4767C41.3958 40.3234 41.1192 40.2467 40.7858 40.2467C40.3192 40.2467 39.9458 40.4134 39.6658 40.7467C39.3925 41.0734 39.2558 41.5334 39.2558 42.1267C39.2558 42.7201 39.3925 43.1834 39.6658 43.5167C39.9458 43.8501 40.3192 44.0167 40.7858 44.0167C41.4458 44.0167 41.8825 43.7267 42.0958 43.1467H43.3258C43.1658 43.7067 42.8658 44.1534 42.4258 44.4867C41.9858 44.8134 41.4392 44.9767 40.7858 44.9767C40.2592 44.9767 39.7925 44.8601 39.3858 44.6267C38.9792 44.3867 38.6592 44.0534 38.4258 43.6267C38.1992 43.1934 38.0858 42.6934 38.0858 42.1267ZM46.4619 44.9767C46.0286 44.9767 45.6386 44.9001 45.2919 44.7467C44.9519 44.5867 44.6819 44.3734 44.4819 44.1067C44.2819 43.8334 44.1752 43.5301 44.1619 43.1967H45.3419C45.3619 43.4301 45.4719 43.6267 45.6719 43.7867C45.8786 43.9401 46.1352 44.0167 46.4419 44.0167C46.7619 44.0167 47.0086 43.9567 47.1819 43.8367C47.3619 43.7101 47.4519 43.5501 47.4519 43.3567C47.4519 43.1501 47.3519 42.9967 47.1519 42.8967C46.9586 42.7967 46.6486 42.6867 46.2219 42.5667C45.8086 42.4534 45.4719 42.3434 45.2119 42.2367C44.9519 42.1301 44.7252 41.9667 44.5319 41.7467C44.3452 41.5267 44.2519 41.2367 44.2519 40.8767C44.2519 40.5834 44.3386 40.3167 44.5119 40.0767C44.6852 39.8301 44.9319 39.6367 45.2519 39.4967C45.5786 39.3567 45.9519 39.2867 46.3719 39.2867C46.9986 39.2867 47.5019 39.4467 47.8819 39.7667C48.2686 40.0801 48.4752 40.5101 48.5019 41.0567H47.3619C47.3419 40.8101 47.2419 40.6134 47.0619 40.4667C46.8819 40.3201 46.6386 40.2467 46.3319 40.2467C46.0319 40.2467 45.8019 40.3034 45.6419 40.4167C45.4819 40.5301 45.4019 40.6801 45.4019 40.8667C45.4019 41.0134 45.4552 41.1367 45.5619 41.2367C45.6686 41.3367 45.7986 41.4167 45.9519 41.4767C46.1052 41.5301 46.3319 41.6001 46.6319 41.6867C47.0319 41.7934 47.3586 41.9034 47.6119 42.0167C47.8719 42.1234 48.0952 42.2834 48.2819 42.4967C48.4686 42.7101 48.5652 42.9934 48.5719 43.3467C48.5719 43.6601 48.4852 43.9401 48.3119 44.1867C48.1386 44.4334 47.8919 44.6267 47.5719 44.7667C47.2586 44.9067 46.8886 44.9767 46.4619 44.9767Z" fill="#2A8981"/>
<path fill-rule="evenodd" clip-rule="evenodd" d="M35.9553 1.0665C35.829 1.10537 35.6239 1.22677 35.4995 1.33622C35.3617 1.45752 35.2294 1.63779 35.1605 1.79786C35.0692 2.01005 35.052 2.12329 35.071 2.38785C35.0839 2.56793 35.1298 2.78377 35.1731 2.8675L35.2518 3.01967L34.2177 4.44536C33.649 5.22948 32.398 6.95445 31.4377 8.27865L29.6917 10.6863L29.4619 10.6593C29.3034 10.6408 29.1466 10.6627 28.9569 10.73C28.8056 10.7836 28.648 10.8424 28.6068 10.8606C28.5587 10.8818 28.0454 10.5958 27.1812 10.0665C26.4384 9.61151 25.3437 8.94183 24.7485 8.57823L23.6664 7.9172L23.6431 7.59142C23.6302 7.41219 23.5834 7.1953 23.539 7.10942C23.4946 7.02353 23.3982 6.88192 23.3249 6.79474C23.2515 6.70755 23.0763 6.57774 22.9354 6.50636C22.7373 6.40587 22.6057 6.37661 22.3542 6.37696C22.1634 6.37726 21.9522 6.41123 21.8433 6.45915C21.7412 6.50411 21.5744 6.61391 21.4727 6.7032C21.3711 6.79243 21.2354 6.97821 21.1712 7.11597C21.0954 7.27884 21.0537 7.46261 21.0522 7.64154L21.0497 7.91665L18.6015 9.40962L16.1532 10.9026L15.9374 10.7981C15.8187 10.7407 15.6192 10.6796 15.494 10.6624C15.3437 10.6419 15.1661 10.6602 14.9712 10.7164C14.7371 10.7838 14.6239 10.855 14.4248 11.0598C14.2715 11.2174 14.1497 11.3983 14.1122 11.524C14.0784 11.6372 14.0512 11.851 14.0518 11.9991C14.0525 12.1609 14.0936 12.3583 14.1548 12.4936C14.2108 12.6174 14.3173 12.7826 14.3913 12.8609C14.4653 12.9391 14.6378 13.0601 14.7744 13.1299C14.9572 13.2231 15.1042 13.2574 15.3302 13.2595C15.5679 13.2617 15.7011 13.2313 15.9185 13.1249C16.0731 13.0493 16.2669 12.9057 16.3493 12.8058C16.4316 12.7059 16.5333 12.5233 16.5754 12.3999C16.6174 12.2766 16.652 12.0727 16.6522 11.9469L16.6527 11.7182L18.4133 10.6428C19.3816 10.0513 20.4829 9.37896 20.8608 9.14871L21.5477 8.73009L21.7884 8.84814C21.9662 8.93533 22.1139 8.96614 22.3542 8.96614C22.5943 8.96614 22.7421 8.93533 22.9194 8.84834L23.1596 8.73059L23.7224 9.07393C24.0319 9.26276 25.1331 9.93499 26.1695 10.5678L28.0538 11.7182L28.0563 11.9933C28.0577 12.1481 28.0987 12.356 28.1499 12.4685C28.2001 12.5786 28.3038 12.7429 28.3805 12.8336C28.4571 12.9244 28.6343 13.0567 28.7742 13.1277C28.9621 13.2228 29.1078 13.2571 29.3305 13.2583C29.538 13.2595 29.7143 13.2243 29.8952 13.1456C30.0398 13.0826 30.2284 12.951 30.3144 12.8532C30.4004 12.7553 30.5123 12.5836 30.5631 12.4718C30.62 12.3464 30.6554 12.1534 30.6554 11.9683C30.6554 11.7804 30.62 11.5901 30.5605 11.4591L30.4655 11.25L33.2359 7.4324L36.0064 3.61486L36.3483 3.60821C36.6071 3.60321 36.752 3.57034 36.9438 3.4731C37.0832 3.40247 37.26 3.27042 37.3366 3.17963C37.4132 3.08889 37.517 2.92458 37.5671 2.81453C37.6227 2.69268 37.6586 2.49705 37.6589 2.31432C37.6594 2.10313 37.6247 1.93927 37.5418 1.76129C37.4768 1.62163 37.3268 1.4252 37.2068 1.32251C37.0873 1.22027 36.8777 1.10332 36.7407 1.06265C36.6039 1.02204 36.4228 0.990322 36.3384 0.992273C36.254 0.994174 36.0816 1.02759 35.9553 1.0665ZM35.9598 6.90868C35.8085 6.9423 35.5775 7.02378 35.4465 7.08976C35.3155 7.15573 35.1099 7.30395 34.9897 7.4191C34.8695 7.53424 34.7134 7.72707 34.6428 7.84762C34.5722 7.96812 34.4795 8.20087 34.4368 8.36484C34.368 8.62905 34.3592 9.70555 34.3592 17.8208C34.3592 25.9106 34.3682 27.0133 34.4363 27.2767C34.4788 27.4407 34.5856 27.6955 34.6739 27.8431C34.7622 27.9906 34.9237 28.1884 35.0329 28.2825C35.1421 28.3766 35.3471 28.5102 35.4884 28.5793C35.6297 28.6484 35.8943 28.7297 36.0763 28.7598C36.32 28.8002 36.4823 28.7996 36.6915 28.7576C36.8478 28.7262 37.0957 28.6456 37.2424 28.5784C37.3891 28.5113 37.6201 28.3454 37.7557 28.2097C37.8914 28.074 38.0578 27.8532 38.1256 27.7189C38.1933 27.5846 38.2753 27.351 38.3076 27.1997C38.3519 26.9929 38.3627 24.627 38.3512 17.6707C38.3367 8.94178 38.3308 8.4041 38.2469 8.19177C38.198 8.06796 38.077 7.84832 37.9779 7.70361C37.8789 7.55895 37.6887 7.36052 37.5553 7.26258C37.422 7.16469 37.1941 7.04369 37.049 6.99362C36.9039 6.9436 36.6614 6.89028 36.51 6.87512C36.3587 6.86001 36.1111 6.87507 35.9598 6.90868ZM21.7682 12.3132C21.6523 12.351 21.4583 12.44 21.3372 12.511C21.2161 12.5819 21.003 12.7647 20.8637 12.9171C20.7202 13.0742 20.5602 13.3187 20.4944 13.4816L20.3783 13.7691L20.3628 20.3468C20.3513 25.2605 20.3623 26.9941 20.4064 27.1997C20.4388 27.351 20.5208 27.5846 20.5886 27.7189C20.6564 27.8532 20.8228 28.074 20.9584 28.2097C21.0941 28.3454 21.3267 28.5121 21.4753 28.5801C21.624 28.6482 21.8826 28.728 22.0499 28.7574C22.2679 28.7958 22.4423 28.7955 22.665 28.7563C22.8361 28.7262 23.0953 28.6431 23.2412 28.5717C23.387 28.5004 23.6142 28.3369 23.7459 28.2085C23.8777 28.08 24.0459 27.8512 24.1197 27.6999C24.1936 27.5486 24.2773 27.2989 24.3056 27.145C24.3398 26.9596 24.3526 24.6562 24.3436 20.3172L24.33 13.7691L24.1602 13.4069C24.0443 13.1595 23.9056 12.9644 23.7227 12.7914C23.5754 12.6521 23.3254 12.4785 23.1672 12.4057C22.9364 12.2995 22.7901 12.2704 22.4292 12.2589C22.1453 12.2498 21.9012 12.2699 21.7682 12.3132ZM14.9836 16.5477C14.8502 16.5701 14.6141 16.6505 14.459 16.7264C14.304 16.8022 14.0717 16.9697 13.943 17.0984C13.8142 17.2272 13.6534 17.4424 13.5857 17.5766C13.5179 17.7109 13.4358 17.9446 13.4032 18.0959C13.3595 18.2993 13.3481 19.5313 13.3597 22.8228L13.3754 27.2747L13.5351 27.6119C13.6293 27.8106 13.7991 28.0532 13.9485 28.2027C14.088 28.3422 14.3222 28.5113 14.4688 28.5784C14.6155 28.6456 14.8634 28.7262 15.0197 28.7576C15.229 28.7996 15.3912 28.8002 15.6349 28.7598C15.8169 28.7297 16.0876 28.6454 16.2364 28.5726C16.3851 28.4999 16.616 28.3311 16.7494 28.1977C16.8829 28.0642 17.0503 27.8357 17.1214 27.6899C17.1925 27.5441 17.2735 27.3035 17.3014 27.1553C17.3331 26.9866 17.3521 25.3017 17.3521 22.6478C17.3521 20.0999 17.3326 18.307 17.3033 18.1521C17.2764 18.0105 17.1974 17.774 17.1277 17.6267C17.058 17.4794 16.8895 17.2474 16.7532 17.1112C16.617 16.9749 16.3865 16.8052 16.241 16.7341C16.0956 16.6629 15.843 16.5801 15.6797 16.5499C15.5165 16.5199 15.3477 16.4979 15.3045 16.5011C15.2615 16.5043 15.1171 16.5253 14.9836 16.5477ZM29.0162 16.5497C28.87 16.5748 28.6288 16.6529 28.4802 16.7232C28.3315 16.7935 28.1112 16.947 27.9906 17.0642C27.87 17.1815 27.7125 17.3777 27.6407 17.5003C27.5688 17.6229 27.4748 17.8605 27.4318 18.0284C27.3632 18.2961 27.3553 18.8808 27.3674 22.7791L27.3813 27.2247L27.4975 27.5124C27.5613 27.6707 27.6993 27.9086 27.8041 28.0411C27.9088 28.1736 28.1051 28.3529 28.2403 28.4397C28.3754 28.5264 28.5863 28.6348 28.709 28.6805C28.8515 28.7337 29.0853 28.764 29.3571 28.7646C29.6766 28.7652 29.8506 28.7385 30.0574 28.6571C30.2087 28.5975 30.4406 28.4692 30.5727 28.3721C30.7048 28.2748 30.8984 28.0631 31.0028 27.9016C31.1072 27.7401 31.2242 27.4992 31.2627 27.3663C31.3206 27.1669 31.3329 26.3375 31.3329 22.6228C31.3329 18.4174 31.3269 18.1039 31.2429 17.863C31.1934 17.7212 31.0646 17.4818 30.9567 17.3311C30.8487 17.1804 30.6417 16.9783 30.4965 16.8821C30.3512 16.7859 30.1311 16.6733 30.0073 16.6319C29.8835 16.5905 29.6697 16.5447 29.5322 16.5303C29.3946 16.5159 29.1624 16.5246 29.0162 16.5497Z" fill="#2A8981"/>
</svg>
