<svg width="18" height="17" viewBox="0 0 18 17" fill="none" xmlns="http://www.w3.org/2000/svg">
<g clip-path="url(#clip0_615_3960)">
<path d="M12.2746 4.32615L12.1359 12.236C12.1231 12.9657 11.8209 13.6604 11.2959 14.1673C10.7709 14.6742 10.066 14.9518 9.33636 14.939C8.60669 14.9262 7.91198 14.624 7.40508 14.099C6.89817 13.574 6.62059 12.8691 6.63339 12.1394L6.78423 3.54181C6.79223 3.08576 6.98107 2.65157 7.3092 2.33475C7.63733 2.01794 8.07788 1.84445 8.53392 1.85245C8.98997 1.86045 9.42416 2.04928 9.74098 2.37742C10.0578 2.70555 10.2313 3.14609 10.2233 3.60214L10.0966 10.8242C10.0934 11.0066 10.0178 11.1803 9.88659 11.307C9.75534 11.4337 9.57912 11.5031 9.3967 11.4999C9.21428 11.4967 9.0406 11.4212 8.91388 11.2899C8.78715 11.1587 8.71775 10.9824 8.72096 10.8L8.83559 4.26582L7.80388 4.24772L7.68924 10.7819C7.68124 11.238 7.85473 11.6785 8.17154 12.0066C8.48836 12.3348 8.92255 12.5236 9.3786 12.5316C9.83464 12.5396 10.2752 12.3661 10.6033 12.0493C10.9315 11.7325 11.1203 11.2983 11.1283 10.8423L11.255 3.62024C11.2678 2.89057 10.9902 2.18569 10.4833 1.66068C9.9764 1.13567 9.2817 0.833532 8.55202 0.82073C7.82235 0.807928 7.11747 1.08551 6.59246 1.59242C6.06745 2.09933 5.76531 2.79403 5.75251 3.5237L5.60167 12.1213C5.58407 13.1246 5.96575 14.0938 6.66274 14.8157C7.35974 15.5376 8.31496 15.9531 9.31826 15.9707C10.3216 15.9883 11.2908 15.6066 12.0127 14.9096C12.7345 14.2126 13.15 13.2574 13.1676 12.2541L13.3064 4.34425L12.2746 4.32615Z" fill="#3C4858"/>
</g>
<defs>
<clipPath id="clip0_615_3960">
<rect width="16.51" height="16.51" fill="white" transform="translate(0.998047) rotate(1.00512)"/>
</clipPath>
</defs>
</svg>
