<svg width="28" height="28" viewBox="0 0 28 28" fill="none" xmlns="http://www.w3.org/2000/svg">
<circle cx="14" cy="14" r="14" fill="#EDF8F7"/>
<path d="M19.384 13.6425L12.9223 20.1042C12.3262 20.7002 11.5177 21.0351 10.6747 21.0351C9.83173 21.0351 9.02326 20.7002 8.42717 20.1042C7.83109 19.5081 7.49621 18.6996 7.49621 17.8566C7.49621 17.0136 7.83109 16.2052 8.42717 15.6091L15.4508 8.58549C15.8233 8.21294 16.3286 8.00364 16.8555 8.00364C17.3823 8.00364 17.8876 8.21294 18.2602 8.58549C18.6327 8.95805 18.842 9.46334 18.842 9.99021C18.842 10.5171 18.6327 11.0224 18.2602 11.3949L12.3604 17.2947C12.2114 17.4438 12.0092 17.5275 11.7985 17.5275C11.5877 17.5275 11.3856 17.4438 11.2366 17.2947C11.0876 17.1457 11.0039 16.9436 11.0039 16.7328C11.0039 16.5221 11.0876 16.32 11.2366 16.171L16.5745 10.833L15.7317 9.99021L10.3938 15.3281C10.0212 15.7007 9.81192 16.206 9.81192 16.7328C9.81192 17.2597 10.0212 17.765 10.3938 18.1376C10.7663 18.5101 11.2716 18.7194 11.7985 18.7194C12.3254 18.7194 12.8307 18.5101 13.2032 18.1376L19.103 12.2378C19.6991 11.6417 20.034 10.8332 20.034 9.99021C20.034 9.14721 19.6991 8.33875 19.103 7.74266C18.5069 7.14658 17.6985 6.8117 16.8555 6.8117C16.0125 6.8117 15.204 7.14658 14.6079 7.74266L7.58434 14.7662C6.76473 15.5859 6.30427 16.6975 6.30427 17.8566C6.30427 19.0157 6.76473 20.1274 7.58434 20.947C8.40396 21.7666 9.5156 22.2271 10.6747 22.2271C11.8338 22.2271 12.9455 21.7666 13.7651 20.947L20.2268 14.4853L19.384 13.6425Z" fill="#3C4858"/>
</svg>
