<svg width="41" height="40" viewBox="0 0 31 30" fill="none" xmlns="http://www.w3.org/2000/svg">
<rect x="0.875" width="30" height="30" rx="15" fill="white"/>
<rect x="1.375" y="0.5" width="29" height="29" rx="14.5" stroke="#3C4758" stroke-opacity="0.28"/>
<path d="M22.875 18.75L19.5417 22L17.2083 19.725L18.2083 18.75L19.5417 20.05L21.875 17.775L22.875 18.75ZM11.2083 9C10.475 9 9.875 9.585 9.875 10.3V20.7C9.875 21.415 10.475 22 11.2083 22H16.4083C16.1417 21.61 16.0083 21.155 15.9417 20.7H11.2083V10.3H15.875V13.55H19.2083V16.215C19.4083 16.15 19.675 16.15 19.875 16.15C20.075 16.15 20.3417 16.15 20.5417 16.215V12.9L16.5417 9H11.2083ZM14.5417 14.85V20.05H15.875V14.85H14.5417ZM11.875 16.15V20.05H13.2083V16.15H11.875Z" fill="#2A8981"/>
</svg>
