<svg width="81" height="46" viewBox="0 0 81 46" fill="none" xmlns="http://www.w3.org/2000/svg">
<path d="M1.83582 40.3967C1.83582 39.7167 1.99249 39.1067 2.30582 38.5667C2.62582 38.0267 3.05582 37.6067 3.59582 37.3067C4.14249 37.0001 4.73915 36.8467 5.38582 36.8467C6.12582 36.8467 6.78249 37.0301 7.35582 37.3967C7.93582 37.7567 8.35582 38.2701 8.61582 38.9367H7.24582C7.06582 38.5701 6.81582 38.2967 6.49582 38.1167C6.17582 37.9367 5.80582 37.8467 5.38582 37.8467C4.92582 37.8467 4.51582 37.9501 4.15582 38.1567C3.79582 38.3634 3.51249 38.6601 3.30582 39.0467C3.10582 39.4334 3.00582 39.8834 3.00582 40.3967C3.00582 40.9101 3.10582 41.3601 3.30582 41.7467C3.51249 42.1334 3.79582 42.4334 4.15582 42.6467C4.51582 42.8534 4.92582 42.9567 5.38582 42.9567C5.80582 42.9567 6.17582 42.8667 6.49582 42.6867C6.81582 42.5067 7.06582 42.2334 7.24582 41.8667H8.61582C8.35582 42.5334 7.93582 43.0467 7.35582 43.4067C6.78249 43.7667 6.12582 43.9467 5.38582 43.9467C4.73249 43.9467 4.13582 43.7967 3.59582 43.4967C3.05582 43.1901 2.62582 42.7667 2.30582 42.2267C1.99249 41.6867 1.83582 41.0767 1.83582 40.3967ZM15.0002 40.9967C15.0002 41.2034 14.9869 41.3901 14.9602 41.5567H10.7502C10.7835 41.9967 10.9469 42.3501 11.2402 42.6167C11.5335 42.8834 11.8935 43.0167 12.3202 43.0167C12.9335 43.0167 13.3669 42.7601 13.6202 42.2467H14.8502C14.6835 42.7534 14.3802 43.1701 13.9402 43.4967C13.5069 43.8167 12.9669 43.9767 12.3202 43.9767C11.7935 43.9767 11.3202 43.8601 10.9002 43.6267C10.4869 43.3867 10.1602 43.0534 9.9202 42.6267C9.68686 42.1934 9.5702 41.6934 9.5702 41.1267C9.5702 40.5601 9.68353 40.0634 9.9102 39.6367C10.1435 39.2034 10.4669 38.8701 10.8802 38.6367C11.3002 38.4034 11.7802 38.2867 12.3202 38.2867C12.8402 38.2867 13.3035 38.4001 13.7102 38.6267C14.1169 38.8534 14.4335 39.1734 14.6602 39.5867C14.8869 39.9934 15.0002 40.4634 15.0002 40.9967ZM13.8102 40.6367C13.8035 40.2167 13.6535 39.8801 13.3602 39.6267C13.0669 39.3734 12.7035 39.2467 12.2702 39.2467C11.8769 39.2467 11.5402 39.3734 11.2602 39.6267C10.9802 39.8734 10.8135 40.2101 10.7602 40.6367H13.8102ZM17.2621 36.4867V43.8867H16.1221V36.4867H17.2621ZM23.8088 40.9967C23.8088 41.2034 23.7955 41.3901 23.7688 41.5567H19.5588C19.5921 41.9967 19.7555 42.3501 20.0488 42.6167C20.3421 42.8834 20.7021 43.0167 21.1288 43.0167C21.7421 43.0167 22.1755 42.7601 22.4288 42.2467H23.6588C23.4921 42.7534 23.1888 43.1701 22.7488 43.4967C22.3155 43.8167 21.7755 43.9767 21.1288 43.9767C20.6021 43.9767 20.1288 43.8601 19.7088 43.6267C19.2955 43.3867 18.9688 43.0534 18.7288 42.6267C18.4955 42.1934 18.3788 41.6934 18.3788 41.1267C18.3788 40.5601 18.4921 40.0634 18.7188 39.6367C18.9521 39.2034 19.2755 38.8701 19.6888 38.6367C20.1088 38.4034 20.5888 38.2867 21.1288 38.2867C21.6488 38.2867 22.1121 38.4001 22.5188 38.6267C22.9255 38.8534 23.2421 39.1734 23.4688 39.5867C23.6955 39.9934 23.8088 40.4634 23.8088 40.9967ZM22.6188 40.6367C22.6121 40.2167 22.4621 39.8801 22.1688 39.6267C21.8755 39.3734 21.5121 39.2467 21.0788 39.2467C20.6855 39.2467 20.3488 39.3734 20.0688 39.6267C19.7888 39.8734 19.6221 40.2101 19.5688 40.6367H22.6188ZM26.0707 39.1967C26.264 38.9301 26.5273 38.7134 26.8607 38.5467C27.2007 38.3734 27.5773 38.2867 27.9907 38.2867C28.4773 38.2867 28.9173 38.4034 29.3107 38.6367C29.704 38.8701 30.014 39.2034 30.2407 39.6367C30.4673 40.0634 30.5807 40.5534 30.5807 41.1067C30.5807 41.6601 30.4673 42.1567 30.2407 42.5967C30.014 43.0301 29.7007 43.3701 29.3007 43.6167C28.9073 43.8567 28.4707 43.9767 27.9907 43.9767C27.564 43.9767 27.184 43.8934 26.8507 43.7267C26.524 43.5601 26.264 43.3467 26.0707 43.0867V43.8867H24.9307V36.4867H26.0707V39.1967ZM29.4207 41.1067C29.4207 40.7267 29.3407 40.4001 29.1807 40.1267C29.0273 39.8467 28.8207 39.6367 28.5607 39.4967C28.3073 39.3501 28.034 39.2767 27.7407 39.2767C27.454 39.2767 27.1807 39.3501 26.9207 39.4967C26.6673 39.6434 26.4607 39.8567 26.3007 40.1367C26.1473 40.4167 26.0707 40.7467 26.0707 41.1267C26.0707 41.5067 26.1473 41.8401 26.3007 42.1267C26.4607 42.4067 26.6673 42.6201 26.9207 42.7667C27.1807 42.9134 27.454 42.9867 27.7407 42.9867C28.034 42.9867 28.3073 42.9134 28.5607 42.7667C28.8207 42.6134 29.0273 42.3934 29.1807 42.1067C29.3407 41.8201 29.4207 41.4867 29.4207 41.1067ZM32.848 39.1767C33.0147 38.8967 33.2347 38.6801 33.508 38.5267C33.788 38.3667 34.118 38.2867 34.498 38.2867V39.4667H34.208C33.7613 39.4667 33.4213 39.5801 33.188 39.8067C32.9613 40.0334 32.848 40.4267 32.848 40.9867V43.8867H31.708V38.3767H32.848V39.1767ZM35.1659 41.1067C35.1659 40.5534 35.2792 40.0634 35.5059 39.6367C35.7392 39.2101 36.0526 38.8801 36.4459 38.6467C36.8459 38.4067 37.2859 38.2867 37.7659 38.2867C38.1992 38.2867 38.5759 38.3734 38.8959 38.5467C39.2226 38.7134 39.4826 38.9234 39.6759 39.1767V38.3767H40.8259V43.8867H39.6759V43.0667C39.4826 43.3267 39.2192 43.5434 38.8859 43.7167C38.5526 43.8901 38.1726 43.9767 37.7459 43.9767C37.2726 43.9767 36.8392 43.8567 36.4459 43.6167C36.0526 43.3701 35.7392 43.0301 35.5059 42.5967C35.2792 42.1567 35.1659 41.6601 35.1659 41.1067ZM39.6759 41.1267C39.6759 40.7467 39.5959 40.4167 39.4359 40.1367C39.2826 39.8567 39.0792 39.6434 38.8259 39.4967C38.5726 39.3501 38.2992 39.2767 38.0059 39.2767C37.7126 39.2767 37.4392 39.3501 37.1859 39.4967C36.9326 39.6367 36.7259 39.8467 36.5659 40.1267C36.4126 40.4001 36.3359 40.7267 36.3359 41.1067C36.3359 41.4867 36.4126 41.8201 36.5659 42.1067C36.7259 42.3934 36.9326 42.6134 37.1859 42.7667C37.4459 42.9134 37.7192 42.9867 38.0059 42.9867C38.2992 42.9867 38.5726 42.9134 38.8259 42.7667C39.0792 42.6201 39.2826 42.4067 39.4359 42.1267C39.5959 41.8401 39.6759 41.5067 39.6759 41.1267ZM43.6532 39.3067V42.3567C43.6532 42.5634 43.6999 42.7134 43.7932 42.8067C43.8932 42.8934 44.0599 42.9367 44.2932 42.9367H44.9932V43.8867H44.0932C43.5799 43.8867 43.1866 43.7667 42.9132 43.5267C42.6399 43.2867 42.5032 42.8967 42.5032 42.3567V39.3067H41.8532V38.3767H42.5032V37.0067H43.6532V38.3767H44.9932V39.3067H43.6532ZM46.6239 37.6467C46.4173 37.6467 46.2439 37.5767 46.1039 37.4367C45.9639 37.2967 45.8939 37.1234 45.8939 36.9167C45.8939 36.7101 45.9639 36.5367 46.1039 36.3967C46.2439 36.2567 46.4173 36.1867 46.6239 36.1867C46.8239 36.1867 46.9939 36.2567 47.1339 36.3967C47.2739 36.5367 47.3439 36.7101 47.3439 36.9167C47.3439 37.1234 47.2739 37.2967 47.1339 37.4367C46.9939 37.5767 46.8239 37.6467 46.6239 37.6467ZM47.1839 38.3767V43.8867H46.0439V38.3767H47.1839ZM51.0707 43.9767C50.5507 43.9767 50.0807 43.8601 49.6607 43.6267C49.2407 43.3867 48.9107 43.0534 48.6707 42.6267C48.4307 42.1934 48.3107 41.6934 48.3107 41.1267C48.3107 40.5667 48.434 40.0701 48.6807 39.6367C48.9273 39.2034 49.264 38.8701 49.6907 38.6367C50.1173 38.4034 50.594 38.2867 51.1207 38.2867C51.6473 38.2867 52.124 38.4034 52.5507 38.6367C52.9773 38.8701 53.314 39.2034 53.5607 39.6367C53.8073 40.0701 53.9307 40.5667 53.9307 41.1267C53.9307 41.6867 53.804 42.1834 53.5507 42.6167C53.2973 43.0501 52.9507 43.3867 52.5107 43.6267C52.0773 43.8601 51.5973 43.9767 51.0707 43.9767ZM51.0707 42.9867C51.364 42.9867 51.6373 42.9167 51.8907 42.7767C52.1507 42.6367 52.3607 42.4267 52.5207 42.1467C52.6807 41.8667 52.7607 41.5267 52.7607 41.1267C52.7607 40.7267 52.684 40.3901 52.5307 40.1167C52.3773 39.8367 52.174 39.6267 51.9207 39.4867C51.6673 39.3467 51.394 39.2767 51.1007 39.2767C50.8073 39.2767 50.534 39.3467 50.2807 39.4867C50.034 39.6267 49.8373 39.8367 49.6907 40.1167C49.544 40.3901 49.4707 40.7267 49.4707 41.1267C49.4707 41.7201 49.6207 42.1801 49.9207 42.5067C50.2273 42.8267 50.6107 42.9867 51.0707 42.9867ZM57.8376 38.2867C58.271 38.2867 58.6576 38.3767 58.9976 38.5567C59.3443 38.7367 59.6143 39.0034 59.8076 39.3567C60.001 39.7101 60.0976 40.1367 60.0976 40.6367V43.8867H58.9676V40.8067C58.9676 40.3134 58.8443 39.9367 58.5976 39.6767C58.351 39.4101 58.0143 39.2767 57.5876 39.2767C57.161 39.2767 56.821 39.4101 56.5676 39.6767C56.321 39.9367 56.1976 40.3134 56.1976 40.8067V43.8867H55.0576V38.3767H56.1976V39.0067C56.3843 38.7801 56.621 38.6034 56.9076 38.4767C57.201 38.3501 57.511 38.2867 57.8376 38.2867ZM65.2894 42.9667H67.6394V43.8867H64.1494V36.9367H65.2894V42.9667ZM69.1728 37.6467C68.9661 37.6467 68.7928 37.5767 68.6528 37.4367C68.5128 37.2967 68.4428 37.1234 68.4428 36.9167C68.4428 36.7101 68.5128 36.5367 68.6528 36.3967C68.7928 36.2567 68.9661 36.1867 69.1728 36.1867C69.3728 36.1867 69.5428 36.2567 69.6828 36.3967C69.8228 36.5367 69.8928 36.7101 69.8928 36.9167C69.8928 37.1234 69.8228 37.2967 69.6828 37.4367C69.5428 37.5767 69.3728 37.6467 69.1728 37.6467ZM69.7328 38.3767V43.8867H68.5928V38.3767H69.7328ZM73.2295 43.9767C72.7962 43.9767 72.4062 43.9001 72.0595 43.7467C71.7195 43.5867 71.4495 43.3734 71.2495 43.1067C71.0495 42.8334 70.9428 42.5301 70.9295 42.1967H72.1095C72.1295 42.4301 72.2395 42.6267 72.4395 42.7867C72.6462 42.9401 72.9028 43.0167 73.2095 43.0167C73.5295 43.0167 73.7762 42.9567 73.9495 42.8367C74.1295 42.7101 74.2195 42.5501 74.2195 42.3567C74.2195 42.1501 74.1195 41.9967 73.9195 41.8967C73.7262 41.7967 73.4162 41.6867 72.9895 41.5667C72.5762 41.4534 72.2395 41.3434 71.9795 41.2367C71.7195 41.1301 71.4928 40.9667 71.2995 40.7467C71.1128 40.5267 71.0195 40.2367 71.0195 39.8767C71.0195 39.5834 71.1062 39.3167 71.2795 39.0767C71.4528 38.8301 71.6995 38.6367 72.0195 38.4967C72.3462 38.3567 72.7195 38.2867 73.1395 38.2867C73.7662 38.2867 74.2695 38.4467 74.6495 38.7667C75.0362 39.0801 75.2428 39.5101 75.2695 40.0567H74.1295C74.1095 39.8101 74.0095 39.6134 73.8295 39.4667C73.6495 39.3201 73.4062 39.2467 73.0995 39.2467C72.7995 39.2467 72.5695 39.3034 72.4095 39.4167C72.2495 39.5301 72.1695 39.6801 72.1695 39.8667C72.1695 40.0134 72.2228 40.1367 72.3295 40.2367C72.4362 40.3367 72.5662 40.4167 72.7195 40.4767C72.8728 40.5301 73.0995 40.6001 73.3995 40.6867C73.7995 40.7934 74.1262 40.9034 74.3795 41.0167C74.6395 41.1234 74.8628 41.2834 75.0495 41.4967C75.2362 41.7101 75.3328 41.9934 75.3395 42.3467C75.3395 42.6601 75.2528 42.9401 75.0795 43.1867C74.9062 43.4334 74.6595 43.6267 74.3395 43.7667C74.0262 43.9067 73.6562 43.9767 73.2295 43.9767ZM77.9013 39.3067V42.3567C77.9013 42.5634 77.948 42.7134 78.0413 42.8067C78.1413 42.8934 78.308 42.9367 78.5413 42.9367H79.2413V43.8867H78.3413C77.828 43.8867 77.4346 43.7667 77.1613 43.5267C76.888 43.2867 76.7513 42.8967 76.7513 42.3567V39.3067H76.1013V38.3767H76.7513V37.0067H77.9013V38.3767H79.2413V39.3067H77.9013Z" fill="#C4C4C4"/>
<path fill-rule="evenodd" clip-rule="evenodd" d="M34.6945 0.600801C34.7211 0.729428 34.7382 0.978403 34.7399 1.26229C34.7421 1.64086 34.7338 1.74038 34.6902 1.85338C34.6474 1.9642 34.6055 2.01092 34.4626 2.10691C34.3662 2.17164 34.1849 2.30433 34.0598 2.40175C33.9346 2.49919 33.7282 2.68595 33.6012 2.81679C33.4742 2.94764 33.3169 3.13738 33.2517 3.23844C33.1865 3.33952 33.1065 3.50992 33.0739 3.61715C33.0305 3.7602 33.0189 3.8552 33.0305 3.97398C33.0392 4.063 33.06 4.24466 33.0767 4.37767C33.0934 4.51068 33.1338 4.70913 33.1664 4.81866C33.199 4.9282 33.2724 5.10744 33.3294 5.21698C33.3974 5.34742 33.5069 5.48974 33.6469 5.62952C33.7644 5.74688 33.9341 5.88597 34.0239 5.93864C34.1137 5.9913 34.2929 6.06994 34.4222 6.11338C34.5514 6.15683 34.6972 6.1995 34.7461 6.20824L34.835 6.22414L34.6988 5.99756C34.6239 5.87291 34.524 5.67819 34.4768 5.56482C34.4296 5.45144 34.3759 5.27186 34.3574 5.16571C34.3388 5.05885 34.3322 4.90521 34.3427 4.82139C34.3531 4.73815 34.3974 4.59464 34.4412 4.50251C34.4891 4.40191 34.5797 4.2802 34.6682 4.19786C34.7492 4.12244 34.8865 4.02824 34.9732 3.98855C35.1284 3.91748 35.1329 3.91711 35.2573 3.96462C35.3301 3.99239 35.4148 4.0537 35.4571 4.10907C35.4974 4.16196 35.5559 4.28563 35.587 4.3839C35.6241 4.50103 35.649 4.68102 35.6594 4.90623C35.668 5.09603 35.6601 5.39309 35.6416 5.56971C35.6232 5.74565 35.6003 5.92862 35.5908 5.97636L35.5734 6.06314L35.8693 5.91152C36.1054 5.79052 36.2083 5.71655 36.3791 5.54533C36.5193 5.40472 36.6287 5.26213 36.6964 5.13162C36.7532 5.02209 36.826 4.84632 36.8583 4.74105C36.8905 4.63578 36.9295 4.42453 36.945 4.27161C36.9628 4.09643 36.9635 3.91728 36.9469 3.78731C36.9325 3.67388 36.9003 3.50272 36.8755 3.40695C36.8507 3.31121 36.7811 3.11837 36.7207 2.97842C36.6604 2.8385 36.5378 2.60136 36.4484 2.45148C36.359 2.3016 36.1734 2.03032 36.0361 1.84866C35.8987 1.66697 35.6402 1.35831 35.4615 1.16271C35.2829 0.967108 35.0335 0.714264 34.9074 0.600801C34.7813 0.487338 34.6722 0.394531 34.665 0.394531C34.6577 0.394531 34.671 0.487338 34.6945 0.600801ZM40.0111 0.600801C40.0315 0.714264 40.0565 0.954646 40.0667 1.13503C40.0784 1.34312 40.073 1.5332 40.0517 1.65505C40.0334 1.76069 40.0032 1.88021 39.9848 1.92064C39.9664 1.9611 39.8612 2.05522 39.751 2.12981C39.6409 2.20441 39.474 2.32502 39.3801 2.39779C39.2862 2.4706 39.1085 2.62893 38.9853 2.7497C38.862 2.87045 38.7052 3.04767 38.6368 3.14352C38.5684 3.23935 38.4795 3.38977 38.4392 3.47777C38.399 3.56577 38.3586 3.70927 38.3496 3.79667C38.3406 3.88407 38.3486 4.06656 38.3673 4.20219C38.3861 4.33781 38.4262 4.55762 38.4564 4.69063C38.4865 4.82364 38.5645 5.04129 38.6296 5.1743C38.7236 5.36617 38.7957 5.46325 38.9787 5.6442C39.1544 5.81795 39.267 5.90108 39.4512 5.99318C39.5842 6.05969 39.7891 6.13819 39.9064 6.16761C40.0238 6.19703 40.1244 6.2168 40.13 6.21151C40.1356 6.20619 40.0954 6.12749 40.0407 6.03662C39.986 5.94572 39.9005 5.78998 39.8508 5.69051C39.801 5.59102 39.7356 5.41295 39.7053 5.29476C39.6751 5.17655 39.6504 5.01921 39.6504 4.94513C39.6504 4.87104 39.6764 4.72611 39.7082 4.62309C39.7533 4.47728 39.8007 4.39841 39.922 4.26737C40.0179 4.16375 40.1473 4.06297 40.2585 4.00536L40.4391 3.9117L40.5716 3.96229C40.6469 3.99105 40.7335 4.05168 40.7723 4.10281C40.8098 4.15228 40.8681 4.27499 40.9018 4.37554C40.9448 4.50397 40.9678 4.66053 40.979 4.90188C40.9878 5.09082 40.9803 5.37855 40.9625 5.54126C40.9446 5.70394 40.9219 5.88796 40.9119 5.95019L40.8938 6.06331L41.147 5.93218C41.2862 5.86008 41.4733 5.74338 41.5628 5.67287C41.6523 5.6024 41.7791 5.47736 41.8445 5.39508C41.9099 5.31277 42.006 5.15581 42.058 5.04627C42.11 4.93673 42.1753 4.76389 42.2031 4.66218C42.242 4.51998 42.2534 4.37204 42.2527 4.02203C42.2519 3.58651 42.2479 3.55504 42.1606 3.29466C42.1104 3.14495 42.0078 2.90169 41.9326 2.75409C41.8574 2.60645 41.7206 2.37159 41.6287 2.23215C41.5368 2.09271 41.3636 1.85586 41.2438 1.70581C41.1241 1.55576 40.8976 1.29216 40.7406 1.12003C40.5836 0.947903 40.352 0.714264 40.226 0.600801C40.1 0.487338 39.9918 0.394531 39.9855 0.394531C39.9792 0.394531 39.9907 0.487338 40.0111 0.600801ZM45.2552 0.419312C45.2552 0.436041 45.2758 0.587742 45.3009 0.756428C45.3321 0.965372 45.3423 1.17195 45.3331 1.40454C45.3253 1.59997 45.3016 1.7946 45.2776 1.85976C45.244 1.95114 45.1883 2.00722 44.9948 2.14427C44.8623 2.23816 44.6696 2.38217 44.5667 2.46428C44.4638 2.54639 44.2769 2.72208 44.1513 2.85469C44.0258 2.9873 43.8783 3.16976 43.8235 3.26017C43.7687 3.35059 43.6961 3.50716 43.6622 3.60813C43.6173 3.74202 43.6043 3.8344 43.6142 3.94954C43.6217 4.03634 43.6407 4.20981 43.6565 4.33499C43.6723 4.46018 43.7063 4.64582 43.7321 4.74753C43.7579 4.84925 43.8323 5.04129 43.8973 5.1743C43.989 5.36176 44.0639 5.4641 44.2307 5.62952C44.349 5.74688 44.519 5.88597 44.6084 5.93864C44.6978 5.9913 44.8767 6.06994 45.006 6.11338C45.1352 6.15683 45.2841 6.20013 45.3367 6.2096L45.4324 6.22684L45.3804 6.14869C45.3518 6.10567 45.2732 5.97448 45.2057 5.85712C45.1383 5.73976 45.0496 5.54132 45.0086 5.41613C44.953 5.24622 44.9337 5.12656 44.9321 4.94402C44.9303 4.72355 44.9391 4.68113 45.0224 4.51202C45.0809 4.39318 45.1671 4.27738 45.2577 4.19587C45.3364 4.12514 45.4707 4.03307 45.5562 3.99125C45.7111 3.91546 45.7121 3.91537 45.8412 3.96465C45.928 3.99779 45.9983 4.05216 46.0542 4.12944C46.1002 4.19285 46.1579 4.30984 46.1826 4.38945C46.209 4.47458 46.2337 4.69225 46.2428 4.91824C46.2512 5.12949 46.2441 5.43036 46.2269 5.58684C46.2098 5.74332 46.1871 5.91451 46.1764 5.96723L46.1572 6.06314L46.4415 5.9171C46.6096 5.83075 46.7976 5.70605 46.9017 5.6119C46.9984 5.52436 47.1164 5.39627 47.1638 5.32731C47.2113 5.25834 47.2879 5.12573 47.3341 5.03261C47.3803 4.93952 47.4426 4.75726 47.4726 4.62761C47.5025 4.49796 47.5354 4.30199 47.5456 4.19209C47.5559 4.08218 47.5496 3.88373 47.5316 3.75109C47.5138 3.61846 47.462 3.39859 47.4167 3.26251C47.3714 3.12642 47.2776 2.90237 47.2083 2.76461C47.139 2.62685 46.9934 2.3797 46.8848 2.2154C46.7762 2.05109 46.572 1.77583 46.4311 1.6037C46.2902 1.43157 46.044 1.15366 45.884 0.986113C45.7239 0.818593 45.517 0.615681 45.4241 0.535193C45.3312 0.454734 45.2552 0.402583 45.2552 0.419312ZM33.8862 6.75048L33.7895 6.84722V8.41487V9.98252H33.6518C33.576 9.98252 33.4128 10.008 33.289 10.0392C33.1652 10.0705 32.9555 10.1493 32.8229 10.2145C32.6281 10.3102 32.5323 10.3825 32.323 10.5916C32.1229 10.7916 32.037 10.9033 31.9444 11.0839C31.8785 11.2125 31.7994 11.4162 31.7685 11.5366C31.7166 11.7399 31.7125 11.8562 31.7125 13.1594V14.5631L31.4209 14.5635C31.2475 14.5637 31.0239 14.5856 30.8694 14.6175C30.719 14.6486 30.5032 14.7209 30.3573 14.7893C30.2186 14.8543 30.0123 14.9786 29.8987 15.0656C29.7851 15.1526 29.6279 15.3007 29.5494 15.3947C29.4708 15.4887 29.3563 15.6505 29.295 15.7543C29.2336 15.8581 29.1411 16.0646 29.0894 16.2133L28.9955 16.4836L28.9879 21.2822L28.9803 26.0808L28.3904 26.0904L27.8005 26.1L27.6099 26.1903C27.505 26.24 27.3632 26.3367 27.2946 26.4053C27.2261 26.4738 27.1326 26.606 27.087 26.699C27.0112 26.8533 27.0039 26.8944 27.0039 27.1669C27.0039 27.4394 27.0112 27.4805 27.087 27.6348C27.1326 27.7279 27.2261 27.86 27.2946 27.9286C27.3632 27.9971 27.505 28.0939 27.6099 28.1435L27.8005 28.2338H40.5039H53.2073L53.3986 28.1432C53.5086 28.0911 53.6439 27.997 53.717 27.9218C53.7869 27.8499 53.8801 27.7178 53.924 27.6283C53.9962 27.4814 54.0039 27.4367 54.0039 27.1669C54.0039 26.8944 53.9966 26.8533 53.9209 26.699C53.8752 26.606 53.7817 26.4738 53.7132 26.4053C53.6446 26.3367 53.5028 26.24 53.3979 26.1903C53.2081 26.1004 53.2049 26.1 52.6746 26.0903L52.142 26.0805L52.1337 21.3389L52.1255 16.5974L52.0615 16.3698C52.0263 16.2446 51.9483 16.0397 51.8881 15.9146C51.8279 15.7894 51.7188 15.6079 51.6457 15.5112C51.5726 15.4146 51.4426 15.2714 51.3569 15.193C51.2711 15.1146 51.1044 14.9903 50.9863 14.9167C50.8682 14.8431 50.6666 14.7469 50.5384 14.7029C50.4102 14.6589 50.2221 14.6095 50.1203 14.5932C50.0186 14.5769 49.8115 14.5635 49.6599 14.5634L49.3844 14.5631L49.3731 13.1477C49.3633 11.9271 49.3551 11.7068 49.3131 11.5478C49.2863 11.4463 49.2208 11.2727 49.1675 11.1619C49.1143 11.0512 49.0124 10.8846 48.9412 10.7916C48.87 10.6987 48.7323 10.5555 48.6352 10.4735C48.5382 10.3914 48.3605 10.2732 48.2404 10.2108C48.1204 10.1483 47.9149 10.0715 47.7838 10.04C47.6012 9.99626 47.4475 9.98286 47.1259 9.98272L46.7062 9.98252V8.45948C46.7062 7.22129 46.6988 6.91869 46.6666 6.8415C46.6447 6.78926 46.5971 6.72568 46.5606 6.70015C46.5026 6.6595 46.3764 6.65375 45.5405 6.65386C44.6424 6.65395 44.5812 6.65722 44.4949 6.70989C44.4445 6.74064 44.3933 6.80138 44.3811 6.84491C44.369 6.88844 44.359 7.61221 44.359 8.45328V9.98252H42.9009H41.4428L41.4426 8.48173C41.4425 7.5161 41.4318 6.94236 41.4124 6.87277C41.3923 6.80007 41.3526 6.74644 41.2917 6.70929C41.2067 6.65745 41.1419 6.65395 40.2621 6.65395C39.3822 6.65395 39.3175 6.65745 39.2325 6.70929C39.1715 6.74644 39.1319 6.80007 39.1117 6.87277C39.0924 6.94236 39.0816 7.5161 39.0815 8.48173L39.0814 9.98252H37.6019H36.1225V8.41487V6.84722L36.0257 6.75048L35.929 6.65375H34.956H33.9829L33.8862 6.75048ZM47.4527 11.471C47.5425 11.5151 47.6759 11.6111 47.7491 11.6843C47.8224 11.7575 47.9217 11.9007 47.97 12.0025C48.0558 12.1836 48.0578 12.1978 48.0676 12.6854C48.0731 12.9592 48.0685 13.4937 48.0573 13.8732L48.037 14.5631H40.5149H32.9928V13.4102C32.9928 12.3417 32.9969 12.2457 33.0481 12.1C33.0785 12.0136 33.1465 11.8827 33.1993 11.8091C33.252 11.7356 33.3644 11.6269 33.449 11.5677C33.5336 11.5085 33.6608 11.4421 33.7317 11.4202C33.8409 11.3864 34.8869 11.3811 40.575 11.3856L47.2895 11.3908L47.4527 11.471ZM39.3801 16.9825C39.4583 17.0197 39.5932 17.121 39.6798 17.2078C39.7797 17.3079 39.8754 17.4436 39.9415 17.5789C39.9988 17.6963 40.0738 17.8947 40.108 18.0199C40.1423 18.1451 40.1706 18.3308 40.1709 18.4325C40.1713 18.5385 40.139 18.7509 40.0951 18.9304C40.0531 19.1025 39.9043 19.6274 39.7644 20.0968C39.6245 20.5663 39.4778 21.0848 39.4383 21.2491C39.3988 21.4134 39.3473 21.6759 39.3237 21.8324C39.3001 21.9888 39.281 22.2513 39.2813 22.4156C39.2815 22.5799 39.2944 22.804 39.31 22.9135C39.3256 23.023 39.3648 23.1927 39.3971 23.2905C39.4295 23.3883 39.5128 23.5457 39.5823 23.6401C39.6617 23.748 39.774 23.8541 39.8838 23.925C39.9801 23.9872 40.1429 24.0652 40.2458 24.0983C40.3748 24.1398 40.5376 24.1628 40.771 24.1726C40.9887 24.1818 41.1661 24.1742 41.2689 24.1514C41.3567 24.1318 41.4862 24.0866 41.5566 24.0508C41.627 24.015 41.7324 23.9429 41.7909 23.8906C41.8494 23.8383 41.9416 23.7203 41.996 23.6284C42.0528 23.5324 42.1151 23.3703 42.1424 23.2476C42.1787 23.0844 42.1863 22.9526 42.1745 22.6892C42.166 22.4996 42.1373 22.2228 42.1107 22.0742C42.0841 21.9255 41.9425 21.3212 41.7961 20.7313C41.6496 20.1413 41.5038 19.5312 41.4721 19.3754C41.4403 19.2196 41.4144 18.9981 41.4144 18.8832C41.4145 18.7683 41.4343 18.561 41.4586 18.4225C41.4828 18.2841 41.5291 18.1 41.5615 18.0134C41.5939 17.9268 41.664 17.8077 41.7173 17.7487C41.7707 17.6896 41.8739 17.6133 41.9467 17.5791C42.0254 17.5421 42.1607 17.5108 42.2802 17.5019C42.3988 17.4931 42.5337 17.5012 42.6092 17.5217C42.6962 17.5453 42.7792 17.5988 42.8683 17.6886C42.9532 17.7742 43.0223 17.8809 43.0643 17.9915C43.1164 18.1284 43.132 18.2384 43.143 18.5468C43.153 18.8275 43.1436 19.0151 43.1083 19.2406C43.0776 19.4361 43.0663 19.6136 43.0775 19.7237C43.0873 19.8194 43.1091 19.9873 43.126 20.0968C43.143 20.2064 43.1889 20.3856 43.2281 20.4952C43.2672 20.6047 43.3435 20.7612 43.3975 20.8429C43.4515 20.9245 43.549 21.0306 43.6143 21.0786C43.6795 21.1265 43.8143 21.1909 43.9138 21.2217C44.0133 21.2524 44.1606 21.2774 44.2411 21.2771C44.3216 21.2769 44.4677 21.2578 44.5658 21.2347C44.6639 21.2115 44.8112 21.1587 44.893 21.1173C44.9749 21.0759 45.1187 20.9637 45.2125 20.868C45.3076 20.7711 45.4298 20.6053 45.4883 20.4939C45.5461 20.3839 45.6279 20.1791 45.6701 20.0389C45.7328 19.8306 45.7475 19.724 45.75 19.4567L45.7531 19.1295L45.5352 18.6743C45.4154 18.4239 45.2905 18.1313 45.2578 18.0241C45.2251 17.9168 45.1983 17.7736 45.1983 17.7058C45.1983 17.6381 45.2111 17.5491 45.2267 17.5081C45.2423 17.467 45.3197 17.3651 45.3988 17.2815C45.4853 17.19 45.6 17.1048 45.6871 17.0673C45.8121 17.0136 45.8729 17.0064 46.1339 17.0146C46.3872 17.0226 46.4589 17.0356 46.5782 17.0953C46.6564 17.1344 46.8106 17.256 46.9207 17.3656C47.0308 17.4751 47.2056 17.6927 47.3092 17.8492C47.4127 18.0057 47.5839 18.3002 47.6896 18.5036C47.7953 18.707 47.9002 18.8951 47.9228 18.9216C47.9455 18.9481 48.0018 18.9781 48.0479 18.9883C48.0942 18.9984 48.2085 18.9978 48.302 18.987L48.4721 18.9672L48.7041 18.6785C48.8317 18.5197 49.0518 18.2709 49.1931 18.1255C49.3345 17.9802 49.5081 17.8246 49.579 17.7798C49.6498 17.735 49.7617 17.6897 49.8277 17.679C49.9062 17.6663 50.001 17.6752 50.1025 17.7047C50.2099 17.7359 50.2953 17.7868 50.381 17.8706C50.4489 17.9371 50.5449 18.0683 50.5943 18.1622C50.6437 18.2561 50.7109 18.415 50.7437 18.5154C50.8028 18.6968 50.8032 18.721 50.8032 22.4061V26.1142H40.5608H30.3184V24.0403V21.9663L30.4017 21.7713C30.4474 21.6641 30.5337 21.4887 30.5933 21.3817C30.653 21.2746 30.7692 21.1125 30.8517 21.0214C30.9341 20.9303 31.0603 20.8273 31.1319 20.7926C31.2375 20.7415 31.294 20.7324 31.4293 20.7447C31.5262 20.7535 31.6476 20.788 31.7184 20.8269C31.7934 20.8681 31.8736 20.9463 31.9259 21.0293C31.9729 21.1038 32.0497 21.2252 32.0966 21.2993C32.1606 21.4002 32.2105 21.4434 32.2958 21.4719C32.3828 21.5009 32.4515 21.5031 32.5877 21.481C32.6856 21.4652 32.8375 21.4193 32.9253 21.3792C33.0252 21.3334 33.1505 21.2391 33.2606 21.1268C33.3798 21.0053 33.4784 20.8655 33.5667 20.6929C33.6383 20.5529 33.7239 20.355 33.7568 20.2533C33.7898 20.1516 33.8359 19.976 33.8594 19.8631C33.8829 19.7501 33.908 19.5058 33.9152 19.3202C33.9223 19.1346 33.9474 18.9005 33.9708 18.8001C33.9943 18.6996 34.0349 18.5665 34.061 18.5042C34.0872 18.442 34.146 18.3367 34.1918 18.2702C34.2375 18.2037 34.3301 18.117 34.3975 18.0775C34.4879 18.0245 34.5603 18.0058 34.674 18.006C34.7751 18.0062 34.8768 18.029 34.9702 18.0726C35.0484 18.1091 35.1868 18.207 35.2778 18.2901C35.3687 18.3733 35.4982 18.5194 35.5655 18.6147C35.6328 18.7101 35.7485 18.9065 35.8227 19.0512C35.9189 19.2391 35.9993 19.352 36.104 19.4465C36.1845 19.5192 36.3177 19.6235 36.4 19.6782C36.5448 19.7748 36.5558 19.7774 36.7556 19.762C36.869 19.7534 37.0378 19.7177 37.1308 19.6827C37.2237 19.6478 37.3758 19.5747 37.4687 19.5203C37.5616 19.4658 37.7125 19.3452 37.804 19.2523C37.9101 19.1445 38.0094 19.0045 38.0778 18.8661L38.1852 18.6491L38.2026 18.1069C38.215 17.7206 38.2336 17.5221 38.2673 17.4166C38.2933 17.3351 38.3561 17.2135 38.4068 17.1463C38.4575 17.0791 38.5563 16.9944 38.6265 16.9582C38.7378 16.9006 38.7852 16.8936 38.996 16.9036C39.174 16.912 39.2754 16.9329 39.3801 16.9825Z" fill="#C4C4C4"/>
</svg>
