<svg width="81" height="46" viewBox="0 0 81 46" fill="none" xmlns="http://www.w3.org/2000/svg">
<path d="M2.32801 40.3967C2.32801 39.7167 2.48467 39.1067 2.79801 38.5667C3.11801 38.0267 3.54801 37.6067 4.08801 37.3067C4.63467 37.0001 5.23134 36.8467 5.87801 36.8467C6.61801 36.8467 7.27467 37.0301 7.84801 37.3967C8.42801 37.7567 8.84801 38.2701 9.10801 38.9367H7.73801C7.55801 38.5701 7.30801 38.2967 6.98801 38.1167C6.66801 37.9367 6.29801 37.8467 5.87801 37.8467C5.41801 37.8467 5.00801 37.9501 4.64801 38.1567C4.28801 38.3634 4.00467 38.6601 3.79801 39.0467C3.59801 39.4334 3.49801 39.8834 3.49801 40.3967C3.49801 40.9101 3.59801 41.3601 3.79801 41.7467C4.00467 42.1334 4.28801 42.4334 4.64801 42.6467C5.00801 42.8534 5.41801 42.9567 5.87801 42.9567C6.29801 42.9567 6.66801 42.8667 6.98801 42.6867C7.30801 42.5067 7.55801 42.2334 7.73801 41.8667H9.10801C8.84801 42.5334 8.42801 43.0467 7.84801 43.4067C7.27467 43.7667 6.61801 43.9467 5.87801 43.9467C5.22467 43.9467 4.62801 43.7967 4.08801 43.4967C3.54801 43.1901 3.11801 42.7667 2.79801 42.2267C2.48467 41.6867 2.32801 41.0767 2.32801 40.3967ZM15.4924 40.9967C15.4924 41.2034 15.479 41.3901 15.4524 41.5567H11.2424C11.2757 41.9967 11.439 42.3501 11.7324 42.6167C12.0257 42.8834 12.3857 43.0167 12.8124 43.0167C13.4257 43.0167 13.859 42.7601 14.1124 42.2467H15.3424C15.1757 42.7534 14.8724 43.1701 14.4324 43.4967C13.999 43.8167 13.459 43.9767 12.8124 43.9767C12.2857 43.9767 11.8124 43.8601 11.3924 43.6267C10.979 43.3867 10.6524 43.0534 10.4124 42.6267C10.179 42.1934 10.0624 41.6934 10.0624 41.1267C10.0624 40.5601 10.1757 40.0634 10.4024 39.6367C10.6357 39.2034 10.959 38.8701 11.3724 38.6367C11.7924 38.4034 12.2724 38.2867 12.8124 38.2867C13.3324 38.2867 13.7957 38.4001 14.2024 38.6267C14.609 38.8534 14.9257 39.1734 15.1524 39.5867C15.379 39.9934 15.4924 40.4634 15.4924 40.9967ZM14.3024 40.6367C14.2957 40.2167 14.1457 39.8801 13.8524 39.6267C13.559 39.3734 13.1957 39.2467 12.7624 39.2467C12.369 39.2467 12.0324 39.3734 11.7524 39.6267C11.4724 39.8734 11.3057 40.2101 11.2524 40.6367H14.3024ZM17.7543 36.4867V43.8867H16.6143V36.4867H17.7543ZM24.301 40.9967C24.301 41.2034 24.2876 41.3901 24.261 41.5567H20.051C20.0843 41.9967 20.2476 42.3501 20.541 42.6167C20.8343 42.8834 21.1943 43.0167 21.621 43.0167C22.2343 43.0167 22.6676 42.7601 22.921 42.2467H24.151C23.9843 42.7534 23.681 43.1701 23.241 43.4967C22.8076 43.8167 22.2676 43.9767 21.621 43.9767C21.0943 43.9767 20.621 43.8601 20.201 43.6267C19.7876 43.3867 19.461 43.0534 19.221 42.6267C18.9876 42.1934 18.871 41.6934 18.871 41.1267C18.871 40.5601 18.9843 40.0634 19.211 39.6367C19.4443 39.2034 19.7676 38.8701 20.181 38.6367C20.601 38.4034 21.081 38.2867 21.621 38.2867C22.141 38.2867 22.6043 38.4001 23.011 38.6267C23.4176 38.8534 23.7343 39.1734 23.961 39.5867C24.1876 39.9934 24.301 40.4634 24.301 40.9967ZM23.111 40.6367C23.1043 40.2167 22.9543 39.8801 22.661 39.6267C22.3676 39.3734 22.0043 39.2467 21.571 39.2467C21.1776 39.2467 20.841 39.3734 20.561 39.6267C20.281 39.8734 20.1143 40.2101 20.061 40.6367H23.111ZM26.5629 39.1967C26.7562 38.9301 27.0195 38.7134 27.3529 38.5467C27.6929 38.3734 28.0695 38.2867 28.4829 38.2867C28.9695 38.2867 29.4095 38.4034 29.8029 38.6367C30.1962 38.8701 30.5062 39.2034 30.7329 39.6367C30.9595 40.0634 31.0729 40.5534 31.0729 41.1067C31.0729 41.6601 30.9595 42.1567 30.7329 42.5967C30.5062 43.0301 30.1929 43.3701 29.7929 43.6167C29.3995 43.8567 28.9629 43.9767 28.4829 43.9767C28.0562 43.9767 27.6762 43.8934 27.3429 43.7267C27.0162 43.5601 26.7562 43.3467 26.5629 43.0867V43.8867H25.4229V36.4867H26.5629V39.1967ZM29.9129 41.1067C29.9129 40.7267 29.8329 40.4001 29.6729 40.1267C29.5195 39.8467 29.3129 39.6367 29.0529 39.4967C28.7995 39.3501 28.5262 39.2767 28.2329 39.2767C27.9462 39.2767 27.6729 39.3501 27.4129 39.4967C27.1595 39.6434 26.9529 39.8567 26.7929 40.1367C26.6395 40.4167 26.5629 40.7467 26.5629 41.1267C26.5629 41.5067 26.6395 41.8401 26.7929 42.1267C26.9529 42.4067 27.1595 42.6201 27.4129 42.7667C27.6729 42.9134 27.9462 42.9867 28.2329 42.9867C28.5262 42.9867 28.7995 42.9134 29.0529 42.7667C29.3129 42.6134 29.5195 42.3934 29.6729 42.1067C29.8329 41.8201 29.9129 41.4867 29.9129 41.1067ZM33.3402 39.1767C33.5069 38.8967 33.7269 38.6801 34.0002 38.5267C34.2802 38.3667 34.6102 38.2867 34.9902 38.2867V39.4667H34.7002C34.2535 39.4667 33.9135 39.5801 33.6802 39.8067C33.4535 40.0334 33.3402 40.4267 33.3402 40.9867V43.8867H32.2002V38.3767H33.3402V39.1767ZM35.6581 41.1067C35.6581 40.5534 35.7714 40.0634 35.9981 39.6367C36.2314 39.2101 36.5448 38.8801 36.9381 38.6467C37.3381 38.4067 37.7781 38.2867 38.2581 38.2867C38.6914 38.2867 39.0681 38.3734 39.3881 38.5467C39.7148 38.7134 39.9748 38.9234 40.1681 39.1767V38.3767H41.3181V43.8867H40.1681V43.0667C39.9748 43.3267 39.7114 43.5434 39.3781 43.7167C39.0448 43.8901 38.6648 43.9767 38.2381 43.9767C37.7648 43.9767 37.3314 43.8567 36.9381 43.6167C36.5448 43.3701 36.2314 43.0301 35.9981 42.5967C35.7714 42.1567 35.6581 41.6601 35.6581 41.1067ZM40.1681 41.1267C40.1681 40.7467 40.0881 40.4167 39.9281 40.1367C39.7748 39.8567 39.5714 39.6434 39.3181 39.4967C39.0648 39.3501 38.7914 39.2767 38.4981 39.2767C38.2048 39.2767 37.9314 39.3501 37.6781 39.4967C37.4248 39.6367 37.2181 39.8467 37.0581 40.1267C36.9048 40.4001 36.8281 40.7267 36.8281 41.1067C36.8281 41.4867 36.9048 41.8201 37.0581 42.1067C37.2181 42.3934 37.4248 42.6134 37.6781 42.7667C37.9381 42.9134 38.2114 42.9867 38.4981 42.9867C38.7914 42.9867 39.0648 42.9134 39.3181 42.7667C39.5714 42.6201 39.7748 42.4067 39.9281 42.1267C40.0881 41.8401 40.1681 41.5067 40.1681 41.1267ZM44.1454 39.3067V42.3567C44.1454 42.5634 44.1921 42.7134 44.2854 42.8067C44.3854 42.8934 44.5521 42.9367 44.7854 42.9367H45.4854V43.8867H44.5854C44.0721 43.8867 43.6788 43.7667 43.4054 43.5267C43.1321 43.2867 42.9954 42.8967 42.9954 42.3567V39.3067H42.3454V38.3767H42.9954V37.0067H44.1454V38.3767H45.4854V39.3067H44.1454ZM47.1161 37.6467C46.9095 37.6467 46.7361 37.5767 46.5961 37.4367C46.4561 37.2967 46.3861 37.1234 46.3861 36.9167C46.3861 36.7101 46.4561 36.5367 46.5961 36.3967C46.7361 36.2567 46.9095 36.1867 47.1161 36.1867C47.3161 36.1867 47.4861 36.2567 47.6261 36.3967C47.7661 36.5367 47.8361 36.7101 47.8361 36.9167C47.8361 37.1234 47.7661 37.2967 47.6261 37.4367C47.4861 37.5767 47.3161 37.6467 47.1161 37.6467ZM47.6761 38.3767V43.8867H46.5361V38.3767H47.6761ZM51.5629 43.9767C51.0429 43.9767 50.5729 43.8601 50.1529 43.6267C49.7329 43.3867 49.4029 43.0534 49.1629 42.6267C48.9229 42.1934 48.8029 41.6934 48.8029 41.1267C48.8029 40.5667 48.9262 40.0701 49.1729 39.6367C49.4195 39.2034 49.7562 38.8701 50.1829 38.6367C50.6095 38.4034 51.0862 38.2867 51.6129 38.2867C52.1395 38.2867 52.6162 38.4034 53.0429 38.6367C53.4695 38.8701 53.8062 39.2034 54.0529 39.6367C54.2995 40.0701 54.4229 40.5667 54.4229 41.1267C54.4229 41.6867 54.2962 42.1834 54.0429 42.6167C53.7895 43.0501 53.4429 43.3867 53.0029 43.6267C52.5695 43.8601 52.0895 43.9767 51.5629 43.9767ZM51.5629 42.9867C51.8562 42.9867 52.1295 42.9167 52.3829 42.7767C52.6429 42.6367 52.8529 42.4267 53.0129 42.1467C53.1729 41.8667 53.2529 41.5267 53.2529 41.1267C53.2529 40.7267 53.1762 40.3901 53.0229 40.1167C52.8695 39.8367 52.6662 39.6267 52.4129 39.4867C52.1595 39.3467 51.8862 39.2767 51.5929 39.2767C51.2995 39.2767 51.0262 39.3467 50.7729 39.4867C50.5262 39.6267 50.3295 39.8367 50.1829 40.1167C50.0362 40.3901 49.9629 40.7267 49.9629 41.1267C49.9629 41.7201 50.1129 42.1801 50.4129 42.5067C50.7195 42.8267 51.1029 42.9867 51.5629 42.9867ZM58.3298 38.2867C58.7631 38.2867 59.1498 38.3767 59.4898 38.5567C59.8365 38.7367 60.1065 39.0034 60.2998 39.3567C60.4931 39.7101 60.5898 40.1367 60.5898 40.6367V43.8867H59.4598V40.8067C59.4598 40.3134 59.3365 39.9367 59.0898 39.6767C58.8431 39.4101 58.5065 39.2767 58.0798 39.2767C57.6531 39.2767 57.3131 39.4101 57.0598 39.6767C56.8131 39.9367 56.6898 40.3134 56.6898 40.8067V43.8867H55.5498V38.3767H56.6898V39.0067C56.8765 38.7801 57.1131 38.6034 57.3998 38.4767C57.6931 38.3501 58.0031 38.2867 58.3298 38.2867ZM65.7816 42.9667H68.1316V43.8867H64.6416V36.9367H65.7816V42.9667ZM69.665 37.6467C69.4583 37.6467 69.285 37.5767 69.145 37.4367C69.005 37.2967 68.935 37.1234 68.935 36.9167C68.935 36.7101 69.005 36.5367 69.145 36.3967C69.285 36.2567 69.4583 36.1867 69.665 36.1867C69.865 36.1867 70.035 36.2567 70.175 36.3967C70.315 36.5367 70.385 36.7101 70.385 36.9167C70.385 37.1234 70.315 37.2967 70.175 37.4367C70.035 37.5767 69.865 37.6467 69.665 37.6467ZM70.225 38.3767V43.8867H69.085V38.3767H70.225ZM73.7217 43.9767C73.2883 43.9767 72.8983 43.9001 72.5517 43.7467C72.2117 43.5867 71.9417 43.3734 71.7417 43.1067C71.5417 42.8334 71.435 42.5301 71.4217 42.1967H72.6017C72.6217 42.4301 72.7317 42.6267 72.9317 42.7867C73.1383 42.9401 73.395 43.0167 73.7017 43.0167C74.0217 43.0167 74.2683 42.9567 74.4417 42.8367C74.6217 42.7101 74.7117 42.5501 74.7117 42.3567C74.7117 42.1501 74.6117 41.9967 74.4117 41.8967C74.2183 41.7967 73.9083 41.6867 73.4817 41.5667C73.0683 41.4534 72.7317 41.3434 72.4717 41.2367C72.2117 41.1301 71.985 40.9667 71.7917 40.7467C71.605 40.5267 71.5117 40.2367 71.5117 39.8767C71.5117 39.5834 71.5983 39.3167 71.7717 39.0767C71.945 38.8301 72.1917 38.6367 72.5117 38.4967C72.8383 38.3567 73.2117 38.2867 73.6317 38.2867C74.2583 38.2867 74.7617 38.4467 75.1417 38.7667C75.5283 39.0801 75.735 39.5101 75.7617 40.0567H74.6217C74.6017 39.8101 74.5017 39.6134 74.3217 39.4667C74.1417 39.3201 73.8983 39.2467 73.5917 39.2467C73.2917 39.2467 73.0617 39.3034 72.9017 39.4167C72.7417 39.5301 72.6617 39.6801 72.6617 39.8667C72.6617 40.0134 72.715 40.1367 72.8217 40.2367C72.9283 40.3367 73.0583 40.4167 73.2117 40.4767C73.365 40.5301 73.5917 40.6001 73.8917 40.6867C74.2917 40.7934 74.6183 40.9034 74.8717 41.0167C75.1317 41.1234 75.355 41.2834 75.5417 41.4967C75.7283 41.7101 75.825 41.9934 75.8317 42.3467C75.8317 42.6601 75.745 42.9401 75.5717 43.1867C75.3983 43.4334 75.1517 43.6267 74.8317 43.7667C74.5183 43.9067 74.1483 43.9767 73.7217 43.9767ZM78.3935 39.3067V42.3567C78.3935 42.5634 78.4401 42.7134 78.5335 42.8067C78.6335 42.8934 78.8001 42.9367 79.0335 42.9367H79.7335V43.8867H78.8335C78.3201 43.8867 77.9268 43.7667 77.6535 43.5267C77.3801 43.2867 77.2435 42.8967 77.2435 42.3567V39.3067H76.5935V38.3767H77.2435V37.0067H78.3935V38.3767H79.7335V39.3067H78.3935Z" fill="#2A8981"/>
<path fill-rule="evenodd" clip-rule="evenodd" d="M35.1867 0.600801C35.2133 0.729428 35.2304 0.978403 35.2321 1.26229C35.2343 1.64086 35.2259 1.74038 35.1824 1.85338C35.1396 1.9642 35.0977 2.01092 34.9548 2.10691C34.8584 2.17164 34.6771 2.30433 34.5519 2.40175C34.4268 2.49919 34.2204 2.68595 34.0934 2.81679C33.9664 2.94764 33.8091 3.13738 33.7439 3.23844C33.6787 3.33952 33.5987 3.50992 33.5661 3.61715C33.5227 3.7602 33.5111 3.8552 33.5227 3.97398C33.5313 4.063 33.5521 4.24466 33.5688 4.37767C33.5856 4.51068 33.6259 4.70913 33.6586 4.81866C33.6912 4.9282 33.7646 5.10744 33.8216 5.21698C33.8896 5.34742 33.9991 5.48974 34.1391 5.62952C34.2566 5.74688 34.4262 5.88597 34.5161 5.93864C34.6059 5.9913 34.7851 6.06994 34.9144 6.11338C35.0436 6.15683 35.1894 6.1995 35.2383 6.20824L35.3272 6.22414L35.191 5.99756C35.1161 5.87291 35.0162 5.67819 34.969 5.56482C34.9218 5.45144 34.8681 5.27186 34.8496 5.16571C34.831 5.05885 34.8244 4.90521 34.8349 4.82139C34.8453 4.73815 34.8896 4.59464 34.9334 4.50251C34.9812 4.40191 35.0719 4.2802 35.1604 4.19786C35.2414 4.12244 35.3787 4.02824 35.4654 3.98855C35.6206 3.91748 35.6251 3.91711 35.7495 3.96462C35.8223 3.99239 35.907 4.0537 35.9493 4.10907C35.9896 4.16196 36.0481 4.28563 36.0792 4.3839C36.1163 4.50103 36.1412 4.68102 36.1515 4.90623C36.1602 5.09603 36.1523 5.39309 36.1338 5.56971C36.1154 5.74565 36.0925 5.92862 36.0829 5.97636L36.0656 6.06314L36.3615 5.91152C36.5975 5.79052 36.7005 5.71655 36.8713 5.54533C37.0115 5.40472 37.1208 5.26213 37.1886 5.13162C37.2454 5.02209 37.3182 4.84632 37.3504 4.74105C37.3827 4.63578 37.4217 4.42453 37.4372 4.27161C37.4549 4.09643 37.4557 3.91728 37.4391 3.78731C37.4246 3.67388 37.3925 3.50272 37.3677 3.40695C37.3429 3.31121 37.2733 3.11837 37.2129 2.97842C37.1526 2.8385 37.03 2.60136 36.9406 2.45148C36.8512 2.3016 36.6656 2.03032 36.5283 1.84866C36.3909 1.66697 36.1324 1.35831 35.9537 1.16271C35.7751 0.967108 35.5257 0.714264 35.3996 0.600801C35.2735 0.487338 35.1644 0.394531 35.1572 0.394531C35.1499 0.394531 35.1632 0.487338 35.1867 0.600801ZM40.5033 0.600801C40.5237 0.714264 40.5487 0.954646 40.5589 1.13503C40.5706 1.34312 40.5651 1.5332 40.5439 1.65505C40.5255 1.76069 40.4954 1.88021 40.477 1.92064C40.4585 1.9611 40.3534 2.05522 40.2432 2.12981C40.1331 2.20441 39.9662 2.32502 39.8723 2.39779C39.7784 2.4706 39.6007 2.62893 39.4775 2.7497C39.3542 2.87045 39.1974 3.04767 39.129 3.14352C39.0606 3.23935 38.9717 3.38977 38.9314 3.47777C38.8911 3.56577 38.8508 3.70927 38.8418 3.79667C38.8328 3.88407 38.8408 4.06656 38.8595 4.20219C38.8783 4.33781 38.9184 4.55762 38.9486 4.69063C38.9787 4.82364 39.0567 5.04129 39.1218 5.1743C39.2158 5.36617 39.2879 5.46325 39.4709 5.6442C39.6466 5.81795 39.7592 5.90108 39.9434 5.99318C40.0764 6.05969 40.2813 6.13819 40.3986 6.16761C40.516 6.19703 40.6166 6.2168 40.6222 6.21151C40.6278 6.20619 40.5876 6.12749 40.5329 6.03662C40.4782 5.94572 40.3927 5.78998 40.3429 5.69051C40.2932 5.59102 40.2277 5.41295 40.1975 5.29476C40.1673 5.17655 40.1426 5.01921 40.1426 4.94513C40.1426 4.87104 40.1686 4.72611 40.2004 4.62309C40.2455 4.47728 40.2928 4.39841 40.4142 4.26737C40.5101 4.16375 40.6395 4.06297 40.7507 4.00536L40.9313 3.9117L41.0638 3.96229C41.1391 3.99105 41.2257 4.05168 41.2644 4.10281C41.3019 4.15228 41.3602 4.27499 41.394 4.37554C41.437 4.50397 41.46 4.66053 41.4712 4.90188C41.48 5.09082 41.4725 5.37855 41.4547 5.54126C41.4368 5.70394 41.414 5.88796 41.4041 5.95019L41.386 6.06331L41.6391 5.93218C41.7784 5.86008 41.9655 5.74338 42.055 5.67287C42.1445 5.6024 42.2713 5.47736 42.3367 5.39508C42.4021 5.31277 42.4982 5.15581 42.5502 5.04627C42.6022 4.93673 42.6675 4.76389 42.6953 4.66218C42.7341 4.51998 42.7456 4.37204 42.7449 4.02203C42.744 3.58651 42.7401 3.55504 42.6528 3.29466C42.6026 3.14495 42.5 2.90169 42.4248 2.75409C42.3496 2.60645 42.2128 2.37159 42.1209 2.23215C42.029 2.09271 41.8558 1.85586 41.736 1.70581C41.6162 1.55576 41.3898 1.29216 41.2328 1.12003C41.0758 0.947903 40.8442 0.714264 40.7182 0.600801C40.5922 0.487338 40.4839 0.394531 40.4777 0.394531C40.4714 0.394531 40.4829 0.487338 40.5033 0.600801ZM45.7474 0.419312C45.7474 0.436041 45.768 0.587742 45.7931 0.756428C45.8243 0.965372 45.8345 1.17195 45.8253 1.40454C45.8175 1.59997 45.7938 1.7946 45.7698 1.85976C45.7362 1.95114 45.6805 2.00722 45.487 2.14427C45.3544 2.23816 45.1618 2.38217 45.0589 2.46428C44.956 2.54639 44.769 2.72208 44.6435 2.85469C44.518 2.9873 44.3705 3.16976 44.3157 3.26017C44.2609 3.35059 44.1883 3.50716 44.1544 3.60813C44.1095 3.74202 44.0965 3.8344 44.1064 3.94954C44.1139 4.03634 44.1329 4.20981 44.1487 4.33499C44.1645 4.46018 44.1985 4.64582 44.2243 4.74753C44.2501 4.84925 44.3245 5.04129 44.3895 5.1743C44.4812 5.36176 44.5561 5.4641 44.7229 5.62952C44.8412 5.74688 45.0112 5.88597 45.1005 5.93864C45.19 5.9913 45.3689 6.06994 45.4982 6.11338C45.6274 6.15683 45.7763 6.20013 45.8289 6.2096L45.9246 6.22684L45.8726 6.14869C45.844 6.10567 45.7654 5.97448 45.6979 5.85712C45.6304 5.73976 45.5417 5.54132 45.5008 5.41613C45.4452 5.24622 45.4259 5.12656 45.4243 4.94402C45.4225 4.72355 45.4313 4.68113 45.5146 4.51202C45.5731 4.39318 45.6593 4.27738 45.7499 4.19587C45.8286 4.12514 45.9629 4.03307 46.0484 3.99125C46.2033 3.91546 46.2043 3.91537 46.3334 3.96465C46.4202 3.99779 46.4905 4.05216 46.5464 4.12944C46.5924 4.19285 46.6501 4.30984 46.6748 4.38945C46.7011 4.47458 46.7259 4.69225 46.735 4.91824C46.7434 5.12949 46.7363 5.43036 46.7191 5.58684C46.7019 5.74332 46.6792 5.91451 46.6686 5.96723L46.6494 6.06314L46.9336 5.9171C47.1018 5.83075 47.2898 5.70605 47.3938 5.6119C47.4906 5.52436 47.6086 5.39627 47.656 5.32731C47.7035 5.25834 47.7801 5.12573 47.8263 5.03261C47.8725 4.93952 47.9348 4.75726 47.9647 4.62761C47.9947 4.49796 48.0276 4.30199 48.0378 4.19209C48.048 4.08218 48.0418 3.88373 48.0238 3.75109C48.0059 3.61846 47.9542 3.39859 47.9089 3.26251C47.8635 3.12642 47.7698 2.90237 47.7005 2.76461C47.6312 2.62685 47.4856 2.3797 47.377 2.2154C47.2684 2.05109 47.0642 1.77583 46.9233 1.6037C46.7824 1.43157 46.5362 1.15366 46.3762 0.986113C46.2161 0.818593 46.0092 0.615681 45.9163 0.535193C45.8234 0.454734 45.7474 0.402583 45.7474 0.419312ZM34.3784 6.75048L34.2817 6.84722V8.41487V9.98252H34.144C34.0682 9.98252 33.905 10.008 33.7812 10.0392C33.6574 10.0705 33.4477 10.1493 33.3151 10.2145C33.1203 10.3102 33.0245 10.3825 32.8152 10.5916C32.6151 10.7916 32.5292 10.9033 32.4366 11.0839C32.3707 11.2125 32.2915 11.4162 32.2607 11.5366C32.2087 11.7399 32.2047 11.8562 32.2047 13.1594V14.5631L31.9131 14.5635C31.7397 14.5637 31.5161 14.5856 31.3616 14.6175C31.2111 14.6486 30.9954 14.7209 30.8495 14.7893C30.7108 14.8543 30.5044 14.9786 30.3909 15.0656C30.2773 15.1526 30.1201 15.3007 30.0416 15.3947C29.963 15.4887 29.8485 15.6505 29.7871 15.7543C29.7257 15.8581 29.6332 16.0646 29.5816 16.2133L29.4877 16.4836L29.4801 21.2822L29.4725 26.0808L28.8826 26.0904L28.2927 26.1L28.1021 26.1903C27.9972 26.24 27.8554 26.3367 27.7868 26.4053C27.7183 26.4738 27.6248 26.606 27.5791 26.699C27.5034 26.8533 27.4961 26.8944 27.4961 27.1669C27.4961 27.4394 27.5034 27.4805 27.5791 27.6348C27.6248 27.7279 27.7183 27.86 27.7868 27.9286C27.8554 27.9971 27.9972 28.0939 28.1021 28.1435L28.2927 28.2338H40.9961H53.6995L53.8908 28.1432C54.0008 28.0911 54.1361 27.997 54.2092 27.9218C54.2791 27.8499 54.3723 27.7178 54.4162 27.6283C54.4884 27.4814 54.4961 27.4367 54.4961 27.1669C54.4961 26.8944 54.4888 26.8533 54.413 26.699C54.3674 26.606 54.2739 26.4738 54.2054 26.4053C54.1368 26.3367 53.995 26.24 53.8901 26.1903C53.7003 26.1004 53.6971 26.1 53.1668 26.0903L52.6341 26.0805L52.6259 21.3389L52.6177 16.5974L52.5537 16.3698C52.5185 16.2446 52.4405 16.0397 52.3803 15.9146C52.3201 15.7894 52.211 15.6079 52.1379 15.5112C52.0648 15.4146 51.9348 15.2714 51.849 15.193C51.7633 15.1146 51.5965 14.9903 51.4784 14.9167C51.3603 14.8431 51.1588 14.7469 51.0306 14.7029C50.9024 14.6589 50.7142 14.6095 50.6125 14.5932C50.5108 14.5769 50.3036 14.5635 50.1521 14.5634L49.8766 14.5631L49.8653 13.1477C49.8555 11.9271 49.8473 11.7068 49.8053 11.5478C49.7785 11.4463 49.713 11.2727 49.6597 11.1619C49.6064 11.0512 49.5046 10.8846 49.4334 10.7916C49.3621 10.6987 49.2245 10.5555 49.1274 10.4735C49.0303 10.3914 48.8527 10.2732 48.7326 10.2108C48.6126 10.1483 48.4071 10.0715 48.276 10.04C48.0934 9.99626 47.9396 9.98286 47.6181 9.98272L47.1984 9.98252V8.45948C47.1984 7.22129 47.191 6.91869 47.1588 6.8415C47.1369 6.78926 47.0893 6.72568 47.0528 6.70015C46.9948 6.6595 46.8686 6.65375 46.0327 6.65386C45.1346 6.65395 45.0734 6.65722 44.9871 6.70989C44.9367 6.74064 44.8855 6.80138 44.8733 6.84491C44.8612 6.88844 44.8512 7.61221 44.8512 8.45328V9.98252H43.3931H41.935L41.9348 8.48173C41.9347 7.5161 41.9239 6.94236 41.9046 6.87277C41.8844 6.80007 41.8448 6.74644 41.7839 6.70929C41.6989 6.65745 41.6341 6.65395 40.7543 6.65395C39.8744 6.65395 39.8097 6.65745 39.7246 6.70929C39.6637 6.74644 39.6241 6.80007 39.6039 6.87277C39.5846 6.94236 39.5738 7.5161 39.5737 8.48173L39.5735 9.98252H38.0941H36.6146V8.41487V6.84722L36.5179 6.75048L36.4212 6.65375H35.4481H34.4751L34.3784 6.75048ZM47.9449 11.471C48.0347 11.5151 48.1681 11.6111 48.2413 11.6843C48.3145 11.7575 48.4139 11.9007 48.4621 12.0025C48.548 12.1836 48.55 12.1978 48.5598 12.6854C48.5653 12.9592 48.5607 13.4937 48.5495 13.8732L48.5292 14.5631H41.0071H33.485V13.4102C33.485 12.3417 33.4891 12.2457 33.5403 12.1C33.5706 12.0136 33.6387 11.8827 33.6914 11.8091C33.7442 11.7356 33.8566 11.6269 33.9412 11.5677C34.0257 11.5085 34.153 11.4421 34.2239 11.4202C34.3331 11.3864 35.3791 11.3811 41.0672 11.3856L47.7817 11.3908L47.9449 11.471ZM39.8723 16.9825C39.9505 17.0197 40.0854 17.121 40.172 17.2078C40.2719 17.3079 40.3676 17.4436 40.4337 17.5789C40.491 17.6963 40.5659 17.8947 40.6002 18.0199C40.6345 18.1451 40.6628 18.3308 40.6631 18.4325C40.6635 18.5385 40.6312 18.7509 40.5873 18.9304C40.5453 19.1025 40.3965 19.6274 40.2566 20.0968C40.1167 20.5663 39.97 21.0848 39.9305 21.2491C39.891 21.4134 39.8394 21.6759 39.8159 21.8324C39.7923 21.9888 39.7732 22.2513 39.7734 22.4156C39.7736 22.5799 39.7866 22.804 39.8022 22.9135C39.8178 23.023 39.857 23.1927 39.8893 23.2905C39.9216 23.3883 40.005 23.5457 40.0745 23.6401C40.1539 23.748 40.2662 23.8541 40.376 23.925C40.4723 23.9872 40.6351 24.0652 40.738 24.0983C40.867 24.1398 41.0298 24.1628 41.2632 24.1726C41.4809 24.1818 41.6583 24.1742 41.7611 24.1514C41.8489 24.1318 41.9784 24.0866 42.0488 24.0508C42.1192 24.015 42.2246 23.9429 42.2831 23.8906C42.3415 23.8383 42.4338 23.7203 42.4882 23.6284C42.545 23.5324 42.6073 23.3703 42.6346 23.2476C42.6709 23.0844 42.6785 22.9526 42.6667 22.6892C42.6582 22.4996 42.6295 22.2228 42.6029 22.0742C42.5763 21.9255 42.4347 21.3212 42.2883 20.7313C42.1418 20.1413 41.996 19.5312 41.9643 19.3754C41.9325 19.2196 41.9066 18.9981 41.9066 18.8832C41.9067 18.7683 41.9265 18.561 41.9507 18.4225C41.975 18.2841 42.0213 18.1 42.0537 18.0134C42.0861 17.9268 42.1562 17.8077 42.2095 17.7487C42.2629 17.6896 42.3661 17.6133 42.4389 17.5791C42.5175 17.5421 42.6529 17.5108 42.7724 17.5019C42.891 17.4931 43.0259 17.5012 43.1014 17.5217C43.1884 17.5453 43.2714 17.5988 43.3605 17.6886C43.4454 17.7742 43.5145 17.8809 43.5565 17.9915C43.6086 18.1284 43.6242 18.2384 43.6352 18.5468C43.6452 18.8275 43.6358 19.0151 43.6004 19.2406C43.5698 19.4361 43.5585 19.6136 43.5697 19.7237C43.5794 19.8194 43.6013 19.9873 43.6182 20.0968C43.6352 20.2064 43.6811 20.3856 43.7202 20.4952C43.7594 20.6047 43.8356 20.7612 43.8897 20.8429C43.9437 20.9245 44.0412 21.0306 44.1064 21.0786C44.1717 21.1265 44.3065 21.1909 44.406 21.2217C44.5055 21.2524 44.6528 21.2774 44.7333 21.2771C44.8138 21.2769 44.9599 21.2578 45.058 21.2347C45.1561 21.2115 45.3033 21.1587 45.3852 21.1173C45.4671 21.0759 45.6108 20.9637 45.7047 20.868C45.7998 20.7711 45.922 20.6053 45.9805 20.4939C46.0383 20.3839 46.1201 20.1791 46.1623 20.0389C46.225 19.8306 46.2396 19.724 46.2422 19.4567L46.2453 19.1295L46.0274 18.6743C45.9076 18.4239 45.7827 18.1313 45.75 18.0241C45.7173 17.9168 45.6905 17.7736 45.6905 17.7058C45.6905 17.6381 45.7033 17.5491 45.7189 17.5081C45.7345 17.467 45.8119 17.3651 45.8909 17.2815C45.9775 17.19 46.0922 17.1048 46.1793 17.0673C46.3043 17.0136 46.3651 17.0064 46.6261 17.0146C46.8794 17.0226 46.9511 17.0356 47.0704 17.0953C47.1486 17.1344 47.3027 17.256 47.4128 17.3656C47.523 17.4751 47.6978 17.6927 47.8014 17.8492C47.9049 18.0057 48.0761 18.3002 48.1818 18.5036C48.2875 18.707 48.3924 18.8951 48.415 18.9216C48.4377 18.9481 48.494 18.9781 48.5401 18.9883C48.5863 18.9984 48.7007 18.9978 48.7942 18.987L48.9643 18.9672L49.1963 18.6785C49.3239 18.5197 49.5439 18.2709 49.6853 18.1255C49.8267 17.9802 50.0003 17.8246 50.0711 17.7798C50.142 17.735 50.2539 17.6897 50.3199 17.679C50.3984 17.6663 50.4932 17.6752 50.5947 17.7047C50.7021 17.7359 50.7875 17.7868 50.8731 17.8706C50.9411 17.9371 51.0371 18.0683 51.0865 18.1622C51.1359 18.2561 51.2031 18.415 51.2359 18.5154C51.295 18.6968 51.2954 18.721 51.2954 22.4061V26.1142H41.053H30.8106V24.0403V21.9663L30.8939 21.7713C30.9396 21.6641 31.0259 21.4887 31.0855 21.3817C31.1452 21.2746 31.2614 21.1125 31.3439 21.0214C31.4263 20.9303 31.5524 20.8273 31.6241 20.7926C31.7297 20.7415 31.7862 20.7324 31.9214 20.7447C32.0184 20.7535 32.1398 20.788 32.2106 20.8269C32.2856 20.8681 32.3657 20.9463 32.4181 21.0293C32.4651 21.1038 32.5419 21.2252 32.5888 21.2993C32.6528 21.4002 32.7027 21.4434 32.788 21.4719C32.875 21.5009 32.9437 21.5031 33.0799 21.481C33.1778 21.4652 33.3297 21.4193 33.4175 21.3792C33.5174 21.3334 33.6427 21.2391 33.7528 21.1268C33.872 21.0053 33.9706 20.8655 34.0589 20.6929C34.1305 20.5529 34.2161 20.355 34.249 20.2533C34.282 20.1516 34.3281 19.976 34.3516 19.8631C34.3751 19.7501 34.4002 19.5058 34.4074 19.3202C34.4145 19.1346 34.4396 18.9005 34.463 18.8001C34.4865 18.6996 34.5271 18.5665 34.5532 18.5042C34.5794 18.442 34.6382 18.3367 34.684 18.2702C34.7297 18.2037 34.8223 18.117 34.8897 18.0775C34.9801 18.0245 35.0525 18.0058 35.1661 18.006C35.2673 18.0062 35.3689 18.029 35.4624 18.0726C35.5406 18.1091 35.679 18.207 35.77 18.2901C35.8609 18.3733 35.9903 18.5194 36.0577 18.6147C36.125 18.7101 36.2407 18.9065 36.3149 19.0512C36.4111 19.2391 36.4914 19.352 36.5961 19.4465C36.6767 19.5192 36.8099 19.6235 36.8922 19.6782C37.037 19.7748 37.0479 19.7774 37.2478 19.762C37.3612 19.7534 37.53 19.7177 37.623 19.6827C37.7159 19.6478 37.868 19.5747 37.9609 19.5203C38.0538 19.4658 38.2047 19.3452 38.2962 19.2523C38.4023 19.1445 38.5016 19.0045 38.57 18.8661L38.6773 18.6491L38.6948 18.1069C38.7072 17.7206 38.7258 17.5221 38.7595 17.4166C38.7855 17.3351 38.8483 17.2135 38.899 17.1463C38.9496 17.0791 39.0485 16.9944 39.1187 16.9582C39.23 16.9006 39.2774 16.8936 39.4882 16.9036C39.6662 16.912 39.7676 16.9329 39.8723 16.9825Z" fill="#2A8981"/>
</svg>
