<svg width="18" height="17" viewBox="0 0 18 17" fill="none" xmlns="http://www.w3.org/2000/svg">
<path fill-rule="evenodd" clip-rule="evenodd" d="M8.27911 16.6154C12.5249 16.6154 15.9668 12.8959 15.9668 8.30769C15.9668 3.71947 12.5249 0 8.27911 0C4.0333 0 0.591413 3.71947 0.591413 8.30769C0.591413 12.8959 4.0333 16.6154 8.27911 16.6154Z" fill="#FFD12B"/>
<path fill-rule="evenodd" clip-rule="evenodd" d="M15.9669 8.30769C15.9669 4.06424 13.0221 0.56611 9.22057 0.0640879C9.52933 0.0234396 9.84311 0 10.1619 0C14.4077 0 17.8496 3.71947 17.8496 8.30769C17.8496 12.8959 14.4077 16.6154 10.1619 16.6154C9.84311 16.6154 9.52933 16.5919 9.22057 16.5513C13.0221 16.0493 15.9669 12.5511 15.9669 8.30769Z" fill="#FFB023"/>
<path fill-rule="evenodd" clip-rule="evenodd" d="M15.9675 8.60352H17.8496C17.8433 8.8032 17.8314 9.0011 17.8123 9.19692H15.9286C15.9481 9.0011 15.9609 8.8032 15.9675 8.60352Z" fill="#FF6D15"/>
<path fill-rule="evenodd" clip-rule="evenodd" d="M15.8948 7.12109H17.7762C17.8023 7.31662 17.8211 7.51482 17.834 7.7145H15.9516C15.9384 7.51482 15.9208 7.31662 15.8948 7.12109Z" fill="#FF6D15"/>
<path fill-rule="evenodd" clip-rule="evenodd" d="M15.7947 10.0879H17.6777C17.6369 10.2885 17.5899 10.4864 17.5362 10.6813H15.6538C15.7072 10.4864 15.7539 10.2885 15.7947 10.0879Z" fill="#FF6D15"/>
<path fill-rule="evenodd" clip-rule="evenodd" d="M15.3563 11.5723H17.2402C17.1602 11.7746 17.0717 11.9719 16.9776 12.1657H15.0946C15.1887 11.9722 15.2763 11.7743 15.3563 11.5723Z" fill="#FF6D15"/>
<path fill-rule="evenodd" clip-rule="evenodd" d="M15.5687 5.63672H17.4492C17.5104 5.83165 17.5675 6.02896 17.6152 6.23013H15.7303C15.6826 6.02955 15.6296 5.83106 15.5687 5.63672Z" fill="#FF6D15"/>
<path fill-rule="evenodd" clip-rule="evenodd" d="M14.9423 4.1543H16.825C16.9285 4.34745 17.0261 4.54506 17.1152 4.7477H15.2313C15.1422 4.54535 15.0458 4.34745 14.9423 4.1543Z" fill="#FF6D15"/>
<path fill-rule="evenodd" clip-rule="evenodd" d="M13.6628 2.37305H15.5477C15.7262 2.56175 15.896 2.75965 16.0566 2.96645H14.1724C14.0114 2.75965 13.8413 2.56175 13.6628 2.37305Z" fill="#FF6D15"/>
<path fill-rule="evenodd" clip-rule="evenodd" d="M11.7427 0.890625H13.6295C13.9502 1.06568 14.2577 1.26388 14.5508 1.48403H12.6653C12.3719 1.26388 12.0637 1.06568 11.7427 0.890625Z" fill="#FF6D15"/>
<path fill-rule="evenodd" clip-rule="evenodd" d="M14.3917 13.3516H16.2754C16.1298 13.5572 15.976 13.7551 15.8135 13.945H13.9286C14.0911 13.7551 14.2458 13.5572 14.3917 13.3516Z" fill="#FF6D15"/>
<path fill-rule="evenodd" clip-rule="evenodd" d="M14.9219 14.8359C14.6699 15.0505 14.406 15.2495 14.1299 15.4293H12.2428C12.5202 15.2492 12.7869 15.0513 13.0398 14.8359H14.9219Z" fill="#FF6D15"/>
<path fill-rule="evenodd" clip-rule="evenodd" d="M12.7593 5.71525C12.2876 5.71525 11.9051 6.10195 11.9051 6.57895C11.9053 6.6695 11.9197 6.75944 11.9479 6.84541L11.2551 7.29065C10.799 7.5845 10.1976 7.48711 9.85508 7.06393L9.176 6.22399C9.28407 6.07689 9.34248 5.89853 9.34256 5.71527C9.34256 5.23826 8.96012 4.85156 8.48837 4.85156C8.01662 4.85156 7.63417 5.23826 7.63417 5.71527C7.63425 5.89853 7.69267 6.07689 7.80074 6.22399L7.12166 7.06393C6.77918 7.48687 6.1781 7.58423 5.72208 7.29065L5.02895 6.84541C5.05708 6.75944 5.07149 6.6695 5.07165 6.57895C5.07173 6.10195 4.68937 5.71519 4.2176 5.7151C3.74586 5.71502 3.36336 6.10166 3.36328 6.57867C3.3632 7.02644 3.70158 7.40002 4.14272 7.43919L4.64755 10.501C4.66466 10.6051 4.75371 10.6815 4.8581 10.6815H12.1187C12.2231 10.6815 12.3121 10.6051 12.3293 10.501L12.8341 7.43919C13.3039 7.39658 13.6507 6.97689 13.6086 6.50179C13.5691 6.05707 13.2009 5.71608 12.7593 5.71525Z" fill="#FFB023"/>
<path fill-rule="evenodd" clip-rule="evenodd" d="M8.48888 11.5459C10.5916 11.5459 12.2961 11.0626 12.2961 10.4663C12.2961 9.87008 10.5916 9.38672 8.48888 9.38672C6.3862 9.38672 4.68164 9.87008 4.68164 10.4663C4.68164 11.0626 6.3862 11.5459 8.48888 11.5459Z" fill="#FFB023"/>
</svg>
