<svg width="29" height="29" viewBox="0 0 29 29" fill="none" xmlns="http://www.w3.org/2000/svg">
<circle cx="14.25" cy="14.25" r="14.25" fill="#2A8981"/>
<path d="M12.5406 8V8.70813H9V10.1244H9.70812V19.33C9.70812 19.7056 9.85734 20.0658 10.1229 20.3314C10.3885 20.597 10.7488 20.7463 11.1244 20.7463H18.2056C18.5812 20.7463 18.9415 20.597 19.2071 20.3314C19.4727 20.0658 19.6219 19.7056 19.6219 19.33V10.1244H20.33V8.70813H16.7894V8H12.5406ZM11.1244 10.1244H18.2056V19.33H11.1244V10.1244ZM12.5406 11.5406V17.9138H13.9569V11.5406H12.5406ZM15.3731 11.5406V17.9138H16.7894V11.5406H15.3731Z" fill="#FCFCFC"/>
</svg>
