<svg width="30" height="38" viewBox="0 0 30 38" fill="none" xmlns="http://www.w3.org/2000/svg">
<path d="M18.75 0H3.75C2.75544 0 1.80161 0.395088 1.09835 1.09835C0.395088 1.80161 0 2.75544 0 3.75V33.75C0 34.7446 0.395088 35.6984 1.09835 36.4016C1.80161 37.1049 2.75544 37.5 3.75 37.5H26.25C27.2446 37.5 28.1984 37.1049 28.9016 36.4016C29.6049 35.6984 30 34.7446 30 33.75V11.25L18.75 0ZM22.125 33.75H18.75L15 27.375L11.25 33.75H7.875L13.3125 25.3125L7.875 16.875H11.25L15 23.25L18.75 16.875H22.125L16.6875 25.3125L22.125 33.75ZM16.875 13.125V2.8125L27.1875 13.125H16.875Z" fill="#3C4758"/>
</svg>
