<svg width="18" height="5" viewBox="0 0 18 5" fill="none" xmlns="http://www.w3.org/2000/svg">
<path d="M8.59969 4.01196C7.7306 3.84335 7.17279 2.95325 7.35379 2.02387C7.53479 1.09449 8.38606 0.477769 9.25516 0.646378C10.1243 0.814988 10.6821 1.70508 10.5011 2.63446C10.3201 3.56384 9.46879 4.18057 8.59969 4.01196ZM2.08666 3.91264C1.21757 3.74403 0.659758 2.85393 0.840759 1.92456C1.02176 0.995177 1.87303 0.378451 2.74213 0.547061C3.61122 0.71567 4.16903 1.60577 3.98803 2.53514C3.80703 3.46452 2.95576 4.08125 2.08666 3.91264ZM15.1127 4.11128C14.2436 3.94267 13.6858 3.05257 13.8668 2.12319C14.0478 1.19381 14.8991 0.577087 15.7682 0.745696C16.6373 0.914306 17.1951 1.8044 17.0141 2.73378C16.8331 3.66316 15.9818 4.27988 15.1127 4.11128Z" fill="black"/>
</svg>
