<svg width="21" height="21" viewBox="0 0 21 21" fill="none" xmlns="http://www.w3.org/2000/svg">
<g clip-path="url(#clip0_615_3881)">
<path d="M18.1992 6.92665C18.4865 6.65667 18.4348 6.32669 18.0642 6.20369L16.737 5.73872C16.6494 5.7094 16.5685 5.66152 16.4994 5.59809C16.4303 5.53465 16.3744 5.45701 16.3353 5.37002C16.2962 5.28304 16.2747 5.18857 16.2722 5.09251C16.2696 4.99646 16.286 4.90089 16.3205 4.81177L16.8347 3.45285C16.9783 3.07187 16.7772 2.81389 16.3923 2.87988L15.0105 3.11087C14.9199 3.12743 14.827 3.12433 14.7376 3.10174C14.6482 3.07915 14.5642 3.03756 14.4909 2.97958C14.4176 2.92159 14.3565 2.84845 14.3114 2.76472C14.2664 2.68099 14.2384 2.58846 14.2291 2.4929L14.0768 1.03799C14.0366 0.633008 13.7436 0.501016 13.4304 0.738003L12.3129 1.61395C12.2397 1.67222 12.1558 1.71417 12.0664 1.73719C11.9771 1.76021 11.8841 1.76382 11.7933 1.74778C11.7026 1.73175 11.6159 1.69643 11.5388 1.64399C11.4616 1.59156 11.3956 1.52313 11.3448 1.44296L10.5634 0.24303C10.534 0.167033 10.4823 0.102743 10.4156 0.0594288C10.349 0.0161146 10.2709 -0.00398844 10.1926 0.00201705C10.1144 0.00802255 10.0399 0.0398275 9.98007 0.092846C9.92021 0.145864 9.87802 0.21736 9.85958 0.297027L9.25916 1.61695C9.22053 1.70399 9.16515 1.78178 9.09648 1.8455C9.02781 1.90922 8.94731 1.9575 8.86 1.98733C8.77269 2.01716 8.68043 2.0279 8.58897 2.01889C8.49751 2.00987 8.40881 1.9813 8.32838 1.93493L7.11033 1.23897C6.76559 1.04398 6.49842 1.21797 6.51278 1.62895L6.56737 3.08687C6.57185 3.18398 6.5569 3.28099 6.52345 3.37172C6.48999 3.46245 6.43877 3.54489 6.37307 3.61377C6.30738 3.68266 6.22863 3.73647 6.14189 3.77178C6.05514 3.80709 5.9623 3.82311 5.86929 3.81883H4.47024C4.07955 3.81883 3.91867 4.10081 4.11402 4.45479L4.81211 5.70572C4.85851 5.78897 4.88793 5.88133 4.89853 5.97701C4.90913 6.07269 4.90068 6.16962 4.8737 6.26173C4.84673 6.35384 4.80181 6.43914 4.74178 6.51226C4.68174 6.58538 4.60788 6.64476 4.52483 6.68667L3.28091 7.34963C3.20547 7.37111 3.13846 7.41696 3.08949 7.48062C3.04052 7.54428 3.01208 7.62249 3.00826 7.70405C3.00443 7.78561 3.02542 7.86634 3.06821 7.93469C3.11099 8.00304 3.17337 8.05551 3.24644 8.08459L4.42715 8.86755C4.50533 8.91818 4.57275 8.98503 4.62519 9.06396C4.67764 9.1429 4.714 9.23223 4.73205 9.32644C4.75009 9.42065 4.74942 9.51772 4.73008 9.61164C4.71074 9.70557 4.67316 9.79435 4.61963 9.87249L3.80951 11.0724C3.58256 11.4084 3.71758 11.7084 4.09679 11.7414L5.49008 11.8584C5.58198 11.8653 5.67155 11.8918 5.75323 11.9363C5.8349 11.9809 5.90694 12.0425 5.96486 12.1173C6.02278 12.1921 6.06536 12.2786 6.08993 12.3713C6.11451 12.464 6.12057 12.5611 6.10773 12.6563L5.92099 14.1053C5.86928 14.5102 6.12209 14.7052 6.49555 14.5492L7.78542 13.9793C7.86967 13.9403 7.96075 13.9201 8.05287 13.9198C8.14499 13.9194 8.23617 13.9391 8.32067 13.9774C8.40516 14.0157 8.48113 14.072 8.54377 14.1425C8.60641 14.213 8.65436 14.2964 8.6846 14.3872L9.16437 15.7582C9.29939 16.1421 9.61252 16.1991 9.85958 15.8812L10.7444 14.7502C10.8019 14.675 10.8738 14.6129 10.9553 14.568C11.0369 14.5231 11.1265 14.4963 11.2185 14.4893C11.3105 14.4822 11.4029 14.4951 11.4899 14.5271C11.5768 14.5591 11.6566 14.6095 11.724 14.6752L12.7582 15.6562C13.0455 15.9321 13.35 15.8272 13.4304 15.4282L13.7177 13.9973C13.7355 13.9029 13.7716 13.8134 13.8238 13.7342C13.8761 13.655 13.9433 13.5879 14.0214 13.537C14.0995 13.4861 14.1868 13.4525 14.2779 13.4382C14.369 13.424 14.4619 13.4295 14.5508 13.4543L15.9039 13.8203C16.2831 13.9223 16.5072 13.6853 16.398 13.2923L16.0159 11.8824C15.9897 11.7902 15.9819 11.6933 15.993 11.5978C16.004 11.5023 16.0338 11.4102 16.0804 11.3272C16.127 11.2442 16.1895 11.1721 16.2639 11.1154C16.3383 11.0587 16.423 11.0185 16.5129 10.9974L17.8746 10.6644C18.2567 10.5714 18.3458 10.2535 18.0757 9.95948L17.0961 8.91854C17.0313 8.85011 16.9808 8.7684 16.9478 8.67855C16.9147 8.5887 16.8999 8.49268 16.9042 8.39654C16.9085 8.30041 16.9319 8.20626 16.9729 8.12003C17.0138 8.03381 17.0714 7.95739 17.1421 7.8956L18.1992 6.92665Z" fill="#5C5D6F"/>
<path d="M16.5016 12.3565L16.8894 13.7574C16.9986 14.1534 16.7774 14.3904 16.3982 14.2854L15.0451 13.9194C14.9562 13.8946 14.8633 13.8891 14.7722 13.9033C14.6811 13.9176 14.5938 13.9512 14.5157 14.0021C14.4376 14.053 14.3703 14.1201 14.3181 14.1993C14.2659 14.2785 14.2297 14.368 14.212 14.4624L13.9707 15.6923L17.9323 20.276L18.2454 17.4832L21.0004 17.3872L16.4758 12.1465C16.4732 12.2175 16.4819 12.2885 16.5016 12.3565Z" fill="#5C5D6F"/>
<path d="M7.29398 14.531L6.00697 15.104C5.645 15.263 5.39219 15.062 5.43241 14.657L5.61915 13.2081C5.63198 13.1131 5.62602 13.0163 5.60162 12.9237C5.57721 12.8312 5.5349 12.7449 5.47728 12.6701C5.41967 12.5953 5.34797 12.5337 5.26663 12.4889C5.18529 12.4442 5.09603 12.4174 5.00437 12.4102H4.80327L0 16.9279L2.67743 17.2549L2.76936 20.1317L8.22764 15.002L8.20465 14.939C8.1746 14.8466 8.12629 14.7619 8.06283 14.6902C7.99938 14.6186 7.92221 14.5617 7.83633 14.5232C7.75045 14.4847 7.6578 14.4656 7.56436 14.4669C7.47092 14.4683 7.37881 14.4901 7.29398 14.531Z" fill="#5C5D6F"/>
</g>
<defs>
<clipPath id="clip0_615_3881">
<rect width="21" height="20.2759" fill="white"/>
</clipPath>
</defs>
</svg>
