<svg width="71" height="46" viewBox="0 0 71 46" fill="none" xmlns="http://www.w3.org/2000/svg">
<path d="M3.71227 42.9667H6.06227V43.8867H2.57227V36.9367H3.71227V42.9667ZM12.0656 40.9967C12.0656 41.2034 12.0523 41.3901 12.0256 41.5567H7.81563C7.84896 41.9967 8.01229 42.3501 8.30563 42.6167C8.59896 42.8834 8.95896 43.0167 9.38563 43.0167C9.99896 43.0167 10.4323 42.7601 10.6856 42.2467H11.9156C11.749 42.7534 11.4456 43.1701 11.0056 43.4967C10.5723 43.8167 10.0323 43.9767 9.38563 43.9767C8.85896 43.9767 8.38563 43.8601 7.96563 43.6267C7.55229 43.3867 7.22563 43.0534 6.98563 42.6267C6.75229 42.1934 6.63563 41.6934 6.63563 41.1267C6.63563 40.5601 6.74896 40.0634 6.97563 39.6367C7.20896 39.2034 7.53229 38.8701 7.94563 38.6367C8.36563 38.4034 8.84563 38.2867 9.38563 38.2867C9.90563 38.2867 10.369 38.4001 10.7756 38.6267C11.1823 38.8534 11.499 39.1734 11.7256 39.5867C11.9523 39.9934 12.0656 40.4634 12.0656 40.9967ZM10.8756 40.6367C10.869 40.2167 10.719 39.8801 10.4256 39.6267C10.1323 39.3734 9.76896 39.2467 9.33563 39.2467C8.94229 39.2467 8.60563 39.3734 8.32563 39.6267C8.04563 39.8734 7.87896 40.2101 7.82563 40.6367H10.8756ZM12.8075 41.1067C12.8075 40.5534 12.9208 40.0634 13.1475 39.6367C13.3808 39.2101 13.6942 38.8801 14.0875 38.6467C14.4875 38.4067 14.9275 38.2867 15.4075 38.2867C15.8408 38.2867 16.2175 38.3734 16.5375 38.5467C16.8642 38.7134 17.1242 38.9234 17.3175 39.1767V38.3767H18.4675V43.8867H17.3175V43.0667C17.1242 43.3267 16.8608 43.5434 16.5275 43.7167C16.1942 43.8901 15.8142 43.9767 15.3875 43.9767C14.9142 43.9767 14.4808 43.8567 14.0875 43.6167C13.6942 43.3701 13.3808 43.0301 13.1475 42.5967C12.9208 42.1567 12.8075 41.6601 12.8075 41.1067ZM17.3175 41.1267C17.3175 40.7467 17.2375 40.4167 17.0775 40.1367C16.9242 39.8567 16.7208 39.6434 16.4675 39.4967C16.2142 39.3501 15.9408 39.2767 15.6475 39.2767C15.3542 39.2767 15.0808 39.3501 14.8275 39.4967C14.5742 39.6367 14.3675 39.8467 14.2075 40.1267C14.0542 40.4001 13.9775 40.7267 13.9775 41.1067C13.9775 41.4867 14.0542 41.8201 14.2075 42.1067C14.3675 42.3934 14.5742 42.6134 14.8275 42.7667C15.0875 42.9134 15.3608 42.9867 15.6475 42.9867C15.9408 42.9867 16.2142 42.9134 16.4675 42.7667C16.7208 42.6201 16.9242 42.4067 17.0775 42.1267C17.2375 41.8401 17.3175 41.5067 17.3175 41.1267ZM19.5848 41.1067C19.5848 40.5534 19.6982 40.0634 19.9248 39.6367C20.1582 39.2101 20.4715 38.8801 20.8648 38.6467C21.2648 38.4067 21.7082 38.2867 22.1948 38.2867C22.5548 38.2867 22.9082 38.3667 23.2548 38.5267C23.6082 38.6801 23.8882 38.8867 24.0948 39.1467V36.4867H25.2448V43.8867H24.0948V43.0567C23.9082 43.3234 23.6482 43.5434 23.3148 43.7167C22.9882 43.8901 22.6115 43.9767 22.1848 43.9767C21.7048 43.9767 21.2648 43.8567 20.8648 43.6167C20.4715 43.3701 20.1582 43.0301 19.9248 42.5967C19.6982 42.1567 19.5848 41.6601 19.5848 41.1067ZM24.0948 41.1267C24.0948 40.7467 24.0148 40.4167 23.8548 40.1367C23.7015 39.8567 23.4982 39.6434 23.2448 39.4967C22.9915 39.3501 22.7182 39.2767 22.4248 39.2767C22.1315 39.2767 21.8582 39.3501 21.6048 39.4967C21.3515 39.6367 21.1448 39.8467 20.9848 40.1267C20.8315 40.4001 20.7548 40.7267 20.7548 41.1067C20.7548 41.4867 20.8315 41.8201 20.9848 42.1067C21.1448 42.3934 21.3515 42.6134 21.6048 42.7667C21.8648 42.9134 22.1382 42.9867 22.4248 42.9867C22.7182 42.9867 22.9915 42.9134 23.2448 42.7667C23.4982 42.6201 23.7015 42.4067 23.8548 42.1267C24.0148 41.8401 24.0948 41.5067 24.0948 41.1267ZM31.7922 40.9967C31.7922 41.2034 31.7789 41.3901 31.7522 41.5567H27.5422C27.5755 41.9967 27.7389 42.3501 28.0322 42.6167C28.3255 42.8834 28.6855 43.0167 29.1122 43.0167C29.7255 43.0167 30.1589 42.7601 30.4122 42.2467H31.6422C31.4755 42.7534 31.1722 43.1701 30.7322 43.4967C30.2989 43.8167 29.7589 43.9767 29.1122 43.9767C28.5855 43.9767 28.1122 43.8601 27.6922 43.6267C27.2789 43.3867 26.9522 43.0534 26.7122 42.6267C26.4789 42.1934 26.3622 41.6934 26.3622 41.1267C26.3622 40.5601 26.4755 40.0634 26.7022 39.6367C26.9355 39.2034 27.2589 38.8701 27.6722 38.6367C28.0922 38.4034 28.5722 38.2867 29.1122 38.2867C29.6322 38.2867 30.0955 38.4001 30.5022 38.6267C30.9089 38.8534 31.2255 39.1734 31.4522 39.5867C31.6789 39.9934 31.7922 40.4634 31.7922 40.9967ZM30.6022 40.6367C30.5955 40.2167 30.4455 39.8801 30.1522 39.6267C29.8589 39.3734 29.4955 39.2467 29.0622 39.2467C28.6689 39.2467 28.3322 39.3734 28.0522 39.6267C27.7722 39.8734 27.6055 40.2101 27.5522 40.6367H30.6022ZM34.0541 39.1767C34.2207 38.8967 34.4407 38.6801 34.7141 38.5267C34.9941 38.3667 35.3241 38.2867 35.7041 38.2867V39.4667H35.4141C34.9674 39.4667 34.6274 39.5801 34.3941 39.8067C34.1674 40.0334 34.0541 40.4267 34.0541 40.9867V43.8867H32.9141V38.3767H34.0541V39.1767ZM40.4896 39.1967C40.6829 38.9301 40.9463 38.7134 41.2796 38.5467C41.6196 38.3734 41.9963 38.2867 42.4096 38.2867C42.8963 38.2867 43.3363 38.4034 43.7296 38.6367C44.1229 38.8701 44.4329 39.2034 44.6596 39.6367C44.8863 40.0634 44.9996 40.5534 44.9996 41.1067C44.9996 41.6601 44.8863 42.1567 44.6596 42.5967C44.4329 43.0301 44.1196 43.3701 43.7196 43.6167C43.3263 43.8567 42.8896 43.9767 42.4096 43.9767C41.9829 43.9767 41.6029 43.8934 41.2696 43.7267C40.9429 43.5601 40.6829 43.3467 40.4896 43.0867V43.8867H39.3496V36.4867H40.4896V39.1967ZM43.8396 41.1067C43.8396 40.7267 43.7596 40.4001 43.5996 40.1267C43.4463 39.8467 43.2396 39.6367 42.9796 39.4967C42.7263 39.3501 42.4529 39.2767 42.1596 39.2767C41.8729 39.2767 41.5996 39.3501 41.3396 39.4967C41.0863 39.6434 40.8796 39.8567 40.7196 40.1367C40.5663 40.4167 40.4896 40.7467 40.4896 41.1267C40.4896 41.5067 40.5663 41.8401 40.7196 42.1267C40.8796 42.4067 41.0863 42.6201 41.3396 42.7667C41.5996 42.9134 41.8729 42.9867 42.1596 42.9867C42.4529 42.9867 42.7263 42.9134 42.9796 42.7667C43.2396 42.6134 43.4463 42.3934 43.5996 42.1067C43.7596 41.8201 43.8396 41.4867 43.8396 41.1067ZM48.517 43.9767C47.997 43.9767 47.527 43.8601 47.107 43.6267C46.687 43.3867 46.357 43.0534 46.117 42.6267C45.877 42.1934 45.757 41.6934 45.757 41.1267C45.757 40.5667 45.8803 40.0701 46.127 39.6367C46.3736 39.2034 46.7103 38.8701 47.137 38.6367C47.5636 38.4034 48.0403 38.2867 48.567 38.2867C49.0936 38.2867 49.5703 38.4034 49.997 38.6367C50.4236 38.8701 50.7603 39.2034 51.007 39.6367C51.2536 40.0701 51.377 40.5667 51.377 41.1267C51.377 41.6867 51.2503 42.1834 50.997 42.6167C50.7436 43.0501 50.397 43.3867 49.957 43.6267C49.5236 43.8601 49.0436 43.9767 48.517 43.9767ZM48.517 42.9867C48.8103 42.9867 49.0836 42.9167 49.337 42.7767C49.597 42.6367 49.807 42.4267 49.967 42.1467C50.127 41.8667 50.207 41.5267 50.207 41.1267C50.207 40.7267 50.1303 40.3901 49.977 40.1167C49.8236 39.8367 49.6203 39.6267 49.367 39.4867C49.1136 39.3467 48.8403 39.2767 48.547 39.2767C48.2536 39.2767 47.9803 39.3467 47.727 39.4867C47.4803 39.6267 47.2836 39.8367 47.137 40.1167C46.9903 40.3901 46.917 40.7267 46.917 41.1267C46.917 41.7201 47.067 42.1801 47.367 42.5067C47.6736 42.8267 48.057 42.9867 48.517 42.9867ZM52.1239 41.1067C52.1239 40.5534 52.2372 40.0634 52.4639 39.6367C52.6972 39.2101 53.0106 38.8801 53.4039 38.6467C53.8039 38.4067 54.2439 38.2867 54.7239 38.2867C55.1572 38.2867 55.5339 38.3734 55.8539 38.5467C56.1806 38.7134 56.4406 38.9234 56.6339 39.1767V38.3767H57.7839V43.8867H56.6339V43.0667C56.4406 43.3267 56.1772 43.5434 55.8439 43.7167C55.5106 43.8901 55.1306 43.9767 54.7039 43.9767C54.2306 43.9767 53.7972 43.8567 53.4039 43.6167C53.0106 43.3701 52.6972 43.0301 52.4639 42.5967C52.2372 42.1567 52.1239 41.6601 52.1239 41.1067ZM56.6339 41.1267C56.6339 40.7467 56.5539 40.4167 56.3939 40.1367C56.2406 39.8567 56.0372 39.6434 55.7839 39.4967C55.5306 39.3501 55.2572 39.2767 54.9639 39.2767C54.6706 39.2767 54.3972 39.3501 54.1439 39.4967C53.8906 39.6367 53.6839 39.8467 53.5239 40.1267C53.3706 40.4001 53.2939 40.7267 53.2939 41.1067C53.2939 41.4867 53.3706 41.8201 53.5239 42.1067C53.6839 42.3934 53.8906 42.6134 54.1439 42.7667C54.4039 42.9134 54.6772 42.9867 54.9639 42.9867C55.2572 42.9867 55.5306 42.9134 55.7839 42.7667C56.0372 42.6201 56.2406 42.4067 56.3939 42.1267C56.5539 41.8401 56.6339 41.5067 56.6339 41.1267ZM60.4213 39.1767C60.5879 38.8967 60.8079 38.6801 61.0813 38.5267C61.3613 38.3667 61.6913 38.2867 62.0713 38.2867V39.4667H61.7813C61.3346 39.4667 60.9946 39.5801 60.7613 39.8067C60.5346 40.0334 60.4213 40.4267 60.4213 40.9867V43.8867H59.2813V38.3767H60.4213V39.1767ZM62.7391 41.1067C62.7391 40.5534 62.8525 40.0634 63.0791 39.6367C63.3125 39.2101 63.6258 38.8801 64.0191 38.6467C64.4191 38.4067 64.8625 38.2867 65.3491 38.2867C65.7091 38.2867 66.0625 38.3667 66.4091 38.5267C66.7625 38.6801 67.0425 38.8867 67.2491 39.1467V36.4867H68.3991V43.8867H67.2491V43.0567C67.0625 43.3234 66.8025 43.5434 66.4691 43.7167C66.1425 43.8901 65.7658 43.9767 65.3391 43.9767C64.8591 43.9767 64.4191 43.8567 64.0191 43.6167C63.6258 43.3701 63.3125 43.0301 63.0791 42.5967C62.8525 42.1567 62.7391 41.6601 62.7391 41.1067ZM67.2491 41.1267C67.2491 40.7467 67.1691 40.4167 67.0091 40.1367C66.8558 39.8567 66.6525 39.6434 66.3991 39.4967C66.1458 39.3501 65.8725 39.2767 65.5791 39.2767C65.2858 39.2767 65.0125 39.3501 64.7591 39.4967C64.5058 39.6367 64.2991 39.8467 64.1391 40.1267C63.9858 40.4001 63.9091 40.7267 63.9091 41.1067C63.9091 41.4867 63.9858 41.8201 64.1391 42.1067C64.2991 42.3934 64.5058 42.6134 64.7591 42.7667C65.0191 42.9134 65.2925 42.9867 65.5791 42.9867C65.8725 42.9867 66.1458 42.9134 66.3991 42.7667C66.6525 42.6201 66.8558 42.4067 67.0091 42.1267C67.1691 41.8401 67.2491 41.5067 67.2491 41.1267Z" fill="#C4C4C4"/>
<path fill-rule="evenodd" clip-rule="evenodd" d="M30.9226 0.483722C30.8135 0.527783 30.7371 0.828492 30.7371 1.21376V1.86903H29.4125C28.3647 1.86903 28.0353 1.92155 27.8363 2.12078C27.6269 2.33011 27.6007 2.54596 27.6805 3.40462C27.7333 3.97221 27.9042 4.72569 28.0606 5.07892C28.2168 5.43214 28.5179 5.9484 28.7296 6.22597C28.9415 6.50368 29.3638 6.90349 29.6684 7.1146C29.973 7.3257 30.6135 7.63294 31.092 7.79761C31.5875 7.96806 32.2248 8.33716 32.5733 8.65567C32.9097 8.96306 33.4757 9.34417 33.831 9.50261C34.4613 9.78374 34.4751 9.8048 34.3992 10.3712C34.3514 10.727 34.1614 11.1186 33.9078 11.3833C33.6543 11.6479 33.2765 11.8497 32.9315 11.9049L32.369 11.9949V12.7948V13.5947L35.5215 13.5547L38.6739 13.5146L38.7192 12.8085C38.7502 12.325 38.7035 12.0832 38.5708 12.0419C38.4643 12.0089 38.1851 11.9393 37.9503 11.8875C37.7154 11.8357 37.3315 11.6016 37.0973 11.3674C36.7743 11.0444 36.6712 10.8019 36.6712 10.365C36.6712 9.83225 36.7175 9.76831 37.2837 9.51849C37.6208 9.36984 38.1513 8.99332 38.4628 8.68178C38.8098 8.33479 39.2762 8.05025 39.6674 7.94715C40.0186 7.85457 40.5785 7.62107 40.9117 7.42836C41.2449 7.2355 41.7697 6.79846 42.078 6.45725C42.3864 6.11589 42.7702 5.53925 42.931 5.17579C43.0918 4.81218 43.2607 4.02132 43.3064 3.41797C43.3648 2.64521 43.3338 2.25445 43.2016 2.09512C43.0594 1.92362 42.6959 1.86903 41.697 1.86903H40.38V1.41418C40.38 1.16406 40.3108 0.830272 40.2264 0.672426C40.0796 0.398124 39.8766 0.385959 35.5904 0.397233C33.1251 0.403613 31.0246 0.442629 30.9226 0.483722ZM30.7402 3.83469C30.7419 4.09994 30.835 4.75076 30.947 5.28112C31.059 5.81148 31.135 6.26261 31.116 6.28353C31.0969 6.30445 30.8123 6.12687 30.4837 5.88891C30.1455 5.64384 29.7559 5.17683 29.5858 4.81233C29.4205 4.45821 29.2435 3.98482 29.1925 3.76051C29.0998 3.35359 29.1015 3.35255 29.9184 3.35255H30.7371L30.7402 3.83469ZM41.6913 3.97859C41.614 4.32291 41.414 4.82583 41.2468 5.09627C41.0798 5.36657 40.7034 5.75065 40.4104 5.94974C40.1174 6.14883 39.8621 6.29629 39.8432 6.2773C39.8243 6.25846 39.9029 5.84293 40.0179 5.35411C40.133 4.86514 40.2281 4.21491 40.2293 3.90887L40.2316 3.35255H41.0318H41.8319L41.6913 3.97859ZM29.1053 15.6657C28.835 15.936 28.8086 16.1602 28.8086 18.1877V20.413H25.5745C23.2569 20.413 22.29 20.4634 22.1624 20.591C22.0333 20.7201 21.9844 21.7943 21.9844 24.4927C21.9844 27.191 22.0333 28.2652 22.1624 28.3943C22.2981 28.53 25.4591 28.5723 35.4844 28.5723C45.5097 28.5723 48.6706 28.53 48.8064 28.3943C48.9354 28.2652 48.9844 27.191 48.9844 24.4927C48.9844 21.7943 48.9354 20.7201 48.8064 20.591C48.6788 20.4634 47.7118 20.413 45.3943 20.413H42.1602V18.1877C42.1602 16.1602 42.1338 15.936 41.8635 15.6657C41.5764 15.3787 41.369 15.369 35.4844 15.369C29.5997 15.369 29.3923 15.3787 29.1053 15.6657ZM36.2285 19.7269C36.4644 20.247 36.766 20.7143 36.8989 20.7653C37.0318 20.8164 37.4064 20.858 37.7316 20.858C38.0566 20.858 38.4517 20.9272 38.6096 21.0116C38.7674 21.0961 38.8978 21.2797 38.8994 21.4196C38.9011 21.5594 38.5631 21.9744 38.1483 22.3416L37.3944 23.0091L37.5484 23.6767C37.6331 24.0439 37.704 24.5557 37.7061 24.8141C37.708 25.0724 37.6263 25.3154 37.5242 25.354C37.4223 25.3926 36.9222 25.1994 36.4132 24.925L35.4876 24.4259L34.6081 24.9414C34.1044 25.2366 33.6281 25.4185 33.4938 25.3669C33.3647 25.3173 33.2591 25.1203 33.2591 24.9291C33.2591 24.7379 33.3348 24.2289 33.4272 23.7979L33.5951 23.0143L32.8338 22.3324C32.415 21.9573 32.0723 21.5372 32.0723 21.3989C32.0723 21.2605 32.2435 21.0823 32.4528 21.0027C32.6621 20.9232 33.0833 20.858 33.3888 20.858C33.6942 20.858 34.0549 20.7747 34.19 20.6726C34.3253 20.5707 34.6042 20.1032 34.81 19.6341C35.0924 18.9898 35.2593 18.7811 35.4918 18.7811C35.7263 18.7811 35.9018 19.0063 36.2285 19.7269Z" fill="#C4C4C4"/>
</svg>
