<svg width="71" height="46" viewBox="0 0 71 46" fill="none" xmlns="http://www.w3.org/2000/svg">
<path d="M3.97789 42.9667H6.32789V43.8867H2.83789V36.9367H3.97789V42.9667ZM12.3313 40.9967C12.3313 41.2034 12.3179 41.3901 12.2913 41.5567H8.08125C8.11458 41.9967 8.27792 42.3501 8.57125 42.6167C8.86458 42.8834 9.22458 43.0167 9.65125 43.0167C10.2646 43.0167 10.6979 42.7601 10.9513 42.2467H12.1812C12.0146 42.7534 11.7113 43.1701 11.2713 43.4967C10.8379 43.8167 10.2979 43.9767 9.65125 43.9767C9.12458 43.9767 8.65125 43.8601 8.23125 43.6267C7.81792 43.3867 7.49125 43.0534 7.25125 42.6267C7.01792 42.1934 6.90125 41.6934 6.90125 41.1267C6.90125 40.5601 7.01458 40.0634 7.24125 39.6367C7.47458 39.2034 7.79792 38.8701 8.21125 38.6367C8.63125 38.4034 9.11125 38.2867 9.65125 38.2867C10.1713 38.2867 10.6346 38.4001 11.0413 38.6267C11.4479 38.8534 11.7646 39.1734 11.9913 39.5867C12.2179 39.9934 12.3313 40.4634 12.3313 40.9967ZM11.1413 40.6367C11.1346 40.2167 10.9846 39.8801 10.6913 39.6267C10.3979 39.3734 10.0346 39.2467 9.60125 39.2467C9.20792 39.2467 8.87125 39.3734 8.59125 39.6267C8.31125 39.8734 8.14458 40.2101 8.09125 40.6367H11.1413ZM13.0731 41.1067C13.0731 40.5534 13.1865 40.0634 13.4131 39.6367C13.6465 39.2101 13.9598 38.8801 14.3531 38.6467C14.7531 38.4067 15.1931 38.2867 15.6731 38.2867C16.1065 38.2867 16.4831 38.3734 16.8031 38.5467C17.1298 38.7134 17.3898 38.9234 17.5831 39.1767V38.3767H18.7331V43.8867H17.5831V43.0667C17.3898 43.3267 17.1265 43.5434 16.7931 43.7167C16.4598 43.8901 16.0798 43.9767 15.6531 43.9767C15.1798 43.9767 14.7465 43.8567 14.3531 43.6167C13.9598 43.3701 13.6465 43.0301 13.4131 42.5967C13.1865 42.1567 13.0731 41.6601 13.0731 41.1067ZM17.5831 41.1267C17.5831 40.7467 17.5031 40.4167 17.3431 40.1367C17.1898 39.8567 16.9865 39.6434 16.7331 39.4967C16.4798 39.3501 16.2065 39.2767 15.9131 39.2767C15.6198 39.2767 15.3465 39.3501 15.0931 39.4967C14.8398 39.6367 14.6331 39.8467 14.4731 40.1267C14.3198 40.4001 14.2431 40.7267 14.2431 41.1067C14.2431 41.4867 14.3198 41.8201 14.4731 42.1067C14.6331 42.3934 14.8398 42.6134 15.0931 42.7667C15.3531 42.9134 15.6265 42.9867 15.9131 42.9867C16.2065 42.9867 16.4798 42.9134 16.7331 42.7667C16.9865 42.6201 17.1898 42.4067 17.3431 42.1267C17.5031 41.8401 17.5831 41.5067 17.5831 41.1267ZM19.8505 41.1067C19.8505 40.5534 19.9638 40.0634 20.1905 39.6367C20.4238 39.2101 20.7371 38.8801 21.1305 38.6467C21.5305 38.4067 21.9738 38.2867 22.4605 38.2867C22.8205 38.2867 23.1738 38.3667 23.5205 38.5267C23.8738 38.6801 24.1538 38.8867 24.3605 39.1467V36.4867H25.5105V43.8867H24.3605V43.0567C24.1738 43.3234 23.9138 43.5434 23.5805 43.7167C23.2538 43.8901 22.8771 43.9767 22.4505 43.9767C21.9705 43.9767 21.5305 43.8567 21.1305 43.6167C20.7371 43.3701 20.4238 43.0301 20.1905 42.5967C19.9638 42.1567 19.8505 41.6601 19.8505 41.1067ZM24.3605 41.1267C24.3605 40.7467 24.2805 40.4167 24.1205 40.1367C23.9671 39.8567 23.7638 39.6434 23.5105 39.4967C23.2571 39.3501 22.9838 39.2767 22.6905 39.2767C22.3971 39.2767 22.1238 39.3501 21.8705 39.4967C21.6171 39.6367 21.4105 39.8467 21.2505 40.1267C21.0971 40.4001 21.0205 40.7267 21.0205 41.1067C21.0205 41.4867 21.0971 41.8201 21.2505 42.1067C21.4105 42.3934 21.6171 42.6134 21.8705 42.7667C22.1305 42.9134 22.4038 42.9867 22.6905 42.9867C22.9838 42.9867 23.2571 42.9134 23.5105 42.7667C23.7638 42.6201 23.9671 42.4067 24.1205 42.1267C24.2805 41.8401 24.3605 41.5067 24.3605 41.1267ZM32.0578 40.9967C32.0578 41.2034 32.0445 41.3901 32.0178 41.5567H27.8078C27.8411 41.9967 28.0045 42.3501 28.2978 42.6167C28.5911 42.8834 28.9511 43.0167 29.3778 43.0167C29.9911 43.0167 30.4245 42.7601 30.6778 42.2467H31.9078C31.7411 42.7534 31.4378 43.1701 30.9978 43.4967C30.5645 43.8167 30.0245 43.9767 29.3778 43.9767C28.8511 43.9767 28.3778 43.8601 27.9578 43.6267C27.5445 43.3867 27.2178 43.0534 26.9778 42.6267C26.7445 42.1934 26.6278 41.6934 26.6278 41.1267C26.6278 40.5601 26.7411 40.0634 26.9678 39.6367C27.2011 39.2034 27.5245 38.8701 27.9378 38.6367C28.3578 38.4034 28.8378 38.2867 29.3778 38.2867C29.8978 38.2867 30.3611 38.4001 30.7678 38.6267C31.1745 38.8534 31.4911 39.1734 31.7178 39.5867C31.9445 39.9934 32.0578 40.4634 32.0578 40.9967ZM30.8678 40.6367C30.8611 40.2167 30.7111 39.8801 30.4178 39.6267C30.1245 39.3734 29.7611 39.2467 29.3278 39.2467C28.9345 39.2467 28.5978 39.3734 28.3178 39.6267C28.0378 39.8734 27.8711 40.2101 27.8178 40.6367H30.8678ZM34.3197 39.1767C34.4864 38.8967 34.7064 38.6801 34.9797 38.5267C35.2597 38.3667 35.5897 38.2867 35.9697 38.2867V39.4667H35.6797C35.233 39.4667 34.893 39.5801 34.6597 39.8067C34.433 40.0334 34.3197 40.4267 34.3197 40.9867V43.8867H33.1797V38.3767H34.3197V39.1767ZM40.7552 39.1967C40.9486 38.9301 41.2119 38.7134 41.5452 38.5467C41.8852 38.3734 42.2619 38.2867 42.6752 38.2867C43.1619 38.2867 43.6019 38.4034 43.9952 38.6367C44.3886 38.8701 44.6986 39.2034 44.9252 39.6367C45.1519 40.0634 45.2652 40.5534 45.2652 41.1067C45.2652 41.6601 45.1519 42.1567 44.9252 42.5967C44.6986 43.0301 44.3852 43.3701 43.9852 43.6167C43.5919 43.8567 43.1552 43.9767 42.6752 43.9767C42.2486 43.9767 41.8686 43.8934 41.5352 43.7267C41.2086 43.5601 40.9486 43.3467 40.7552 43.0867V43.8867H39.6152V36.4867H40.7552V39.1967ZM44.1052 41.1067C44.1052 40.7267 44.0252 40.4001 43.8652 40.1267C43.7119 39.8467 43.5052 39.6367 43.2452 39.4967C42.9919 39.3501 42.7186 39.2767 42.4252 39.2767C42.1386 39.2767 41.8652 39.3501 41.6052 39.4967C41.3519 39.6434 41.1452 39.8567 40.9852 40.1367C40.8319 40.4167 40.7552 40.7467 40.7552 41.1267C40.7552 41.5067 40.8319 41.8401 40.9852 42.1267C41.1452 42.4067 41.3519 42.6201 41.6052 42.7667C41.8652 42.9134 42.1386 42.9867 42.4252 42.9867C42.7186 42.9867 42.9919 42.9134 43.2452 42.7667C43.5052 42.6134 43.7119 42.3934 43.8652 42.1067C44.0252 41.8201 44.1052 41.4867 44.1052 41.1067ZM48.7826 43.9767C48.2626 43.9767 47.7926 43.8601 47.3726 43.6267C46.9526 43.3867 46.6226 43.0534 46.3826 42.6267C46.1426 42.1934 46.0226 41.6934 46.0226 41.1267C46.0226 40.5667 46.1459 40.0701 46.3926 39.6367C46.6392 39.2034 46.9759 38.8701 47.4026 38.6367C47.8292 38.4034 48.3059 38.2867 48.8326 38.2867C49.3592 38.2867 49.8359 38.4034 50.2626 38.6367C50.6892 38.8701 51.0259 39.2034 51.2726 39.6367C51.5192 40.0701 51.6426 40.5667 51.6426 41.1267C51.6426 41.6867 51.5159 42.1834 51.2626 42.6167C51.0092 43.0501 50.6626 43.3867 50.2226 43.6267C49.7892 43.8601 49.3092 43.9767 48.7826 43.9767ZM48.7826 42.9867C49.0759 42.9867 49.3492 42.9167 49.6026 42.7767C49.8626 42.6367 50.0726 42.4267 50.2326 42.1467C50.3926 41.8667 50.4726 41.5267 50.4726 41.1267C50.4726 40.7267 50.3959 40.3901 50.2426 40.1167C50.0892 39.8367 49.8859 39.6267 49.6326 39.4867C49.3792 39.3467 49.1059 39.2767 48.8126 39.2767C48.5192 39.2767 48.2459 39.3467 47.9926 39.4867C47.7459 39.6267 47.5492 39.8367 47.4026 40.1167C47.2559 40.3901 47.1826 40.7267 47.1826 41.1267C47.1826 41.7201 47.3326 42.1801 47.6326 42.5067C47.9392 42.8267 48.3226 42.9867 48.7826 42.9867ZM52.3895 41.1067C52.3895 40.5534 52.5029 40.0634 52.7295 39.6367C52.9629 39.2101 53.2762 38.8801 53.6695 38.6467C54.0695 38.4067 54.5095 38.2867 54.9895 38.2867C55.4229 38.2867 55.7995 38.3734 56.1195 38.5467C56.4462 38.7134 56.7062 38.9234 56.8995 39.1767V38.3767H58.0495V43.8867H56.8995V43.0667C56.7062 43.3267 56.4429 43.5434 56.1095 43.7167C55.7762 43.8901 55.3962 43.9767 54.9695 43.9767C54.4962 43.9767 54.0629 43.8567 53.6695 43.6167C53.2762 43.3701 52.9629 43.0301 52.7295 42.5967C52.5029 42.1567 52.3895 41.6601 52.3895 41.1067ZM56.8995 41.1267C56.8995 40.7467 56.8195 40.4167 56.6595 40.1367C56.5062 39.8567 56.3029 39.6434 56.0495 39.4967C55.7962 39.3501 55.5229 39.2767 55.2295 39.2767C54.9362 39.2767 54.6629 39.3501 54.4095 39.4967C54.1562 39.6367 53.9495 39.8467 53.7895 40.1267C53.6362 40.4001 53.5595 40.7267 53.5595 41.1067C53.5595 41.4867 53.6362 41.8201 53.7895 42.1067C53.9495 42.3934 54.1562 42.6134 54.4095 42.7667C54.6695 42.9134 54.9429 42.9867 55.2295 42.9867C55.5229 42.9867 55.7962 42.9134 56.0495 42.7667C56.3029 42.6201 56.5062 42.4067 56.6595 42.1267C56.8195 41.8401 56.8995 41.5067 56.8995 41.1267ZM60.6869 39.1767C60.8535 38.8967 61.0735 38.6801 61.3469 38.5267C61.6269 38.3667 61.9569 38.2867 62.3369 38.2867V39.4667H62.0469C61.6002 39.4667 61.2602 39.5801 61.0269 39.8067C60.8002 40.0334 60.6869 40.4267 60.6869 40.9867V43.8867H59.5469V38.3767H60.6869V39.1767ZM63.0048 41.1067C63.0048 40.5534 63.1181 40.0634 63.3448 39.6367C63.5781 39.2101 63.8914 38.8801 64.2848 38.6467C64.6848 38.4067 65.1281 38.2867 65.6148 38.2867C65.9748 38.2867 66.3281 38.3667 66.6748 38.5267C67.0281 38.6801 67.3081 38.8867 67.5148 39.1467V36.4867H68.6648V43.8867H67.5148V43.0567C67.3281 43.3234 67.0681 43.5434 66.7348 43.7167C66.4081 43.8901 66.0314 43.9767 65.6048 43.9767C65.1248 43.9767 64.6848 43.8567 64.2848 43.6167C63.8914 43.3701 63.5781 43.0301 63.3448 42.5967C63.1181 42.1567 63.0048 41.6601 63.0048 41.1067ZM67.5148 41.1267C67.5148 40.7467 67.4348 40.4167 67.2748 40.1367C67.1214 39.8567 66.9181 39.6434 66.6648 39.4967C66.4114 39.3501 66.1381 39.2767 65.8448 39.2767C65.5514 39.2767 65.2781 39.3501 65.0248 39.4967C64.7714 39.6367 64.5648 39.8467 64.4048 40.1267C64.2514 40.4001 64.1748 40.7267 64.1748 41.1067C64.1748 41.4867 64.2514 41.8201 64.4048 42.1067C64.5648 42.3934 64.7714 42.6134 65.0248 42.7667C65.2848 42.9134 65.5581 42.9867 65.8448 42.9867C66.1381 42.9867 66.4114 42.9134 66.6648 42.7667C66.9181 42.6201 67.1214 42.4067 67.2748 42.1267C67.4348 41.8401 67.5148 41.5067 67.5148 41.1267Z" fill="#2A8981"/>
<path fill-rule="evenodd" clip-rule="evenodd" d="M31.1882 0.483722C31.0791 0.527783 31.0027 0.828492 31.0027 1.21376V1.86903H29.6781C28.6303 1.86903 28.301 1.92155 28.1019 2.12078C27.8926 2.33011 27.8663 2.54596 27.9461 3.40462C27.9989 3.97221 28.1698 4.72569 28.3262 5.07892C28.4824 5.43214 28.7836 5.9484 28.9953 6.22597C29.2071 6.50368 29.6295 6.90349 29.934 7.1146C30.2386 7.3257 30.8792 7.63294 31.3576 7.79761C31.8531 7.96806 32.4904 8.33716 32.8389 8.65567C33.1754 8.96306 33.7413 9.34417 34.0966 9.50261C34.727 9.78374 34.7408 9.8048 34.6648 10.3712C34.617 10.727 34.427 11.1186 34.1735 11.3833C33.9199 11.6479 33.5421 11.8497 33.1972 11.9049L32.6346 11.9949V12.7948V13.5947L35.7871 13.5547L38.9396 13.5146L38.9848 12.8085C39.0158 12.325 38.9691 12.0832 38.8365 12.0419C38.7299 12.0089 38.4507 11.9393 38.2159 11.8875C37.9811 11.8357 37.5971 11.6016 37.3629 11.3674C37.0399 11.0444 36.9368 10.8019 36.9368 10.365C36.9368 9.83225 36.9831 9.76831 37.5494 9.51849C37.8864 9.36984 38.4169 8.99332 38.7285 8.68178C39.0755 8.33479 39.5419 8.05025 39.9331 7.94715C40.2842 7.85457 40.8441 7.62107 41.1773 7.42836C41.5105 7.2355 42.0354 6.79846 42.3436 6.45725C42.6521 6.11589 43.0358 5.53925 43.1967 5.17579C43.3575 4.81218 43.5263 4.02132 43.572 3.41797C43.6304 2.64521 43.5994 2.25445 43.4673 2.09512C43.325 1.92362 42.9615 1.86903 41.9627 1.86903H40.6456V1.41418C40.6456 1.16406 40.5765 0.830272 40.4921 0.672426C40.3452 0.398124 40.1422 0.385959 35.8561 0.397233C33.3908 0.403613 31.2903 0.442629 31.1882 0.483722ZM31.0059 3.83469C31.0075 4.09994 31.1007 4.75076 31.2127 5.28112C31.3247 5.81148 31.4006 6.26261 31.3816 6.28353C31.3625 6.30445 31.078 6.12687 30.7494 5.88891C30.4111 5.64384 30.0215 5.17683 29.8514 4.81233C29.6861 4.45821 29.5091 3.98482 29.4581 3.76051C29.3654 3.35359 29.3672 3.35255 30.184 3.35255H31.0027L31.0059 3.83469ZM41.9569 3.97859C41.8796 4.32291 41.6796 4.82583 41.5124 5.09627C41.3454 5.36657 40.969 5.75065 40.676 5.94974C40.383 6.14883 40.1277 6.29629 40.1089 6.2773C40.0899 6.25846 40.1685 5.84293 40.2835 5.35411C40.3986 4.86514 40.4937 4.21491 40.4949 3.90887L40.4973 3.35255H41.2975H42.0975L41.9569 3.97859ZM29.3709 15.6657C29.1006 15.936 29.0742 16.1602 29.0742 18.1877V20.413H25.8401C23.5226 20.413 22.5556 20.4634 22.428 20.591C22.299 20.7201 22.25 21.7943 22.25 24.4927C22.25 27.191 22.299 28.2652 22.428 28.3943C22.5638 28.53 25.7247 28.5723 35.75 28.5723C45.7753 28.5723 48.9362 28.53 49.072 28.3943C49.201 28.2652 49.25 27.191 49.25 24.4927C49.25 21.7943 49.201 20.7201 49.072 20.591C48.9444 20.4634 47.9774 20.413 45.6599 20.413H42.4258V18.1877C42.4258 16.1602 42.3994 15.936 42.1291 15.6657C41.8421 15.3787 41.6347 15.369 35.75 15.369C29.8653 15.369 29.6579 15.3787 29.3709 15.6657ZM36.4941 19.7269C36.73 20.247 37.0316 20.7143 37.1645 20.7653C37.2975 20.8164 37.672 20.858 37.9972 20.858C38.3223 20.858 38.7173 20.9272 38.8752 21.0116C39.033 21.0961 39.1634 21.2797 39.1651 21.4196C39.1667 21.5594 38.8287 21.9744 38.414 22.3416L37.66 23.0091L37.814 23.6767C37.8987 24.0439 37.9696 24.5557 37.9717 24.8141C37.9736 25.0724 37.8919 25.3154 37.7898 25.354C37.6879 25.3926 37.1878 25.1994 36.6788 24.925L35.7533 24.4259L34.8737 24.9414C34.37 25.2366 33.8937 25.4185 33.7594 25.3669C33.6304 25.3173 33.5247 25.1203 33.5247 24.9291C33.5247 24.7379 33.6004 24.2289 33.6928 23.7979L33.8607 23.0143L33.0994 22.3324C32.6806 21.9573 32.3379 21.5372 32.3379 21.3989C32.3379 21.2605 32.5091 21.0823 32.7184 21.0027C32.9278 20.9232 33.3489 20.858 33.6544 20.858C33.9598 20.858 34.3205 20.7747 34.4556 20.6726C34.5909 20.5707 34.8698 20.1032 35.0756 19.6341C35.3581 18.9898 35.525 18.7811 35.7574 18.7811C35.992 18.7811 36.1675 19.0063 36.4941 19.7269Z" fill="#2A8981"/>
</svg>
