<svg width="6" height="20" viewBox="0 0 6 20" fill="none" xmlns="http://www.w3.org/2000/svg">
<path d="M2.99247 7.80488C4.18294 7.80488 5.13532 8.78049 5.13532 10C5.13532 11.2195 4.18294 12.1951 2.99247 12.1951C1.80199 12.1951 0.849609 11.2195 0.849609 10C0.849609 8.78049 1.80199 7.80488 2.99247 7.80488ZM0.849609 2.19512C0.849609 3.41463 1.80199 4.39024 2.99247 4.39024C4.18294 4.39024 5.13532 3.41463 5.13532 2.19512C5.13532 0.97561 4.18294 0 2.99247 0C1.80199 0 0.849609 0.97561 0.849609 2.19512ZM0.849609 17.8049C0.849609 19.0244 1.80199 20 2.99247 20C4.18294 20 5.13532 19.0244 5.13532 17.8049C5.13532 16.5854 4.18294 15.6098 2.99247 15.6098C1.80199 15.6098 0.849609 16.5854 0.849609 17.8049Z" fill="#3C4858"/>
</svg>
