<svg width="71" height="47" viewBox="0 0 71 47" fill="none" xmlns="http://www.w3.org/2000/svg">
<path opacity="0.8" d="M6.55281 43.9567C5.90615 43.9567 5.30948 43.8067 4.76281 43.5067C4.22281 43.2001 3.79281 42.7767 3.47281 42.2367C3.15948 41.6901 3.00281 41.0767 3.00281 40.3967C3.00281 39.7167 3.15948 39.1067 3.47281 38.5667C3.79281 38.0267 4.22281 37.6067 4.76281 37.3067C5.30948 37.0001 5.90615 36.8467 6.55281 36.8467C7.20615 36.8467 7.80281 37.0001 8.34281 37.3067C8.88948 37.6067 9.31948 38.0267 9.63281 38.5667C9.94615 39.1067 10.1028 39.7167 10.1028 40.3967C10.1028 41.0767 9.94615 41.6901 9.63281 42.2367C9.31948 42.7767 8.88948 43.2001 8.34281 43.5067C7.80281 43.8067 7.20615 43.9567 6.55281 43.9567ZM6.55281 42.9667C7.01281 42.9667 7.42281 42.8634 7.78281 42.6567C8.14281 42.4434 8.42281 42.1434 8.62281 41.7567C8.82948 41.3634 8.93281 40.9101 8.93281 40.3967C8.93281 39.8834 8.82948 39.4334 8.62281 39.0467C8.42281 38.6601 8.14281 38.3634 7.78281 38.1567C7.42281 37.9501 7.01281 37.8467 6.55281 37.8467C6.09281 37.8467 5.68281 37.9501 5.32281 38.1567C4.96281 38.3634 4.67948 38.6601 4.47281 39.0467C4.27281 39.4334 4.17281 39.8834 4.17281 40.3967C4.17281 40.9101 4.27281 41.3634 4.47281 41.7567C4.67948 42.1434 4.96281 42.4434 5.32281 42.6567C5.68281 42.8634 6.09281 42.9667 6.55281 42.9667ZM15.0546 43.8867L12.3646 40.7767V43.8867H11.2246V36.9367H12.3646V40.1067L15.0646 36.9367H16.4946L13.4746 40.4167L16.5446 43.8867H15.0546ZM21.1627 43.8867L19.5627 41.1067H18.6927V43.8867H17.5527V36.9367H19.9527C20.4861 36.9367 20.9361 37.0301 21.3027 37.2167C21.6761 37.4034 21.9527 37.6534 22.1327 37.9667C22.3194 38.2801 22.4127 38.6301 22.4127 39.0167C22.4127 39.4701 22.2794 39.8834 22.0127 40.2567C21.7527 40.6234 21.3494 40.8734 20.8027 41.0067L22.5227 43.8867H21.1627ZM18.6927 40.1967H19.9527C20.3794 40.1967 20.6994 40.0901 20.9127 39.8767C21.1327 39.6634 21.2427 39.3767 21.2427 39.0167C21.2427 38.6567 21.1361 38.3767 20.9227 38.1767C20.7094 37.9701 20.3861 37.8667 19.9527 37.8667H18.6927V40.1967ZM31.3288 39.0067C31.3288 39.3601 31.2454 39.6934 31.0788 40.0067C30.9121 40.3201 30.6454 40.5767 30.2788 40.7767C29.9121 40.9701 29.4421 41.0667 28.8688 41.0667H27.6088V43.8867H26.4688V36.9367H28.8688C29.4021 36.9367 29.8521 37.0301 30.2188 37.2167C30.5921 37.3967 30.8688 37.6434 31.0488 37.9567C31.2354 38.2701 31.3288 38.6201 31.3288 39.0067ZM28.8688 40.1367C29.3021 40.1367 29.6254 40.0401 29.8388 39.8467C30.0521 39.6467 30.1588 39.3667 30.1588 39.0067C30.1588 38.2467 29.7288 37.8667 28.8688 37.8667H27.6088V40.1367H28.8688ZM33.556 39.1767C33.7227 38.8967 33.9427 38.6801 34.216 38.5267C34.496 38.3667 34.826 38.2867 35.206 38.2867V39.4667H34.916C34.4693 39.4667 34.1293 39.5801 33.896 39.8067C33.6693 40.0334 33.556 40.4267 33.556 40.9867V43.8867H32.416V38.3767H33.556V39.1767ZM38.6439 43.9767C38.1239 43.9767 37.6539 43.8601 37.2339 43.6267C36.8139 43.3867 36.4839 43.0534 36.2439 42.6267C36.0039 42.1934 35.8839 41.6934 35.8839 41.1267C35.8839 40.5667 36.0072 40.0701 36.2539 39.6367C36.5006 39.2034 36.8372 38.8701 37.2639 38.6367C37.6906 38.4034 38.1672 38.2867 38.6939 38.2867C39.2206 38.2867 39.6972 38.4034 40.1239 38.6367C40.5506 38.8701 40.8872 39.2034 41.1339 39.6367C41.3806 40.0701 41.5039 40.5667 41.5039 41.1267C41.5039 41.6867 41.3772 42.1834 41.1239 42.6167C40.8706 43.0501 40.5239 43.3867 40.0839 43.6267C39.6506 43.8601 39.1706 43.9767 38.6439 43.9767ZM38.6439 42.9867C38.9372 42.9867 39.2106 42.9167 39.4639 42.7767C39.7239 42.6367 39.9339 42.4267 40.0939 42.1467C40.2539 41.8667 40.3339 41.5267 40.3339 41.1267C40.3339 40.7267 40.2572 40.3901 40.1039 40.1167C39.9506 39.8367 39.7472 39.6267 39.4939 39.4867C39.2406 39.3467 38.9672 39.2767 38.6739 39.2767C38.3806 39.2767 38.1072 39.3467 37.8539 39.4867C37.6072 39.6267 37.4106 39.8367 37.2639 40.1167C37.1172 40.3901 37.0439 40.7267 37.0439 41.1267C37.0439 41.7201 37.1939 42.1801 37.4939 42.5067C37.8006 42.8267 38.1839 42.9867 38.6439 42.9867ZM44.8509 38.2867C45.2775 38.2867 45.6542 38.3734 45.9809 38.5467C46.3142 38.7134 46.5742 38.9234 46.7609 39.1767V38.3767H47.9109V43.9767C47.9109 44.4834 47.8042 44.9334 47.5909 45.3267C47.3775 45.7267 47.0675 46.0401 46.6609 46.2667C46.2609 46.4934 45.7809 46.6067 45.2209 46.6067C44.4742 46.6067 43.8542 46.4301 43.3609 46.0767C42.8675 45.7301 42.5875 45.2567 42.5209 44.6567H43.6509C43.7375 44.9434 43.9209 45.1734 44.2009 45.3467C44.4875 45.5267 44.8275 45.6167 45.2209 45.6167C45.6809 45.6167 46.0509 45.4767 46.3309 45.1967C46.6175 44.9167 46.7609 44.5101 46.7609 43.9767V43.0567C46.5675 43.3167 46.3042 43.5367 45.9709 43.7167C45.6442 43.8901 45.2709 43.9767 44.8509 43.9767C44.3709 43.9767 43.9309 43.8567 43.5309 43.6167C43.1375 43.3701 42.8242 43.0301 42.5909 42.5967C42.3642 42.1567 42.2509 41.6601 42.2509 41.1067C42.2509 40.5534 42.3642 40.0634 42.5909 39.6367C42.8242 39.2101 43.1375 38.8801 43.5309 38.6467C43.9309 38.4067 44.3709 38.2867 44.8509 38.2867ZM46.7609 41.1267C46.7609 40.7467 46.6809 40.4167 46.5209 40.1367C46.3675 39.8567 46.1642 39.6434 45.9109 39.4967C45.6575 39.3501 45.3842 39.2767 45.0909 39.2767C44.7975 39.2767 44.5242 39.3501 44.2709 39.4967C44.0175 39.6367 43.8109 39.8467 43.6509 40.1267C43.4975 40.4001 43.4209 40.7267 43.4209 41.1067C43.4209 41.4867 43.4975 41.8201 43.6509 42.1067C43.8109 42.3934 44.0175 42.6134 44.2709 42.7667C44.5309 42.9134 44.8042 42.9867 45.0909 42.9867C45.3842 42.9867 45.6575 42.9134 45.9109 42.7667C46.1642 42.6201 46.3675 42.4067 46.5209 42.1267C46.6809 41.8401 46.7609 41.5067 46.7609 41.1267ZM50.5482 39.1767C50.7149 38.8967 50.9349 38.6801 51.2082 38.5267C51.4882 38.3667 51.8182 38.2867 52.1982 38.2867V39.4667H51.9082C51.4615 39.4667 51.1215 39.5801 50.8882 39.8067C50.6615 40.0334 50.5482 40.4267 50.5482 40.9867V43.8867H49.4082V38.3767H50.5482V39.1767ZM58.2961 40.9967C58.2961 41.2034 58.2828 41.3901 58.2561 41.5567H54.0461C54.0794 41.9967 54.2428 42.3501 54.5361 42.6167C54.8294 42.8834 55.1894 43.0167 55.6161 43.0167C56.2294 43.0167 56.6628 42.7601 56.9161 42.2467H58.1461C57.9794 42.7534 57.6761 43.1701 57.2361 43.4967C56.8028 43.8167 56.2628 43.9767 55.6161 43.9767C55.0894 43.9767 54.6161 43.8601 54.1961 43.6267C53.7828 43.3867 53.4561 43.0534 53.2161 42.6267C52.9828 42.1934 52.8661 41.6934 52.8661 41.1267C52.8661 40.5601 52.9794 40.0634 53.2061 39.6367C53.4394 39.2034 53.7628 38.8701 54.1761 38.6367C54.5961 38.4034 55.0761 38.2867 55.6161 38.2867C56.1361 38.2867 56.5994 38.4001 57.0061 38.6267C57.4128 38.8534 57.7294 39.1734 57.9561 39.5867C58.1828 39.9934 58.2961 40.4634 58.2961 40.9967ZM57.1061 40.6367C57.0994 40.2167 56.9494 39.8801 56.6561 39.6267C56.3628 39.3734 55.9994 39.2467 55.5661 39.2467C55.1728 39.2467 54.8361 39.3734 54.5561 39.6267C54.2761 39.8734 54.1094 40.2101 54.0561 40.6367H57.1061ZM61.418 43.9767C60.9846 43.9767 60.5946 43.9001 60.248 43.7467C59.908 43.5867 59.638 43.3734 59.438 43.1067C59.238 42.8334 59.1313 42.5301 59.118 42.1967H60.298C60.318 42.4301 60.428 42.6267 60.628 42.7867C60.8346 42.9401 61.0913 43.0167 61.398 43.0167C61.718 43.0167 61.9646 42.9567 62.138 42.8367C62.318 42.7101 62.408 42.5501 62.408 42.3567C62.408 42.1501 62.308 41.9967 62.108 41.8967C61.9146 41.7967 61.6046 41.6867 61.178 41.5667C60.7646 41.4534 60.428 41.3434 60.168 41.2367C59.908 41.1301 59.6813 40.9667 59.488 40.7467C59.3013 40.5267 59.208 40.2367 59.208 39.8767C59.208 39.5834 59.2946 39.3167 59.468 39.0767C59.6413 38.8301 59.888 38.6367 60.208 38.4967C60.5346 38.3567 60.908 38.2867 61.328 38.2867C61.9546 38.2867 62.458 38.4467 62.838 38.7667C63.2246 39.0801 63.4313 39.5101 63.458 40.0567H62.318C62.298 39.8101 62.198 39.6134 62.018 39.4667C61.838 39.3201 61.5946 39.2467 61.288 39.2467C60.988 39.2467 60.758 39.3034 60.598 39.4167C60.438 39.5301 60.358 39.6801 60.358 39.8667C60.358 40.0134 60.4113 40.1367 60.518 40.2367C60.6246 40.3367 60.7546 40.4167 60.908 40.4767C61.0613 40.5301 61.288 40.6001 61.588 40.6867C61.988 40.7934 62.3146 40.9034 62.568 41.0167C62.828 41.1234 63.0513 41.2834 63.238 41.4967C63.4246 41.7101 63.5213 41.9934 63.528 42.3467C63.528 42.6601 63.4413 42.9401 63.268 43.1867C63.0946 43.4334 62.848 43.6267 62.528 43.7667C62.2146 43.9067 61.8446 43.9767 61.418 43.9767ZM66.7598 43.9767C66.3264 43.9767 65.9364 43.9001 65.5898 43.7467C65.2498 43.5867 64.9798 43.3734 64.7798 43.1067C64.5798 42.8334 64.4731 42.5301 64.4598 42.1967H65.6398C65.6598 42.4301 65.7698 42.6267 65.9698 42.7867C66.1764 42.9401 66.4331 43.0167 66.7398 43.0167C67.0598 43.0167 67.3064 42.9567 67.4798 42.8367C67.6598 42.7101 67.7498 42.5501 67.7498 42.3567C67.7498 42.1501 67.6498 41.9967 67.4498 41.8967C67.2564 41.7967 66.9464 41.6867 66.5198 41.5667C66.1064 41.4534 65.7698 41.3434 65.5098 41.2367C65.2498 41.1301 65.0231 40.9667 64.8298 40.7467C64.6431 40.5267 64.5498 40.2367 64.5498 39.8767C64.5498 39.5834 64.6364 39.3167 64.8098 39.0767C64.9831 38.8301 65.2298 38.6367 65.5498 38.4967C65.8764 38.3567 66.2498 38.2867 66.6698 38.2867C67.2964 38.2867 67.7998 38.4467 68.1798 38.7667C68.5664 39.0801 68.7731 39.5101 68.7998 40.0567H67.6598C67.6398 39.8101 67.5398 39.6134 67.3598 39.4667C67.1798 39.3201 66.9364 39.2467 66.6298 39.2467C66.3298 39.2467 66.0998 39.3034 65.9398 39.4167C65.7798 39.5301 65.6998 39.6801 65.6998 39.8667C65.6998 40.0134 65.7531 40.1367 65.8598 40.2367C65.9664 40.3367 66.0964 40.4167 66.2498 40.4767C66.4031 40.5301 66.6298 40.6001 66.9298 40.6867C67.3298 40.7934 67.6564 40.9034 67.9098 41.0167C68.1698 41.1234 68.3931 41.2834 68.5798 41.4967C68.7664 41.7101 68.8631 41.9934 68.8698 42.3467C68.8698 42.6601 68.7831 42.9401 68.6098 43.1867C68.4364 43.4334 68.1898 43.6267 67.8698 43.7667C67.5564 43.9067 67.1864 43.9767 66.7598 43.9767Z" fill="#2A8981"/>
<path fill-rule="evenodd" clip-rule="evenodd" d="M46.3144 0.435396C46.2822 0.457407 45.7009 1.12127 45.0225 1.91054C44.0752 3.01292 43.7649 3.41086 43.6844 3.62671C43.6202 3.79926 43.5562 4.18956 43.519 4.63746C43.4856 5.03877 43.4582 5.40619 43.4582 5.45387C43.4582 5.50159 41.5398 7.45961 39.195 9.8051L34.9319 14.0695V14.3404C34.9319 14.5738 34.9566 14.636 35.11 14.7895C35.2634 14.9429 35.3256 14.9676 35.5593 14.9676H35.8305L40.0939 10.7081L44.3572 6.4487L45.1849 6.38267C45.7788 6.33532 46.0928 6.28422 46.2968 6.20184C46.5043 6.11805 46.9673 5.75629 48.0126 4.86121C48.8001 4.187 49.4605 3.58999 49.4804 3.53453C49.5003 3.47907 49.4944 3.41162 49.4674 3.3846C49.4404 3.35763 48.9292 3.29759 48.3315 3.25128C47.6827 3.20105 47.1731 3.13545 47.067 3.08854C46.9608 3.04158 46.8576 2.93867 46.8103 2.83237C46.7632 2.72673 46.6982 2.23405 46.6498 1.61672C46.6052 1.04581 46.5526 0.537059 46.533 0.486227C46.5135 0.435341 46.4695 0.394099 46.4353 0.394535C46.401 0.395025 46.3466 0.413385 46.3144 0.435396ZM34.2781 1.32574C34.0084 1.35085 33.4568 1.4365 33.0522 1.51609C32.6477 1.59575 32.0123 1.75799 31.6403 1.87665C31.2683 1.99532 30.7167 2.19859 30.4145 2.32836C30.1123 2.45808 29.6076 2.70439 29.293 2.87563C28.9784 3.04687 28.5126 3.32963 28.2578 3.50397C28.0031 3.67831 27.5865 3.9876 27.3319 4.19125C27.0773 4.39491 26.6238 4.80684 26.324 5.10665C26.0242 5.40641 25.6123 5.85997 25.4086 6.11456C25.205 6.3691 24.8957 6.78578 24.7213 7.04048C24.547 7.29518 24.2642 7.761 24.093 8.07563C23.9218 8.39026 23.6764 8.89286 23.5478 9.19251C23.4192 9.49216 23.2226 10.0193 23.1109 10.3639C22.9992 10.7085 22.8387 11.3252 22.7541 11.7344C22.6696 12.1436 22.5705 12.8178 22.5341 13.2326C22.4934 13.6949 22.4812 14.3138 22.5025 14.8314C22.5216 15.2958 22.5742 15.916 22.6194 16.2096C22.6646 16.5032 22.751 16.9649 22.8113 17.2356C22.8716 17.5064 23.0094 18.0017 23.1174 18.3363C23.2256 18.671 23.4192 19.1899 23.5479 19.4895C23.6764 19.7892 23.9083 20.2673 24.0631 20.5519C24.2179 20.8366 24.5 21.3024 24.69 21.5871C24.8799 21.8718 25.2027 22.3129 25.4072 22.5675C25.6116 22.8221 26.0242 23.2756 26.324 23.5754C26.6238 23.8752 27.0773 24.2878 27.3319 24.4923C27.5865 24.6967 28.0277 25.0191 28.3123 25.2086C28.597 25.3981 29.0562 25.6779 29.3328 25.8304C29.6093 25.9829 30.0874 26.2152 30.3952 26.3465C30.7029 26.4779 31.2331 26.6753 31.5734 26.7853C31.9136 26.8952 32.4653 27.0434 32.7992 27.1146C33.1331 27.1857 33.6393 27.2764 33.9239 27.3161C34.2203 27.3573 34.9307 27.3879 35.5856 27.3876C36.2485 27.3873 36.936 27.3567 37.2201 27.3149C37.4898 27.2752 37.9919 27.1831 38.3359 27.11C38.68 27.0369 39.3043 26.8631 39.7234 26.7237C40.1437 26.5838 40.8646 26.2815 41.3315 26.0493C41.797 25.8179 42.4353 25.4566 42.75 25.2467C43.0646 25.0368 43.5286 24.6984 43.7812 24.4948C44.0337 24.2912 44.4882 23.8767 44.7911 23.5738C45.094 23.2708 45.5085 22.8164 45.7121 22.5638C45.9158 22.3113 46.2541 21.8472 46.4641 21.5326C46.674 21.218 47.0352 20.5797 47.2667 20.1142C47.5001 19.6448 47.8 18.929 47.9402 18.507C48.0792 18.0885 48.2429 17.5205 48.304 17.2447C48.3651 16.969 48.4522 16.5032 48.4974 16.2096C48.5426 15.916 48.5953 15.2958 48.6144 14.8314C48.6355 14.3218 48.6238 13.6952 48.5849 13.2514C48.5494 12.8469 48.4592 12.2094 48.3845 11.8349C48.3098 11.4603 48.1859 10.9455 48.1093 10.6908C48.0327 10.4361 47.8838 9.99475 47.7783 9.71008C47.6728 9.42542 47.454 8.92549 47.292 8.59909C47.13 8.27269 46.8728 7.79914 46.7203 7.54672C46.5077 7.19488 46.4222 7.09589 46.3536 7.12248C46.3043 7.14154 45.9242 7.18949 45.5088 7.22899L44.7536 7.30085L44.4124 7.63902L44.0713 7.97718L44.4241 8.50309C44.6182 8.79239 44.9204 9.32326 45.0957 9.68284C45.2711 10.0424 45.5124 10.6308 45.632 10.9904C45.7516 11.35 45.8985 11.8893 45.9583 12.189C46.0181 12.4886 46.093 12.9719 46.1247 13.2629C46.1564 13.5538 46.1819 14.0319 46.1814 14.3253C46.1808 14.6186 46.1563 15.0915 46.1267 15.3762C46.0972 15.6608 46.0215 16.1512 45.9586 16.4658C45.8957 16.7804 45.7518 17.3198 45.6389 17.6644C45.526 18.009 45.3244 18.5239 45.1911 18.8085C45.0578 19.0932 44.8094 19.5544 44.6391 19.8335C44.4689 20.1125 44.1779 20.5416 43.9925 20.7869C43.8071 21.0322 43.3843 21.5041 43.0529 21.8355C42.7215 22.1669 42.2496 22.5898 42.0043 22.7752C41.759 22.9606 41.3299 23.2515 41.0509 23.4218C40.7718 23.592 40.3106 23.8404 40.0259 23.9738C39.7412 24.1071 39.2264 24.3086 38.8818 24.4215C38.5372 24.5344 37.9978 24.6783 37.6832 24.7412C37.3685 24.8042 36.8782 24.8799 36.5935 24.9094C36.3089 24.9389 35.8518 24.9635 35.5778 24.964C35.3038 24.9645 34.8257 24.9392 34.5154 24.9077C34.2051 24.8761 33.706 24.8001 33.4064 24.7386C33.1067 24.6772 32.5673 24.5307 32.2078 24.413C31.8482 24.2954 31.2574 24.0531 30.895 23.8747C30.5325 23.6962 29.9931 23.3879 29.6964 23.1894C29.3996 22.9911 28.9532 22.6559 28.7044 22.4447C28.4556 22.2335 28.0545 21.8499 27.8132 21.5923C27.5718 21.3347 27.2275 20.9279 27.0481 20.6881C26.8687 20.4484 26.5842 20.0194 26.4158 19.7347C26.2474 19.45 25.9936 18.9576 25.8518 18.6403C25.71 18.3231 25.5054 17.7715 25.3972 17.4145C25.289 17.0575 25.1522 16.4835 25.0932 16.1389C25.0342 15.7943 24.971 15.1814 24.9528 14.7769C24.9334 14.3472 24.9463 13.7696 24.9838 13.3876C25.0191 13.028 25.0985 12.4886 25.1602 12.189C25.222 11.8893 25.3653 11.3608 25.4787 11.0145C25.5921 10.6681 25.8059 10.1288 25.9538 9.81589C26.1017 9.503 26.348 9.04546 26.5011 8.79915C26.6542 8.55278 26.9289 8.15496 27.1116 7.91497C27.2943 7.67497 27.6563 7.25536 27.9159 6.98246C28.1756 6.70956 28.5856 6.3271 28.827 6.1326C29.0683 5.93804 29.4864 5.63153 29.7561 5.45147C30.0258 5.27135 30.5424 4.97928 30.9042 4.80237C31.266 4.62547 31.8544 4.38499 32.2117 4.26791C32.5691 4.15088 33.1067 4.00487 33.4064 3.94342C33.706 3.88196 34.2051 3.8059 34.5154 3.77436C34.8257 3.74287 35.3109 3.7171 35.5935 3.7171C35.8762 3.7171 36.3456 3.74303 36.6365 3.77474C36.9275 3.80645 37.4108 3.88131 37.7104 3.94113C38.0101 4.00095 38.5494 4.14778 38.909 4.26742C39.2686 4.38706 39.857 4.62836 40.2166 4.80368C40.5762 4.979 41.107 5.28121 41.3963 5.47528L41.9222 5.82815L42.2615 5.48585L42.6008 5.14354L42.67 4.38946C42.7081 3.97469 42.7559 3.5943 42.7761 3.54412C42.8053 3.47193 42.6952 3.3828 42.2503 3.11845C41.9408 2.93458 41.4826 2.68554 41.232 2.56508C40.9813 2.44463 40.5523 2.25939 40.2785 2.15348C40.0048 2.04751 39.5478 1.89033 39.2631 1.80408C38.9785 1.71789 38.4391 1.58779 38.0645 1.51495C37.69 1.44216 37.1157 1.35619 36.7884 1.32399C36.461 1.29179 35.8726 1.26875 35.4808 1.27278C35.089 1.27681 34.5478 1.30067 34.2781 1.32574ZM34.5777 6.22364C34.383 6.25044 33.9907 6.32557 33.706 6.39062C33.4213 6.45567 33.0168 6.5703 32.8071 6.64538C32.5973 6.72046 32.205 6.89234 31.9354 7.02741C31.6657 7.16247 31.2474 7.40442 31.0058 7.56508C30.7643 7.72575 30.39 8.01625 30.1742 8.21069C29.9583 8.40519 29.6226 8.74091 29.4281 8.95682C29.2336 9.17268 28.9431 9.54696 28.7825 9.78848C28.6218 10.0301 28.3758 10.4558 28.2359 10.7346C28.0959 11.0133 27.9102 11.4546 27.8232 11.7152C27.7362 11.9758 27.61 12.4464 27.5425 12.7611C27.4405 13.2374 27.4199 13.5017 27.4199 14.341C27.4199 15.1804 27.4405 15.4446 27.5425 15.921C27.61 16.2356 27.7362 16.7062 27.8232 16.9668C27.9102 17.2274 28.0959 17.6687 28.2359 17.9475C28.3758 18.2263 28.6218 18.652 28.7825 18.8936C28.9431 19.1351 29.2336 19.5094 29.4281 19.7252C29.6226 19.9411 29.9583 20.2769 30.1742 20.4714C30.39 20.6658 30.7699 20.9601 31.0182 21.1253C31.2665 21.2906 31.7216 21.549 32.0295 21.6996C32.3373 21.8502 32.8221 22.0449 33.1067 22.1322C33.3914 22.2195 33.8449 22.3341 34.1146 22.387C34.476 22.4578 34.8629 22.4825 35.5856 22.4809C36.3884 22.4791 36.6701 22.4566 37.1384 22.3568C37.453 22.2897 37.9311 22.1596 38.2008 22.0677C38.4704 21.9757 38.9117 21.7899 39.1814 21.6548C39.4511 21.5196 39.8802 21.2722 40.1349 21.105C40.4265 20.9135 40.8608 20.5381 41.3081 20.0907C41.7555 19.6435 42.1309 19.2092 42.3224 18.9175C42.4896 18.6628 42.737 18.2337 42.8722 17.9641C43.0073 17.6944 43.1931 17.2531 43.285 16.9834C43.3769 16.7137 43.5071 16.2356 43.5741 15.921C43.6739 15.4527 43.6964 15.1711 43.6982 14.3683C43.6999 13.6456 43.6752 13.2586 43.6044 12.8973C43.5515 12.6276 43.4344 12.1659 43.3441 11.8713C43.2538 11.5767 43.0213 11.0251 42.8276 10.6455C42.6338 10.2659 42.4385 9.90698 42.3936 9.84798C42.3156 9.74566 42.2712 9.78134 41.4212 10.6302L40.5305 11.5197L40.6566 11.7454C40.7259 11.8695 40.8684 12.2285 40.9732 12.5431C41.078 12.8578 41.1929 13.3358 41.2286 13.6055C41.2666 13.8927 41.2798 14.3328 41.2606 14.6679C41.2426 14.9825 41.1804 15.4246 41.1225 15.6503C41.0645 15.8759 40.9417 16.2559 40.8495 16.4947C40.7574 16.7335 40.5342 17.1573 40.3536 17.4365C40.1729 17.7157 39.8308 18.1385 39.5934 18.376C39.3559 18.6135 38.9331 18.9556 38.6539 19.1362C38.3747 19.3168 37.9509 19.54 37.7121 19.6322C37.4733 19.7244 37.0933 19.8499 36.8676 19.9111C36.5412 19.9997 36.2846 20.0232 35.6129 20.0262C35.019 20.0289 34.6545 20.0039 34.3845 19.9421C34.1734 19.8937 33.777 19.7702 33.5036 19.6675C33.2302 19.5648 32.793 19.3479 32.5318 19.1855C32.2687 19.0219 31.8442 18.6828 31.5793 18.4248C31.2838 18.137 30.9743 17.7627 30.7681 17.4441C30.5848 17.1608 30.3594 16.7335 30.2672 16.4947C30.1751 16.2559 30.0492 15.8759 29.9874 15.6503C29.8951 15.3131 29.8751 15.0797 29.8751 14.341C29.8751 13.6024 29.8951 13.3689 29.9874 13.0318C30.0492 12.8061 30.1751 12.4261 30.2672 12.1873C30.3594 11.9485 30.5826 11.5247 30.7632 11.2455C30.9438 10.9663 31.2859 10.5435 31.5234 10.3061C31.7609 10.0686 32.1837 9.72648 32.4629 9.54582C32.7421 9.36521 33.1659 9.142 33.4047 9.04987C33.6435 8.95769 34.0235 8.83195 34.2491 8.77044C34.5789 8.6806 34.8307 8.65782 35.5312 8.65456C36.2789 8.65112 36.4726 8.66872 36.8932 8.77845C37.1629 8.84884 37.613 9.00476 37.8935 9.12495L38.4035 9.34353L39.2813 8.46567C40.1179 7.62905 40.1541 7.58404 40.0517 7.50723C39.9925 7.46288 39.6616 7.27982 39.3164 7.10041C38.9711 6.92106 38.4587 6.69725 38.1778 6.60316C37.8969 6.50907 37.4317 6.38447 37.1439 6.32633C36.814 6.25965 36.3089 6.21214 35.7763 6.19776C35.3119 6.18517 34.7725 6.19683 34.5777 6.22364ZM34.7522 11.1823C34.5335 11.2396 34.2025 11.3661 34.0167 11.4635C33.8144 11.5694 33.514 11.8053 33.2683 12.0509C33.0231 12.2962 32.7868 12.5971 32.6813 12.7984C32.5842 12.9838 32.4563 13.3248 32.3971 13.5563C32.3379 13.7877 32.2895 14.1409 32.2895 14.341C32.2895 14.5412 32.3379 14.8943 32.3971 15.1258C32.4563 15.3572 32.5842 15.6983 32.6813 15.8836C32.7868 16.0849 33.0231 16.3859 33.2683 16.6311C33.5135 16.8763 33.8145 17.1126 34.0158 17.2181C34.2011 17.3152 34.5422 17.4431 34.7736 17.5023C35.0051 17.5615 35.3582 17.6099 35.5584 17.6099C35.7586 17.6099 36.1117 17.5615 36.3431 17.5023C36.5746 17.4431 36.9156 17.3152 37.101 17.2181C37.3023 17.1126 37.6033 16.8763 37.8485 16.6311C38.0936 16.3859 38.33 16.0849 38.4355 15.8836C38.5326 15.6983 38.6605 15.3572 38.7197 15.1258C38.7789 14.8943 38.8273 14.5507 38.8273 14.3622C38.8273 14.1737 38.7999 13.8896 38.7664 13.7308C38.7329 13.572 38.6957 13.4315 38.6838 13.4185C38.6719 13.4055 38.1415 13.9116 37.5052 14.5432C36.4364 15.6041 36.3259 15.6981 36.0524 15.779C35.8897 15.8271 35.6674 15.8665 35.5584 15.8665C35.4494 15.8665 35.2296 15.8277 35.0699 15.7803C34.8538 15.7161 34.7061 15.6206 34.4925 15.407C34.2788 15.1933 34.1833 15.0456 34.1192 14.8295C34.0717 14.6698 34.0329 14.45 34.0329 14.341C34.0329 14.2321 34.0723 14.0097 34.1205 13.847C34.2013 13.5735 34.2953 13.463 35.3563 12.3942C35.9878 11.7579 36.4939 11.2276 36.4809 11.2156C36.468 11.2038 36.3274 11.1665 36.1686 11.133C36.0098 11.0995 35.7156 11.0735 35.5149 11.0751C35.314 11.0768 34.9709 11.125 34.7522 11.1823Z" fill="#2A8981"/>
</svg>
