<svg width="71" height="47" viewBox="0 0 71 47" fill="none" xmlns="http://www.w3.org/2000/svg">
<path opacity="0.8" d="M5.67781 43.9567C5.03115 43.9567 4.43448 43.8067 3.88781 43.5067C3.34781 43.2001 2.91781 42.7767 2.59781 42.2367C2.28448 41.6901 2.12781 41.0767 2.12781 40.3967C2.12781 39.7167 2.28448 39.1067 2.59781 38.5667C2.91781 38.0267 3.34781 37.6067 3.88781 37.3067C4.43448 37.0001 5.03115 36.8467 5.67781 36.8467C6.33115 36.8467 6.92781 37.0001 7.46781 37.3067C8.01448 37.6067 8.44448 38.0267 8.75781 38.5667C9.07115 39.1067 9.22781 39.7167 9.22781 40.3967C9.22781 41.0767 9.07115 41.6901 8.75781 42.2367C8.44448 42.7767 8.01448 43.2001 7.46781 43.5067C6.92781 43.8067 6.33115 43.9567 5.67781 43.9567ZM5.67781 42.9667C6.13781 42.9667 6.54781 42.8634 6.90781 42.6567C7.26781 42.4434 7.54781 42.1434 7.74781 41.7567C7.95448 41.3634 8.05781 40.9101 8.05781 40.3967C8.05781 39.8834 7.95448 39.4334 7.74781 39.0467C7.54781 38.6601 7.26781 38.3634 6.90781 38.1567C6.54781 37.9501 6.13781 37.8467 5.67781 37.8467C5.21781 37.8467 4.80781 37.9501 4.44781 38.1567C4.08781 38.3634 3.80448 38.6601 3.59781 39.0467C3.39781 39.4334 3.29781 39.8834 3.29781 40.3967C3.29781 40.9101 3.39781 41.3634 3.59781 41.7567C3.80448 42.1434 4.08781 42.4434 4.44781 42.6567C4.80781 42.8634 5.21781 42.9667 5.67781 42.9667ZM14.1796 43.8867L11.4896 40.7767V43.8867H10.3496V36.9367H11.4896V40.1067L14.1896 36.9367H15.6196L12.5996 40.4167L15.6696 43.8867H14.1796ZM20.2877 43.8867L18.6877 41.1067H17.8177V43.8867H16.6777V36.9367H19.0777C19.6111 36.9367 20.0611 37.0301 20.4277 37.2167C20.8011 37.4034 21.0777 37.6534 21.2577 37.9667C21.4444 38.2801 21.5377 38.6301 21.5377 39.0167C21.5377 39.4701 21.4044 39.8834 21.1377 40.2567C20.8777 40.6234 20.4744 40.8734 19.9277 41.0067L21.6477 43.8867H20.2877ZM17.8177 40.1967H19.0777C19.5044 40.1967 19.8244 40.0901 20.0377 39.8767C20.2577 39.6634 20.3677 39.3767 20.3677 39.0167C20.3677 38.6567 20.2611 38.3767 20.0477 38.1767C19.8344 37.9701 19.5111 37.8667 19.0777 37.8667H17.8177V40.1967ZM30.4538 39.0067C30.4538 39.3601 30.3704 39.6934 30.2038 40.0067C30.0371 40.3201 29.7704 40.5767 29.4038 40.7767C29.0371 40.9701 28.5671 41.0667 27.9938 41.0667H26.7338V43.8867H25.5938V36.9367H27.9938C28.5271 36.9367 28.9771 37.0301 29.3438 37.2167C29.7171 37.3967 29.9938 37.6434 30.1738 37.9567C30.3604 38.2701 30.4538 38.6201 30.4538 39.0067ZM27.9938 40.1367C28.4271 40.1367 28.7504 40.0401 28.9638 39.8467C29.1771 39.6467 29.2838 39.3667 29.2838 39.0067C29.2838 38.2467 28.8538 37.8667 27.9938 37.8667H26.7338V40.1367H27.9938ZM32.681 39.1767C32.8477 38.8967 33.0677 38.6801 33.341 38.5267C33.621 38.3667 33.951 38.2867 34.331 38.2867V39.4667H34.041C33.5943 39.4667 33.2543 39.5801 33.021 39.8067C32.7943 40.0334 32.681 40.4267 32.681 40.9867V43.8867H31.541V38.3767H32.681V39.1767ZM37.7689 43.9767C37.2489 43.9767 36.7789 43.8601 36.3589 43.6267C35.9389 43.3867 35.6089 43.0534 35.3689 42.6267C35.1289 42.1934 35.0089 41.6934 35.0089 41.1267C35.0089 40.5667 35.1322 40.0701 35.3789 39.6367C35.6256 39.2034 35.9622 38.8701 36.3889 38.6367C36.8156 38.4034 37.2922 38.2867 37.8189 38.2867C38.3456 38.2867 38.8222 38.4034 39.2489 38.6367C39.6756 38.8701 40.0122 39.2034 40.2589 39.6367C40.5056 40.0701 40.6289 40.5667 40.6289 41.1267C40.6289 41.6867 40.5022 42.1834 40.2489 42.6167C39.9956 43.0501 39.6489 43.3867 39.2089 43.6267C38.7756 43.8601 38.2956 43.9767 37.7689 43.9767ZM37.7689 42.9867C38.0622 42.9867 38.3356 42.9167 38.5889 42.7767C38.8489 42.6367 39.0589 42.4267 39.2189 42.1467C39.3789 41.8667 39.4589 41.5267 39.4589 41.1267C39.4589 40.7267 39.3822 40.3901 39.2289 40.1167C39.0756 39.8367 38.8722 39.6267 38.6189 39.4867C38.3656 39.3467 38.0922 39.2767 37.7989 39.2767C37.5056 39.2767 37.2322 39.3467 36.9789 39.4867C36.7322 39.6267 36.5356 39.8367 36.3889 40.1167C36.2422 40.3901 36.1689 40.7267 36.1689 41.1267C36.1689 41.7201 36.3189 42.1801 36.6189 42.5067C36.9256 42.8267 37.3089 42.9867 37.7689 42.9867ZM43.9759 38.2867C44.4025 38.2867 44.7792 38.3734 45.1059 38.5467C45.4392 38.7134 45.6992 38.9234 45.8859 39.1767V38.3767H47.0359V43.9767C47.0359 44.4834 46.9292 44.9334 46.7159 45.3267C46.5025 45.7267 46.1925 46.0401 45.7859 46.2667C45.3859 46.4934 44.9059 46.6067 44.3459 46.6067C43.5992 46.6067 42.9792 46.4301 42.4859 46.0767C41.9925 45.7301 41.7125 45.2567 41.6459 44.6567H42.7759C42.8625 44.9434 43.0459 45.1734 43.3259 45.3467C43.6125 45.5267 43.9525 45.6167 44.3459 45.6167C44.8059 45.6167 45.1759 45.4767 45.4559 45.1967C45.7425 44.9167 45.8859 44.5101 45.8859 43.9767V43.0567C45.6925 43.3167 45.4292 43.5367 45.0959 43.7167C44.7692 43.8901 44.3959 43.9767 43.9759 43.9767C43.4959 43.9767 43.0559 43.8567 42.6559 43.6167C42.2625 43.3701 41.9492 43.0301 41.7159 42.5967C41.4892 42.1567 41.3759 41.6601 41.3759 41.1067C41.3759 40.5534 41.4892 40.0634 41.7159 39.6367C41.9492 39.2101 42.2625 38.8801 42.6559 38.6467C43.0559 38.4067 43.4959 38.2867 43.9759 38.2867ZM45.8859 41.1267C45.8859 40.7467 45.8059 40.4167 45.6459 40.1367C45.4925 39.8567 45.2892 39.6434 45.0359 39.4967C44.7825 39.3501 44.5092 39.2767 44.2159 39.2767C43.9225 39.2767 43.6492 39.3501 43.3959 39.4967C43.1425 39.6367 42.9359 39.8467 42.7759 40.1267C42.6225 40.4001 42.5459 40.7267 42.5459 41.1067C42.5459 41.4867 42.6225 41.8201 42.7759 42.1067C42.9359 42.3934 43.1425 42.6134 43.3959 42.7667C43.6559 42.9134 43.9292 42.9867 44.2159 42.9867C44.5092 42.9867 44.7825 42.9134 45.0359 42.7667C45.2892 42.6201 45.4925 42.4067 45.6459 42.1267C45.8059 41.8401 45.8859 41.5067 45.8859 41.1267ZM49.6732 39.1767C49.8399 38.8967 50.0599 38.6801 50.3332 38.5267C50.6132 38.3667 50.9432 38.2867 51.3232 38.2867V39.4667H51.0332C50.5865 39.4667 50.2465 39.5801 50.0132 39.8067C49.7865 40.0334 49.6732 40.4267 49.6732 40.9867V43.8867H48.5332V38.3767H49.6732V39.1767ZM57.4211 40.9967C57.4211 41.2034 57.4078 41.3901 57.3811 41.5567H53.1711C53.2044 41.9967 53.3678 42.3501 53.6611 42.6167C53.9544 42.8834 54.3144 43.0167 54.7411 43.0167C55.3544 43.0167 55.7878 42.7601 56.0411 42.2467H57.2711C57.1044 42.7534 56.8011 43.1701 56.3611 43.4967C55.9278 43.8167 55.3878 43.9767 54.7411 43.9767C54.2144 43.9767 53.7411 43.8601 53.3211 43.6267C52.9078 43.3867 52.5811 43.0534 52.3411 42.6267C52.1078 42.1934 51.9911 41.6934 51.9911 41.1267C51.9911 40.5601 52.1044 40.0634 52.3311 39.6367C52.5644 39.2034 52.8878 38.8701 53.3011 38.6367C53.7211 38.4034 54.2011 38.2867 54.7411 38.2867C55.2611 38.2867 55.7244 38.4001 56.1311 38.6267C56.5378 38.8534 56.8544 39.1734 57.0811 39.5867C57.3078 39.9934 57.4211 40.4634 57.4211 40.9967ZM56.2311 40.6367C56.2244 40.2167 56.0744 39.8801 55.7811 39.6267C55.4878 39.3734 55.1244 39.2467 54.6911 39.2467C54.2978 39.2467 53.9611 39.3734 53.6811 39.6267C53.4011 39.8734 53.2344 40.2101 53.1811 40.6367H56.2311ZM60.543 43.9767C60.1096 43.9767 59.7196 43.9001 59.373 43.7467C59.033 43.5867 58.763 43.3734 58.563 43.1067C58.363 42.8334 58.2563 42.5301 58.243 42.1967H59.423C59.443 42.4301 59.553 42.6267 59.753 42.7867C59.9596 42.9401 60.2163 43.0167 60.523 43.0167C60.843 43.0167 61.0896 42.9567 61.263 42.8367C61.443 42.7101 61.533 42.5501 61.533 42.3567C61.533 42.1501 61.433 41.9967 61.233 41.8967C61.0396 41.7967 60.7296 41.6867 60.303 41.5667C59.8896 41.4534 59.553 41.3434 59.293 41.2367C59.033 41.1301 58.8063 40.9667 58.613 40.7467C58.4263 40.5267 58.333 40.2367 58.333 39.8767C58.333 39.5834 58.4196 39.3167 58.593 39.0767C58.7663 38.8301 59.013 38.6367 59.333 38.4967C59.6596 38.3567 60.033 38.2867 60.453 38.2867C61.0796 38.2867 61.583 38.4467 61.963 38.7667C62.3496 39.0801 62.5563 39.5101 62.583 40.0567H61.443C61.423 39.8101 61.323 39.6134 61.143 39.4667C60.963 39.3201 60.7196 39.2467 60.413 39.2467C60.113 39.2467 59.883 39.3034 59.723 39.4167C59.563 39.5301 59.483 39.6801 59.483 39.8667C59.483 40.0134 59.5363 40.1367 59.643 40.2367C59.7496 40.3367 59.8796 40.4167 60.033 40.4767C60.1863 40.5301 60.413 40.6001 60.713 40.6867C61.113 40.7934 61.4396 40.9034 61.693 41.0167C61.953 41.1234 62.1763 41.2834 62.363 41.4967C62.5496 41.7101 62.6463 41.9934 62.653 42.3467C62.653 42.6601 62.5663 42.9401 62.393 43.1867C62.2196 43.4334 61.973 43.6267 61.653 43.7667C61.3396 43.9067 60.9696 43.9767 60.543 43.9767ZM65.8848 43.9767C65.4514 43.9767 65.0614 43.9001 64.7148 43.7467C64.3748 43.5867 64.1048 43.3734 63.9048 43.1067C63.7048 42.8334 63.5981 42.5301 63.5848 42.1967H64.7648C64.7848 42.4301 64.8948 42.6267 65.0948 42.7867C65.3014 42.9401 65.5581 43.0167 65.8648 43.0167C66.1848 43.0167 66.4314 42.9567 66.6048 42.8367C66.7848 42.7101 66.8748 42.5501 66.8748 42.3567C66.8748 42.1501 66.7748 41.9967 66.5748 41.8967C66.3814 41.7967 66.0714 41.6867 65.6448 41.5667C65.2314 41.4534 64.8948 41.3434 64.6348 41.2367C64.3748 41.1301 64.1481 40.9667 63.9548 40.7467C63.7681 40.5267 63.6748 40.2367 63.6748 39.8767C63.6748 39.5834 63.7614 39.3167 63.9348 39.0767C64.1081 38.8301 64.3548 38.6367 64.6748 38.4967C65.0014 38.3567 65.3748 38.2867 65.7948 38.2867C66.4214 38.2867 66.9248 38.4467 67.3048 38.7667C67.6914 39.0801 67.8981 39.5101 67.9248 40.0567H66.7848C66.7648 39.8101 66.6648 39.6134 66.4848 39.4667C66.3048 39.3201 66.0614 39.2467 65.7548 39.2467C65.4548 39.2467 65.2248 39.3034 65.0648 39.4167C64.9048 39.5301 64.8248 39.6801 64.8248 39.8667C64.8248 40.0134 64.8781 40.1367 64.9848 40.2367C65.0914 40.3367 65.2214 40.4167 65.3748 40.4767C65.5281 40.5301 65.7548 40.6001 66.0548 40.6867C66.4548 40.7934 66.7814 40.9034 67.0348 41.0167C67.2948 41.1234 67.5181 41.2834 67.7048 41.4967C67.8914 41.7101 67.9881 41.9934 67.9948 42.3467C67.9948 42.6601 67.9081 42.9401 67.7348 43.1867C67.5614 43.4334 67.3148 43.6267 66.9948 43.7667C66.6814 43.9067 66.3114 43.9767 65.8848 43.9767Z" fill="#C4C4C4"/>
<path fill-rule="evenodd" clip-rule="evenodd" d="M45.4394 0.435396C45.4072 0.457407 44.8259 1.12127 44.1475 1.91054C43.2002 3.01292 42.8899 3.41086 42.8094 3.62671C42.7452 3.79926 42.6812 4.18956 42.644 4.63746C42.6106 5.03877 42.5832 5.40619 42.5832 5.45387C42.5832 5.50159 40.6648 7.45961 38.32 9.8051L34.0569 14.0695V14.3404C34.0569 14.5738 34.0816 14.636 34.235 14.7895C34.3884 14.9429 34.4506 14.9676 34.6843 14.9676H34.9555L39.2189 10.7081L43.4822 6.4487L44.3099 6.38267C44.9038 6.33532 45.2178 6.28422 45.4218 6.20184C45.6293 6.11805 46.0923 5.75629 47.1376 4.86121C47.9251 4.187 48.5855 3.58999 48.6054 3.53453C48.6253 3.47907 48.6194 3.41162 48.5924 3.3846C48.5654 3.35763 48.0542 3.29759 47.4565 3.25128C46.8077 3.20105 46.2981 3.13545 46.192 3.08854C46.0858 3.04158 45.9826 2.93867 45.9353 2.83237C45.8882 2.72673 45.8232 2.23405 45.7748 1.61672C45.7302 1.04581 45.6776 0.537059 45.658 0.486227C45.6385 0.435341 45.5945 0.394099 45.5603 0.394535C45.526 0.395025 45.4716 0.413385 45.4394 0.435396ZM33.4031 1.32574C33.1334 1.35085 32.5818 1.4365 32.1772 1.51609C31.7727 1.59575 31.1373 1.75799 30.7653 1.87665C30.3933 1.99532 29.8417 2.19859 29.5395 2.32836C29.2373 2.45808 28.7326 2.70439 28.418 2.87563C28.1034 3.04687 27.6376 3.32963 27.3828 3.50397C27.1281 3.67831 26.7115 3.9876 26.4569 4.19125C26.2023 4.39491 25.7488 4.80684 25.449 5.10665C25.1492 5.40641 24.7373 5.85997 24.5336 6.11456C24.33 6.3691 24.0207 6.78578 23.8463 7.04048C23.672 7.29518 23.3892 7.761 23.218 8.07563C23.0468 8.39026 22.8014 8.89286 22.6728 9.19251C22.5442 9.49216 22.3476 10.0193 22.2359 10.3639C22.1242 10.7085 21.9637 11.3252 21.8791 11.7344C21.7946 12.1436 21.6955 12.8178 21.6591 13.2326C21.6184 13.6949 21.6062 14.3138 21.6275 14.8314C21.6466 15.2958 21.6992 15.916 21.7444 16.2096C21.7896 16.5032 21.876 16.9649 21.9363 17.2356C21.9966 17.5064 22.1344 18.0017 22.2424 18.3363C22.3506 18.671 22.5442 19.1899 22.6729 19.4895C22.8014 19.7892 23.0333 20.2673 23.1881 20.5519C23.3429 20.8366 23.625 21.3024 23.815 21.5871C24.0049 21.8718 24.3277 22.3129 24.5322 22.5675C24.7366 22.8221 25.1492 23.2756 25.449 23.5754C25.7488 23.8752 26.2023 24.2878 26.4569 24.4923C26.7115 24.6967 27.1527 25.0191 27.4373 25.2086C27.722 25.3981 28.1812 25.6779 28.4578 25.8304C28.7343 25.9829 29.2124 26.2152 29.5202 26.3465C29.8279 26.4779 30.3581 26.6753 30.6984 26.7853C31.0386 26.8952 31.5903 27.0434 31.9242 27.1146C32.2581 27.1857 32.7643 27.2764 33.0489 27.3161C33.3453 27.3573 34.0557 27.3879 34.7106 27.3876C35.3735 27.3873 36.061 27.3567 36.3451 27.3149C36.6148 27.2752 37.1169 27.1831 37.4609 27.11C37.805 27.0369 38.4293 26.8631 38.8484 26.7237C39.2687 26.5838 39.9896 26.2815 40.4565 26.0493C40.922 25.8179 41.5603 25.4566 41.875 25.2467C42.1896 25.0368 42.6536 24.6984 42.9062 24.4948C43.1587 24.2912 43.6132 23.8767 43.9161 23.5738C44.219 23.2708 44.6335 22.8164 44.8371 22.5638C45.0408 22.3113 45.3791 21.8472 45.5891 21.5326C45.799 21.218 46.1602 20.5797 46.3917 20.1142C46.6251 19.6448 46.925 18.929 47.0652 18.507C47.2042 18.0885 47.3679 17.5205 47.429 17.2447C47.4901 16.969 47.5772 16.5032 47.6224 16.2096C47.6676 15.916 47.7203 15.2958 47.7394 14.8314C47.7605 14.3218 47.7488 13.6952 47.7099 13.2514C47.6744 12.8469 47.5842 12.2094 47.5095 11.8349C47.4348 11.4603 47.3109 10.9455 47.2343 10.6908C47.1577 10.4361 47.0088 9.99475 46.9033 9.71008C46.7978 9.42542 46.579 8.92549 46.417 8.59909C46.255 8.27269 45.9978 7.79914 45.8453 7.54672C45.6327 7.19488 45.5472 7.09589 45.4786 7.12248C45.4293 7.14154 45.0492 7.18949 44.6338 7.22899L43.8786 7.30085L43.5374 7.63902L43.1963 7.97718L43.5491 8.50309C43.7432 8.79239 44.0454 9.32326 44.2207 9.68284C44.3961 10.0424 44.6374 10.6308 44.757 10.9904C44.8766 11.35 45.0235 11.8893 45.0833 12.189C45.1431 12.4886 45.218 12.9719 45.2497 13.2629C45.2814 13.5538 45.3069 14.0319 45.3064 14.3253C45.3058 14.6186 45.2813 15.0915 45.2517 15.3762C45.2222 15.6608 45.1465 16.1512 45.0836 16.4658C45.0207 16.7804 44.8768 17.3198 44.7639 17.6644C44.651 18.009 44.4494 18.5239 44.3161 18.8085C44.1828 19.0932 43.9344 19.5544 43.7641 19.8335C43.5939 20.1125 43.3029 20.5416 43.1175 20.7869C42.9321 21.0322 42.5093 21.5041 42.1779 21.8355C41.8465 22.1669 41.3746 22.5898 41.1293 22.7752C40.884 22.9606 40.4549 23.2515 40.1759 23.4218C39.8968 23.592 39.4356 23.8404 39.1509 23.9738C38.8662 24.1071 38.3514 24.3086 38.0068 24.4215C37.6622 24.5344 37.1228 24.6783 36.8082 24.7412C36.4935 24.8042 36.0032 24.8799 35.7185 24.9094C35.4339 24.9389 34.9768 24.9635 34.7028 24.964C34.4288 24.9645 33.9507 24.9392 33.6404 24.9077C33.3301 24.8761 32.831 24.8001 32.5314 24.7386C32.2317 24.6772 31.6923 24.5307 31.3328 24.413C30.9732 24.2954 30.3824 24.0531 30.02 23.8747C29.6575 23.6962 29.1181 23.3879 28.8214 23.1894C28.5246 22.9911 28.0782 22.6559 27.8294 22.4447C27.5806 22.2335 27.1795 21.8499 26.9382 21.5923C26.6968 21.3347 26.3525 20.9279 26.1731 20.6881C25.9937 20.4484 25.7092 20.0194 25.5408 19.7347C25.3724 19.45 25.1186 18.9576 24.9768 18.6403C24.835 18.3231 24.6304 17.7715 24.5222 17.4145C24.414 17.0575 24.2772 16.4835 24.2182 16.1389C24.1592 15.7943 24.096 15.1814 24.0778 14.7769C24.0584 14.3472 24.0713 13.7696 24.1088 13.3876C24.1441 13.028 24.2235 12.4886 24.2852 12.189C24.347 11.8893 24.4903 11.3608 24.6037 11.0145C24.7171 10.6681 24.9309 10.1288 25.0788 9.81589C25.2267 9.503 25.473 9.04546 25.6261 8.79915C25.7792 8.55278 26.0539 8.15496 26.2366 7.91497C26.4193 7.67497 26.7813 7.25536 27.0409 6.98246C27.3006 6.70956 27.7106 6.3271 27.952 6.1326C28.1933 5.93804 28.6114 5.63153 28.8811 5.45147C29.1508 5.27135 29.6674 4.97928 30.0292 4.80237C30.391 4.62547 30.9794 4.38499 31.3367 4.26791C31.6941 4.15088 32.2317 4.00487 32.5314 3.94342C32.831 3.88196 33.3301 3.8059 33.6404 3.77436C33.9507 3.74287 34.4359 3.7171 34.7185 3.7171C35.0012 3.7171 35.4706 3.74303 35.7615 3.77474C36.0525 3.80645 36.5358 3.88131 36.8354 3.94113C37.1351 4.00095 37.6744 4.14778 38.034 4.26742C38.3936 4.38706 38.982 4.62836 39.3416 4.80368C39.7012 4.979 40.232 5.28121 40.5213 5.47528L41.0472 5.82815L41.3865 5.48585L41.7258 5.14354L41.795 4.38946C41.8331 3.97469 41.8809 3.5943 41.9011 3.54412C41.9303 3.47193 41.8202 3.3828 41.3753 3.11845C41.0658 2.93458 40.6076 2.68554 40.357 2.56508C40.1063 2.44463 39.6773 2.25939 39.4035 2.15348C39.1298 2.04751 38.6728 1.89033 38.3881 1.80408C38.1035 1.71789 37.5641 1.58779 37.1895 1.51495C36.815 1.44216 36.2407 1.35619 35.9134 1.32399C35.586 1.29179 34.9976 1.26875 34.6058 1.27278C34.214 1.27681 33.6728 1.30067 33.4031 1.32574ZM33.7027 6.22364C33.508 6.25044 33.1157 6.32557 32.831 6.39062C32.5463 6.45567 32.1418 6.5703 31.9321 6.64538C31.7223 6.72046 31.33 6.89234 31.0604 7.02741C30.7907 7.16247 30.3724 7.40442 30.1308 7.56508C29.8893 7.72575 29.515 8.01625 29.2992 8.21069C29.0833 8.40519 28.7476 8.74091 28.5531 8.95682C28.3586 9.17268 28.0681 9.54696 27.9075 9.78848C27.7468 10.0301 27.5008 10.4558 27.3609 10.7346C27.2209 11.0133 27.0352 11.4546 26.9482 11.7152C26.8612 11.9758 26.735 12.4464 26.6675 12.7611C26.5655 13.2374 26.5449 13.5017 26.5449 14.341C26.5449 15.1804 26.5655 15.4446 26.6675 15.921C26.735 16.2356 26.8612 16.7062 26.9482 16.9668C27.0352 17.2274 27.2209 17.6687 27.3609 17.9475C27.5008 18.2263 27.7468 18.652 27.9075 18.8936C28.0681 19.1351 28.3586 19.5094 28.5531 19.7252C28.7476 19.9411 29.0833 20.2769 29.2992 20.4714C29.515 20.6658 29.8949 20.9601 30.1432 21.1253C30.3915 21.2906 30.8466 21.549 31.1545 21.6996C31.4623 21.8502 31.9471 22.0449 32.2317 22.1322C32.5164 22.2195 32.9699 22.3341 33.2396 22.387C33.601 22.4578 33.9879 22.4825 34.7106 22.4809C35.5134 22.4791 35.7951 22.4566 36.2634 22.3568C36.578 22.2897 37.0561 22.1596 37.3258 22.0677C37.5954 21.9757 38.0367 21.7899 38.3064 21.6548C38.5761 21.5196 39.0052 21.2722 39.2599 21.105C39.5515 20.9135 39.9858 20.5381 40.4331 20.0907C40.8805 19.6435 41.2559 19.2092 41.4474 18.9175C41.6146 18.6628 41.862 18.2337 41.9972 17.9641C42.1323 17.6944 42.3181 17.2531 42.41 16.9834C42.5019 16.7137 42.6321 16.2356 42.6991 15.921C42.7989 15.4527 42.8214 15.1711 42.8232 14.3683C42.8249 13.6456 42.8002 13.2586 42.7294 12.8973C42.6765 12.6276 42.5594 12.1659 42.4691 11.8713C42.3788 11.5767 42.1463 11.0251 41.9526 10.6455C41.7588 10.2659 41.5635 9.90698 41.5186 9.84798C41.4406 9.74566 41.3962 9.78134 40.5462 10.6302L39.6555 11.5197L39.7816 11.7454C39.8509 11.8695 39.9934 12.2285 40.0982 12.5431C40.203 12.8578 40.3179 13.3358 40.3536 13.6055C40.3916 13.8927 40.4048 14.3328 40.3856 14.6679C40.3676 14.9825 40.3054 15.4246 40.2475 15.6503C40.1895 15.8759 40.0667 16.2559 39.9745 16.4947C39.8824 16.7335 39.6592 17.1573 39.4786 17.4365C39.2979 17.7157 38.9558 18.1385 38.7184 18.376C38.4809 18.6135 38.0581 18.9556 37.7789 19.1362C37.4997 19.3168 37.0759 19.54 36.8371 19.6322C36.5983 19.7244 36.2183 19.8499 35.9926 19.9111C35.6662 19.9997 35.4096 20.0232 34.7379 20.0262C34.144 20.0289 33.7795 20.0039 33.5095 19.9421C33.2984 19.8937 32.902 19.7702 32.6286 19.6675C32.3552 19.5648 31.918 19.3479 31.6568 19.1855C31.3937 19.0219 30.9692 18.6828 30.7043 18.4248C30.4088 18.137 30.0993 17.7627 29.8931 17.4441C29.7098 17.1608 29.4844 16.7335 29.3922 16.4947C29.3001 16.2559 29.1742 15.8759 29.1124 15.6503C29.0201 15.3131 29.0001 15.0797 29.0001 14.341C29.0001 13.6024 29.0201 13.3689 29.1124 13.0318C29.1742 12.8061 29.3001 12.4261 29.3922 12.1873C29.4844 11.9485 29.7076 11.5247 29.8882 11.2455C30.0688 10.9663 30.4109 10.5435 30.6484 10.3061C30.8859 10.0686 31.3087 9.72648 31.5879 9.54582C31.8671 9.36521 32.2909 9.142 32.5297 9.04987C32.7685 8.95769 33.1485 8.83195 33.3741 8.77044C33.7039 8.6806 33.9557 8.65782 34.6562 8.65456C35.4039 8.65112 35.5976 8.66872 36.0182 8.77845C36.2879 8.84884 36.738 9.00476 37.0185 9.12495L37.5285 9.34353L38.4063 8.46567C39.2429 7.62905 39.2791 7.58404 39.1767 7.50723C39.1175 7.46288 38.7866 7.27982 38.4414 7.10041C38.0961 6.92106 37.5837 6.69725 37.3028 6.60316C37.0219 6.50907 36.5567 6.38447 36.2689 6.32633C35.939 6.25965 35.4339 6.21214 34.9013 6.19776C34.4369 6.18517 33.8975 6.19683 33.7027 6.22364ZM33.8772 11.1823C33.6585 11.2396 33.3275 11.3661 33.1417 11.4635C32.9394 11.5694 32.639 11.8053 32.3933 12.0509C32.1481 12.2962 31.9118 12.5971 31.8063 12.7984C31.7092 12.9838 31.5813 13.3248 31.5221 13.5563C31.4629 13.7877 31.4145 14.1409 31.4145 14.341C31.4145 14.5412 31.4629 14.8943 31.5221 15.1258C31.5813 15.3572 31.7092 15.6983 31.8063 15.8836C31.9118 16.0849 32.1481 16.3859 32.3933 16.6311C32.6385 16.8763 32.9395 17.1126 33.1408 17.2181C33.3261 17.3152 33.6672 17.4431 33.8986 17.5023C34.1301 17.5615 34.4832 17.6099 34.6834 17.6099C34.8836 17.6099 35.2367 17.5615 35.4681 17.5023C35.6996 17.4431 36.0406 17.3152 36.226 17.2181C36.4273 17.1126 36.7283 16.8763 36.9735 16.6311C37.2186 16.3859 37.455 16.0849 37.5605 15.8836C37.6576 15.6983 37.7855 15.3572 37.8447 15.1258C37.9039 14.8943 37.9523 14.5507 37.9523 14.3622C37.9523 14.1737 37.9249 13.8896 37.8914 13.7308C37.8579 13.572 37.8207 13.4315 37.8088 13.4185C37.7969 13.4055 37.2665 13.9116 36.6302 14.5432C35.5614 15.6041 35.4509 15.6981 35.1774 15.779C35.0147 15.8271 34.7924 15.8665 34.6834 15.8665C34.5744 15.8665 34.3546 15.8277 34.1949 15.7803C33.9788 15.7161 33.8311 15.6206 33.6175 15.407C33.4038 15.1933 33.3083 15.0456 33.2442 14.8295C33.1967 14.6698 33.1579 14.45 33.1579 14.341C33.1579 14.2321 33.1973 14.0097 33.2455 13.847C33.3263 13.5735 33.4203 13.463 34.4813 12.3942C35.1128 11.7579 35.6189 11.2276 35.6059 11.2156C35.593 11.2038 35.4524 11.1665 35.2936 11.133C35.1348 11.0995 34.8406 11.0735 34.6399 11.0751C34.439 11.0768 34.0959 11.125 33.8772 11.1823Z" fill="#C4C4C4"/>
</svg>
