<svg width="26" height="17" viewBox="0 0 26 17" fill="none" xmlns="http://www.w3.org/2000/svg">
<g clip-path="url(#clip0_615_3862)">
<path d="M5.70048 1.30372C4.965 1.30253 4.24198 1.49022 3.60321 1.84815C2.96444 2.20608 2.43213 2.72181 2.05912 3.34414C1.68611 3.96647 1.48538 4.67375 1.47685 5.39579C1.46831 6.11782 1.65226 6.82951 2.01046 7.46017C2.36865 8.09083 2.88863 8.61855 3.51876 8.99094C4.1489 9.36333 4.86728 9.56744 5.6026 9.58302C6.33791 9.59859 7.06459 9.42507 7.7105 9.0797C8.3564 8.73434 8.89907 8.22913 9.28463 7.61422C8.8116 6.88817 8.52386 6.06085 8.44581 5.20239C8.36776 4.34393 8.50169 3.47966 8.83626 2.68283C8.44191 2.24919 7.95874 1.90218 7.41837 1.66453C6.87799 1.42687 6.2926 1.30392 5.70048 1.30372Z" fill="#5C5D6F"/>
<path d="M8.59342 9.00716L8.40895 9.14089C8.20155 9.6852 7.82915 10.154 7.34196 10.4841C6.85477 10.8142 6.27621 10.9897 5.68427 10.987C5.09234 10.9842 4.51548 10.8034 4.03147 10.4688C3.54746 10.1342 3.17957 9.66203 2.97739 9.11582C2.84685 9.02388 2.74753 8.94586 2.69361 8.8985L2.62834 8.84277L2.59144 8.87343C-0.0335282 11.1023 0.00336756 15.0028 0.00620537 15.1672V15.3065H6.68641C6.78857 13.7964 7.25397 11.1051 9.08152 9.11582C8.98224 9.02441 8.87598 8.94057 8.76368 8.86507L8.65017 8.9598L8.59342 9.00716Z" fill="#5C5D6F"/>
<path d="M17.2531 8.72035L17.1254 8.8318L17.0601 8.88195C16.2981 9.4613 15.4006 9.84441 14.4493 9.9964C14.3245 10.0131 14.2024 10.0326 14.0747 10.041C13.947 10.0493 13.8619 10.041 13.7512 10.041C13.3692 10.0389 12.9886 9.99592 12.6161 9.91281C11.7721 9.68407 10.9863 9.28452 10.3089 8.73986L10.2352 8.67578L10.1954 8.712C7.18736 11.2641 7.22993 15.7301 7.23276 15.9196V16.0756H20.0966V15.9085C19.8695 10.7681 17.7696 9.06304 17.2531 8.72035ZM15.4653 12.2141L13.6576 11.3114L11.8499 12.2141V10.0187L13.6576 10.966L15.4653 10.0187V12.2141Z" fill="#5C5D6F"/>
<path d="M8.94727 4.74514C8.94727 6.0013 9.45553 7.20601 10.3603 8.09425C11.265 8.98249 12.4921 9.4815 13.7715 9.4815C14.7257 9.4815 15.6584 9.20371 16.4518 8.68327C17.2451 8.16283 17.8634 7.42312 18.2286 6.55767C18.5937 5.69221 18.6893 4.73989 18.5031 3.82113C18.317 2.90237 17.8575 2.05843 17.1828 1.39604C16.5081 0.733648 15.6485 0.282556 14.7127 0.0998026C13.7769 -0.0829506 12.8069 0.0108306 11.9254 0.369314C11.0438 0.727797 10.2904 1.33488 9.76029 2.11377C9.2302 2.89266 8.94727 3.80838 8.94727 4.74514Z" fill="#5C5D6F"/>
<path d="M20.575 15.0699H25.9981V14.9445C25.9981 14.7968 25.947 11.4842 23.5888 9.481L23.5575 9.45312C23.48 9.52371 23.4005 9.59056 23.3192 9.65372L21.642 12.8605L21.3441 10.9799L21.8236 10.2193C21.5123 10.2932 21.1932 10.3306 20.873 10.3307C20.7878 10.3307 20.7055 10.3307 20.6204 10.3307C20.4691 10.3217 20.3184 10.304 20.1692 10.2778L19.9961 10.2444L20.4643 10.9855L20.1522 12.7769C20.3632 13.5272 20.5048 14.2946 20.575 15.0699Z" fill="#5C5D6F"/>
<path d="M21.037 9.82426C21.6396 9.82777 22.2344 9.69017 22.7721 9.42291C23.3097 9.15565 23.7747 8.76641 24.1286 8.28746C24.4824 7.80851 24.7148 7.25365 24.8066 6.66889C24.8984 6.08413 24.8468 5.48632 24.6562 4.92502C24.4657 4.36372 24.1416 3.85512 23.7108 3.44137C23.28 3.02762 22.755 2.72065 22.1792 2.54591C21.6034 2.37117 20.9935 2.33371 20.4001 2.43662C19.8066 2.53952 19.2467 2.77983 18.7667 3.13763C19.0762 3.97109 19.1531 4.87062 18.9894 5.74306C18.8258 6.6155 18.4275 7.42911 17.8359 8.09965C18.1779 8.62897 18.6508 9.06469 19.2105 9.36623C19.7702 9.66778 20.3985 9.82537 21.037 9.82426Z" fill="#5C5D6F"/>
</g>
<defs>
<clipPath id="clip0_615_3862">
<rect width="26" height="16.0952" fill="white"/>
</clipPath>
</defs>
</svg>
