<svg width="11" height="11" viewBox="0 0 11 11" fill="none" xmlns="http://www.w3.org/2000/svg">
<path fill-rule="evenodd" clip-rule="evenodd" d="M7.40502 6.59828C7.23676 6.59828 7.10009 6.46586 7.09961 6.30212C7.09905 6.13815 7.23541 6.00473 7.40414 6.00427C8.17151 6.00195 8.90157 5.55149 9.45979 4.73582C9.99558 3.95294 10.3104 2.92913 10.3583 1.82643H9.01278C8.84405 1.82643 8.7073 1.69347 8.7073 1.52942C8.7073 1.36538 8.84405 1.23242 9.01278 1.23242H10.6703C10.839 1.23242 10.9758 1.36538 10.9758 1.52942C10.9758 2.86021 10.618 4.11575 9.96853 5.06492C9.29377 6.05075 8.38376 6.59534 7.40605 6.59828C7.40573 6.59828 7.40541 6.59828 7.40502 6.59828Z" fill="#C56D41"/>
<path fill-rule="evenodd" clip-rule="evenodd" d="M4.20941 6.59828C4.20901 6.59828 4.20878 6.59828 4.20846 6.59828C3.23075 6.59534 2.32066 6.05075 1.64597 5.06492C0.996422 4.11575 0.638672 2.86021 0.638672 1.52942C0.638672 1.36538 0.775424 1.23242 0.944156 1.23242H2.60164C2.77038 1.23242 2.90713 1.36538 2.90713 1.52942C2.90713 1.69347 2.77038 1.82643 2.60164 1.82643H1.25608C1.30405 2.92913 1.61885 3.95294 2.15464 4.73582C2.71286 5.55149 3.44292 6.00195 4.21029 6.00427C4.37902 6.00473 4.51537 6.13815 4.51482 6.30212C4.51434 6.46586 4.37767 6.5982 4.20941 6.59828Z" fill="#DC914E"/>
<path fill-rule="evenodd" clip-rule="evenodd" d="M9.12645 0.5H2.74515C2.58069 0.5 2.44727 0.628999 2.44727 0.788164C2.44727 2.48091 2.79037 4.07692 3.41328 5.2821C3.81239 6.05422 4.30048 6.61471 4.84024 6.9356V8.50452C4.84024 8.66368 4.97366 8.79268 5.13812 8.79268H6.73348C6.89801 8.79268 7.03136 8.66368 7.03136 8.50452V6.9356C7.57111 6.61479 8.05928 6.05422 8.45831 5.2821C9.08122 4.07692 9.42433 2.48091 9.42433 0.788164C9.42433 0.628999 9.29098 0.5 9.12645 0.5Z" fill="#EC9D58"/>
<path fill-rule="evenodd" clip-rule="evenodd" d="M6.94278 8.50452V6.9356C7.50252 6.61479 8.00877 6.05422 8.42258 5.2821C9.06857 4.07692 9.42438 2.48091 9.42438 0.788164C9.42438 0.628999 9.28609 0.5 9.11547 0.5H5.80664V8.79268H6.63387C6.80449 8.79268 6.94278 8.66368 6.94278 8.50452Z" fill="#E7824E"/>
<path fill-rule="evenodd" clip-rule="evenodd" d="M7.54456 8.30469H4.32736C3.71826 8.30469 3.22266 8.7971 3.22266 9.40229V10.2015C3.22266 10.3662 3.35712 10.4998 3.52302 10.4998H8.3489C8.5148 10.4998 8.64926 10.3662 8.64926 10.2015V9.40229C8.64926 8.7971 8.15374 8.30469 7.54456 8.30469Z" fill="#DA7C4C"/>
<path fill-rule="evenodd" clip-rule="evenodd" d="M7.49184 8.30469H5.80664V10.4998H8.33448C8.50828 10.4998 8.64915 10.3662 8.64915 10.2015V9.40229C8.64915 8.7971 8.13003 8.30469 7.49184 8.30469Z" fill="#C56D41"/>
<path fill-rule="evenodd" clip-rule="evenodd" d="M8.60003 10.4995H3.01197C2.84254 10.4995 2.70508 10.3903 2.70508 10.2557C2.70508 10.1209 2.84254 10.0117 3.01197 10.0117H8.60003C8.76953 10.0117 8.90691 10.1209 8.90691 10.2557C8.90691 10.3903 8.76953 10.4995 8.60003 10.4995Z" fill="#C56D41"/>
<path fill-rule="evenodd" clip-rule="evenodd" d="M8.60067 10.0117H5.80664V10.4995H8.60067C8.77018 10.4995 8.90756 10.3903 8.90756 10.2557C8.90756 10.1209 8.77018 10.0117 8.60067 10.0117Z" fill="#B05A2F"/>
</svg>
