<svg width="18" height="16" viewBox="0 0 18 16" fill="none" xmlns="http://www.w3.org/2000/svg">
<path fill-rule="evenodd" clip-rule="evenodd" d="M8.84436 16C13.4248 16 17.1379 12.4183 17.1379 8C17.1379 3.58172 13.4248 0 8.84436 0C4.26394 0 0.550781 3.58172 0.550781 8C0.550781 12.4183 4.26394 16 8.84436 16Z" fill="#F37401"/>
<path d="M7.13867 8.93945L6.27148 8.7168L6.69922 4.46875H11.0762V5.4707H7.61914L7.36133 7.79102C7.51758 7.70117 7.71484 7.61719 7.95312 7.53906C8.19531 7.46094 8.47266 7.42188 8.78516 7.42188C9.17969 7.42188 9.5332 7.49023 9.8457 7.62695C10.1582 7.75977 10.4238 7.95117 10.6426 8.20117C10.8652 8.45117 11.0352 8.75195 11.1523 9.10352C11.2695 9.45508 11.3281 9.84766 11.3281 10.2812C11.3281 10.6914 11.2715 11.0684 11.1582 11.4121C11.0488 11.7559 10.8828 12.0566 10.6602 12.3145C10.4375 12.5684 10.1562 12.7656 9.81641 12.9062C9.48047 13.0469 9.08398 13.1172 8.62695 13.1172C8.2832 13.1172 7.95703 13.0703 7.64844 12.9766C7.34375 12.8789 7.07031 12.7324 6.82812 12.5371C6.58984 12.3379 6.39453 12.0918 6.24219 11.7988C6.09375 11.502 6 11.1543 5.96094 10.7559H6.99219C7.03906 11.0762 7.13281 11.3457 7.27344 11.5645C7.41406 11.7832 7.59766 11.9492 7.82422 12.0625C8.05469 12.1719 8.32227 12.2266 8.62695 12.2266C8.88477 12.2266 9.11328 12.1816 9.3125 12.0918C9.51172 12.002 9.67969 11.873 9.81641 11.7051C9.95312 11.5371 10.0566 11.334 10.127 11.0957C10.2012 10.8574 10.2383 10.5898 10.2383 10.293C10.2383 10.0234 10.2012 9.77344 10.127 9.54297C10.0527 9.3125 9.94141 9.11133 9.79297 8.93945C9.64844 8.76758 9.4707 8.63477 9.25977 8.54102C9.04883 8.44336 8.80664 8.39453 8.5332 8.39453C8.16992 8.39453 7.89453 8.44336 7.70703 8.54102C7.52344 8.63867 7.33398 8.77148 7.13867 8.93945Z" fill="white" fill-opacity="0.87"/>
</svg>
