<svg width="29" height="29" viewBox="0 0 29 29" fill="none" xmlns="http://www.w3.org/2000/svg">
<circle cx="14.25" cy="14.25" r="14.25" fill="#2A8981"/>
<path d="M16.6667 12.3333H9.44444V9.44444H16.6667V12.3333ZM14.5 19.5556C13.9254 19.5556 13.3743 19.3273 12.9679 18.921C12.5616 18.5146 12.3333 17.9635 12.3333 17.3889C12.3333 16.8143 12.5616 16.2632 12.9679 15.8568C13.3743 15.4505 13.9254 15.2222 14.5 15.2222C15.0746 15.2222 15.6257 15.4505 16.0321 15.8568C16.4384 16.2632 16.6667 16.8143 16.6667 17.3889C16.6667 17.9635 16.4384 18.5146 16.0321 18.921C15.6257 19.3273 15.0746 19.5556 14.5 19.5556ZM18.1111 8H9.44444C8.64278 8 8 8.65 8 9.44444V19.5556C8 19.9386 8.15218 20.306 8.42307 20.5769C8.69395 20.8478 9.06135 21 9.44444 21H19.5556C19.9386 21 20.306 20.8478 20.5769 20.5769C20.8478 20.306 21 19.9386 21 19.5556V10.8889L18.1111 8Z" fill="#FCFCFC"/>
</svg>
