<svg width="22" height="23" viewBox="0 0 22 23" fill="none" xmlns="http://www.w3.org/2000/svg">
<path d="M10.997 14.8849C9.97348 14.8849 8.99192 14.4783 8.2682 13.7546C7.54449 13.0309 7.13791 12.0494 7.13791 11.0259C7.13791 10.0024 7.54449 9.02082 8.2682 8.2971C8.99192 7.57339 9.97348 7.16681 10.997 7.16681C12.0205 7.16681 13.002 7.57339 13.7257 8.2971C14.4494 9.02082 14.856 10.0024 14.856 11.0259C14.856 12.0494 14.4494 13.0309 13.7257 13.7546C13.002 14.4783 12.0205 14.8849 10.997 14.8849ZM19.1892 12.0954C19.2333 11.7425 19.2664 11.3897 19.2664 11.0259C19.2664 10.662 19.2333 10.2982 19.1892 9.92328L21.5156 8.12606C21.7251 7.96068 21.7803 7.66298 21.648 7.42041L19.4428 3.60546C19.3105 3.36289 19.0128 3.26366 18.7702 3.36289L16.0248 4.46548C15.4514 4.03547 14.856 3.66059 14.1614 3.38494L13.7534 0.463086C13.7093 0.198466 13.4778 0 13.2021 0H8.79179C8.51615 0 8.2846 0.198466 8.2405 0.463086L7.83254 3.38494C7.13791 3.66059 6.54251 4.03547 5.96917 4.46548L3.22373 3.36289C2.98116 3.26366 2.68346 3.36289 2.55115 3.60546L0.345975 7.42041C0.202639 7.66298 0.268794 7.96068 0.478286 8.12606L2.80474 9.92328C2.76064 10.2982 2.72756 10.662 2.72756 11.0259C2.72756 11.3897 2.76064 11.7425 2.80474 12.0954L0.478286 13.9257C0.268794 14.0911 0.202639 14.3888 0.345975 14.6313L2.55115 18.4463C2.68346 18.6888 2.98116 18.7771 3.22373 18.6888L5.96917 17.5752C6.54251 18.0163 7.13791 18.3911 7.83254 18.6668L8.2405 21.5886C8.2846 21.8533 8.51615 22.0517 8.79179 22.0517H13.2021C13.4778 22.0517 13.7093 21.8533 13.7534 21.5886L14.1614 18.6668C14.856 18.3801 15.4514 18.0163 16.0248 17.5752L18.7702 18.6888C19.0128 18.7771 19.3105 18.6888 19.4428 18.4463L21.648 14.6313C21.7803 14.3888 21.7251 14.0911 21.5156 13.9257L19.1892 12.0954Z" fill="#2A8981"/>
</svg>
