<svg width="29" height="29" viewBox="0 0 29 29" fill="none" xmlns="http://www.w3.org/2000/svg">
<circle cx="14.25" cy="14.25" r="14.25" fill="#EDF8F7"/>
<path d="M12.1656 7V7.83313H8V9.49938H8.83312V20.33C8.83312 20.7719 9.00868 21.1957 9.32116 21.5082C9.63364 21.8207 10.0575 21.9963 10.4994 21.9963H18.8306C19.2725 21.9963 19.6964 21.8207 20.0088 21.5082C20.3213 21.1957 20.4969 20.7719 20.4969 20.33V9.49938H21.33V7.83313H17.1644V7H12.1656ZM10.4994 9.49938H18.8306V20.33H10.4994V9.49938ZM12.1656 11.1656V18.6638H13.8319V11.1656H12.1656ZM15.4981 11.1656V18.6638H17.1644V11.1656H15.4981Z" fill="#3C4858"/>
</svg>
