<svg width="18" height="18" viewBox="0 0 18 18" fill="none" xmlns="http://www.w3.org/2000/svg">
<path d="M9.19495 0.801292C11.4072 0.797026 13.5289 1.67175 15.0932 3.23303C16.6576 4.79431 17.5364 6.91426 17.5364 9.12652C17.5364 10.2219 17.3206 11.307 16.9014 12.3198C16.4822 13.3326 15.8678 14.2534 15.0932 15.0294C13.5289 16.5967 11.4072 17.4796 9.19495 17.4839C6.98267 17.4882 4.86099 16.6135 3.29667 15.0522C1.73234 13.4909 0.853515 11.3709 0.853515 9.15869C0.853515 8.06329 1.06927 6.97821 1.48847 5.96538C1.90767 4.95256 2.52209 4.03184 3.29667 3.25578C4.07124 2.47972 4.99079 1.86353 6.00282 1.44239C7.01485 1.02125 8.09954 0.803405 9.19495 0.801292V0.801292ZM10.0291 14.1458L10.0291 7.47273L12.9486 10.3866L14.1331 9.19981L9.19495 4.27128L4.25682 9.21886L5.44131 10.401L8.36081 7.47595L8.36081 14.149L10.0291 14.1458Z" fill="#00AAF1"/>
</svg>
